solid crane
facet normal 2.220446049250313e-16 1.0 0.0
  outer loop
    vertex -153.00000000000009 47.500000000000036 296.0
    vertex -150.99547330016043 47.500000000000036 297.00452669983963
    vertex -83.00000000000003 47.50000000000002 296.0
  endloop
endfacet
facet normal 2.220446049250313e-16 1.0 0.0
  outer loop
    vertex -150.99547330016043 47.500000000000036 297.00452669983963
    vertex -153.00000000000009 47.500000000000036 296.0
    vertex -151.25429234526297 47.500000000000036 297.03860087355054
  endloop
endfacet
facet normal 2.220446049250313e-16 1.0 0.0
  outer loop
    vertex -151.25429234526297 47.500000000000036 297.03860087355054
    vertex -153.00000000000009 47.500000000000036 296.0
    vertex -151.49547330016046 47.500000000000036 297.1385012960552
  endloop
endfacet
facet normal 2.220446049250313e-16 1.0 0.0
  outer loop
    vertex -151.49547330016046 47.500000000000036 297.1385012960552
    vertex -153.00000000000009 47.500000000000036 296.0
    vertex -151.70258008134698 47.500000000000036 297.2974199186531
  endloop
endfacet
facet normal 2.220446049250313e-16 1.0 0.0
  outer loop
    vertex -151.70258008134698 47.500000000000036 297.2974199186531
    vertex -153.00000000000009 47.500000000000036 296.0
    vertex -151.86149870394487 47.500000000000036 297.50452669983963
  endloop
endfacet
facet normal 2.220446049250313e-16 1.0 0.0
  outer loop
    vertex -151.86149870394487 47.500000000000036 297.50452669983963
    vertex -153.00000000000009 47.500000000000036 296.0
    vertex -151.96139912644952 47.500000000000036 297.7457076547371
  endloop
endfacet
facet normal 2.220446049250313e-16 1.0 0.0
  outer loop
    vertex -151.96139912644952 47.500000000000036 297.7457076547371
    vertex -153.00000000000009 47.500000000000036 296.0
    vertex -153.00000000000009 47.500000000000036 301.0
  endloop
endfacet
facet normal 2.220446049250313e-16 1.0 0.0
  outer loop
    vertex -151.96139912644952 47.500000000000036 297.7457076547371
    vertex -153.00000000000009 47.500000000000036 301.0
    vertex -151.99547330016043 47.500000000000036 298.00452669983963
  endloop
endfacet
facet normal 2.220446049250313e-16 1.0 0.0
  outer loop
    vertex -151.99547330016043 47.500000000000036 298.00452669983963
    vertex -153.00000000000009 47.500000000000036 301.0
    vertex -151.96139912644952 47.500000000000036 298.26334574494217
  endloop
endfacet
facet normal 2.220446049250313e-16 1.0 0.0
  outer loop
    vertex -151.96139912644952 47.500000000000036 298.26334574494217
    vertex -153.00000000000009 47.500000000000036 301.0
    vertex -151.86149870394487 47.500000000000036 298.5045266998397
  endloop
endfacet
facet normal 2.220446049250313e-16 1.0 0.0
  outer loop
    vertex -151.86149870394487 47.500000000000036 298.5045266998397
    vertex -153.00000000000009 47.500000000000036 301.0
    vertex -151.70258008134698 47.500000000000036 298.7116334810262
  endloop
endfacet
facet normal 2.220446049250313e-16 1.0 0.0
  outer loop
    vertex -151.70258008134698 47.500000000000036 298.7116334810262
    vertex -153.00000000000009 47.500000000000036 301.0
    vertex -151.49547330016046 47.500000000000036 298.87055210362405
  endloop
endfacet
facet normal 2.220446049250313e-16 1.0 0.0
  outer loop
    vertex -151.49547330016046 47.500000000000036 298.87055210362405
    vertex -153.00000000000009 47.500000000000036 301.0
    vertex -151.25429234526297 47.500000000000036 298.9704525261287
  endloop
endfacet
facet normal 2.220446049250313e-16 1.0 0.0
  outer loop
    vertex -151.25429234526297 47.500000000000036 298.9704525261287
    vertex -153.00000000000009 47.500000000000036 301.0
    vertex -150.99547330016043 47.500000000000036 299.00452669983963
  endloop
endfacet
facet normal 2.220446049250313e-16 1.0 0.0
  outer loop
    vertex -150.99547330016043 47.500000000000036 297.00452669983963
    vertex -83.00000000000003 47.50000000000002 301.0
    vertex -83.00000000000003 47.50000000000002 296.0
  endloop
endfacet
facet normal 2.220446049250313e-16 1.0 0.0
  outer loop
    vertex -83.00000000000003 47.50000000000002 301.0
    vertex -150.99547330016043 47.500000000000036 297.00452669983963
    vertex -150.73665425505794 47.500000000000036 297.03860087355054
  endloop
endfacet
facet normal 2.220446049250313e-16 1.0 0.0
  outer loop
    vertex -83.00000000000003 47.50000000000002 301.0
    vertex -150.73665425505794 47.500000000000036 297.03860087355054
    vertex -150.49547330016046 47.500000000000036 297.1385012960552
  endloop
endfacet
facet normal 2.220446049250313e-16 1.0 0.0
  outer loop
    vertex -83.00000000000003 47.50000000000002 301.0
    vertex -150.49547330016046 47.500000000000036 297.1385012960552
    vertex -150.28836651897387 47.500000000000036 297.2974199186531
  endloop
endfacet
facet normal 2.220446049250313e-16 1.0 0.0
  outer loop
    vertex -83.00000000000003 47.50000000000002 301.0
    vertex -150.28836651897387 47.500000000000036 297.2974199186531
    vertex -150.129447896376 47.500000000000036 297.50452669983963
  endloop
endfacet
facet normal 2.220446049250313e-16 1.0 0.0
  outer loop
    vertex -83.00000000000003 47.50000000000002 301.0
    vertex -150.129447896376 47.500000000000036 297.50452669983963
    vertex -150.0295474738714 47.500000000000036 297.7457076547371
  endloop
endfacet
facet normal 2.220446049250313e-16 1.0 0.0
  outer loop
    vertex -83.00000000000003 47.50000000000002 301.0
    vertex -150.0295474738714 47.500000000000036 297.7457076547371
    vertex -149.99547330016043 47.500000000000036 298.00452669983963
  endloop
endfacet
facet normal 2.220446049250313e-16 1.0 0.0
  outer loop
    vertex -83.00000000000003 47.50000000000002 301.0
    vertex -149.99547330016043 47.500000000000036 298.00452669983963
    vertex -150.0295474738714 47.500000000000036 298.26334574494217
  endloop
endfacet
facet normal 2.220446049250313e-16 1.0 0.0
  outer loop
    vertex -83.00000000000003 47.50000000000002 301.0
    vertex -150.0295474738714 47.500000000000036 298.26334574494217
    vertex -150.129447896376 47.500000000000036 298.5045266998397
  endloop
endfacet
facet normal 2.220446049250313e-16 1.0 0.0
  outer loop
    vertex -83.00000000000003 47.50000000000002 301.0
    vertex -150.129447896376 47.500000000000036 298.5045266998397
    vertex -150.28836651897387 47.500000000000036 298.7116334810262
  endloop
endfacet
facet normal 2.220446049250313e-16 1.0 0.0
  outer loop
    vertex -83.00000000000003 47.50000000000002 301.0
    vertex -150.28836651897387 47.500000000000036 298.7116334810262
    vertex -150.49547330016046 47.500000000000036 298.87055210362405
  endloop
endfacet
facet normal 2.220446049250313e-16 1.0 0.0
  outer loop
    vertex -83.00000000000003 47.50000000000002 301.0
    vertex -150.49547330016046 47.500000000000036 298.87055210362405
    vertex -150.7366542550579 47.500000000000036 298.9704525261287
  endloop
endfacet
facet normal 2.220446049250313e-16 1.0 0.0
  outer loop
    vertex -83.00000000000003 47.50000000000002 301.0
    vertex -150.7366542550579 47.500000000000036 298.9704525261287
    vertex -150.99547330016043 47.500000000000036 299.00452669983963
  endloop
endfacet
facet normal 2.220446049250313e-16 1.0 0.0
  outer loop
    vertex -83.00000000000003 47.50000000000002 301.0
    vertex -150.99547330016043 47.500000000000036 299.00452669983963
    vertex -153.00000000000009 47.500000000000036 301.0
  endloop
endfacet
facet normal 0.923879532511291 -2.0514246579479222e-16 -0.38268343236507985
  outer loop
    vertex -151.8614987039449 7.500000000000043 298.5045266998397
    vertex -151.96139912644952 47.500000000000036 298.26334574494217
    vertex -151.86149870394487 47.500000000000036 298.5045266998397
  endloop
endfacet
facet normal 0.923879532511291 -2.0514246579479222e-16 -0.38268343236507985
  outer loop
    vertex -151.96139912644952 47.500000000000036 298.26334574494217
    vertex -151.8614987039449 7.500000000000043 298.5045266998397
    vertex -151.96139912644955 7.500000000000043 298.26334574494217
  endloop
endfacet
facet normal 0.9914448613738113 -2.2014498254870036e-16 -0.13052619222004516
  outer loop
    vertex -151.96139912644955 7.500000000000043 298.26334574494217
    vertex -151.99547330016043 47.500000000000036 298.00452669983963
    vertex -151.96139912644952 47.500000000000036 298.26334574494217
  endloop
endfacet
facet normal 0.9914448613738113 -2.2014498254870036e-16 -0.13052619222004516
  outer loop
    vertex -151.99547330016043 47.500000000000036 298.00452669983963
    vertex -151.96139912644955 7.500000000000043 298.26334574494217
    vertex -151.99547330016046 7.500000000000043 298.00452669983963
  endloop
endfacet
facet normal 0.9914448613738113 -2.2014498254870036e-16 0.13052619222004516
  outer loop
    vertex -151.99547330016046 7.500000000000043 298.00452669983963
    vertex -151.96139912644952 47.500000000000036 297.7457076547371
    vertex -151.99547330016043 47.500000000000036 298.00452669983963
  endloop
endfacet
facet normal 0.9914448613738113 -2.2014498254870036e-16 0.13052619222004516
  outer loop
    vertex -151.96139912644952 47.500000000000036 297.7457076547371
    vertex -151.99547330016046 7.500000000000043 298.00452669983963
    vertex -151.96139912644955 7.500000000000043 297.7457076547371
  endloop
endfacet
facet normal 0.9238795325112928 -2.0514246579479264e-16 0.38268343236507524
  outer loop
    vertex -151.96139912644955 7.500000000000043 297.7457076547371
    vertex -151.86149870394487 47.500000000000036 297.50452669983963
    vertex -151.96139912644952 47.500000000000036 297.7457076547371
  endloop
endfacet
facet normal 0.9238795325112928 -2.0514246579479264e-16 0.38268343236507524
  outer loop
    vertex -151.86149870394487 47.500000000000036 297.50452669983963
    vertex -151.96139912644955 7.500000000000043 297.7457076547371
    vertex -151.8614987039449 7.500000000000043 297.50452669983963
  endloop
endfacet
facet normal 0.7933533402912067 -1.7615982901091492e-16 0.6087614290087578
  outer loop
    vertex -151.8614987039449 7.500000000000043 297.50452669983963
    vertex -151.70258008134698 47.500000000000036 297.2974199186531
    vertex -151.86149870394487 47.500000000000036 297.50452669983963
  endloop
endfacet
facet normal 0.7933533402912067 -1.7615982901091492e-16 0.6087614290087578
  outer loop
    vertex -151.70258008134698 47.500000000000036 297.2974199186531
    vertex -151.8614987039449 7.500000000000043 297.50452669983963
    vertex -151.702580081347 7.500000000000043 297.2974199186531
  endloop
endfacet
facet normal 0.6087614290087043 -1.3517219099783525e-16 0.7933533402912477
  outer loop
    vertex -151.70258008134698 47.500000000000036 297.2974199186531
    vertex -151.49547330016048 7.500000000000043 297.1385012960552
    vertex -151.49547330016046 47.500000000000036 297.1385012960552
  endloop
endfacet
facet normal 0.6087614290087043 -1.3517219099783525e-16 0.7933533402912477
  outer loop
    vertex -151.49547330016048 7.500000000000043 297.1385012960552
    vertex -151.70258008134698 47.500000000000036 297.2974199186531
    vertex -151.702580081347 7.500000000000043 297.2974199186531
  endloop
endfacet
facet normal 0.38268343236515584 -8.497279155087597e-17 0.9238795325112594
  outer loop
    vertex -151.49547330016046 47.500000000000036 297.1385012960552
    vertex -151.254292345263 7.500000000000043 297.03860087355054
    vertex -151.25429234526297 47.500000000000036 297.03860087355054
  endloop
endfacet
facet normal 0.38268343236515584 -8.497279155087597e-17 0.9238795325112594
  outer loop
    vertex -151.254292345263 7.500000000000043 297.03860087355054
    vertex -151.49547330016046 47.500000000000036 297.1385012960552
    vertex -151.49547330016048 7.500000000000043 297.1385012960552
  endloop
endfacet
facet normal 0.13052619221998774 -2.898263678385587e-17 0.9914448613738189
  outer loop
    vertex -151.25429234526297 47.500000000000036 297.03860087355054
    vertex -150.99547330016046 7.500000000000043 297.00452669983963
    vertex -150.99547330016043 47.500000000000036 297.00452669983963
  endloop
endfacet
facet normal 0.13052619221998774 -2.898263678385587e-17 0.9914448613738189
  outer loop
    vertex -150.99547330016046 7.500000000000043 297.00452669983963
    vertex -151.25429234526297 47.500000000000036 297.03860087355054
    vertex -151.254292345263 7.500000000000043 297.03860087355054
  endloop
endfacet
facet normal -0.13052619221998843 2.8982636783856026e-17 0.9914448613738187
  outer loop
    vertex -150.99547330016043 47.500000000000036 297.00452669983963
    vertex -150.73665425505797 7.500000000000043 297.03860087355054
    vertex -150.73665425505794 47.500000000000036 297.03860087355054
  endloop
endfacet
facet normal -0.13052619221998843 2.8982636783856026e-17 0.9914448613738187
  outer loop
    vertex -150.73665425505797 7.500000000000043 297.03860087355054
    vertex -150.99547330016043 47.500000000000036 297.00452669983963
    vertex -150.99547330016046 7.500000000000043 297.00452669983963
  endloop
endfacet
facet normal -0.38268343236515584 8.497279155087597e-17 0.9238795325112594
  outer loop
    vertex -150.73665425505794 47.500000000000036 297.03860087355054
    vertex -150.49547330016048 7.500000000000043 297.1385012960552
    vertex -150.49547330016046 47.500000000000036 297.1385012960552
  endloop
endfacet
facet normal -0.38268343236515584 8.497279155087597e-17 0.9238795325112594
  outer loop
    vertex -150.49547330016048 7.500000000000043 297.1385012960552
    vertex -150.73665425505794 47.500000000000036 297.03860087355054
    vertex -150.73665425505797 7.500000000000043 297.03860087355054
  endloop
endfacet
facet normal -0.6087614290087031 1.3517219099783498e-16 0.7933533402912488
  outer loop
    vertex -150.49547330016046 47.500000000000036 297.1385012960552
    vertex -150.2883665189739 7.500000000000043 297.2974199186531
    vertex -150.28836651897387 47.500000000000036 297.2974199186531
  endloop
endfacet
facet normal -0.6087614290087031 1.3517219099783498e-16 0.7933533402912488
  outer loop
    vertex -150.2883665189739 7.500000000000043 297.2974199186531
    vertex -150.49547330016046 47.500000000000036 297.1385012960552
    vertex -150.49547330016048 7.500000000000043 297.1385012960552
  endloop
endfacet
facet normal -0.793353340291208 1.761598290109152e-16 0.6087614290087562
  outer loop
    vertex -150.2883665189739 7.500000000000043 297.2974199186531
    vertex -150.129447896376 47.500000000000036 297.50452669983963
    vertex -150.28836651897387 47.500000000000036 297.2974199186531
  endloop
endfacet
facet normal -0.793353340291208 1.761598290109152e-16 0.6087614290087562
  outer loop
    vertex -150.129447896376 47.500000000000036 297.50452669983963
    vertex -150.2883665189739 7.500000000000043 297.2974199186531
    vertex -150.12944789637604 7.500000000000043 297.50452669983963
  endloop
endfacet
facet normal -0.923879532511291 2.0514246579479222e-16 0.38268343236507985
  outer loop
    vertex -150.12944789637604 7.500000000000043 297.50452669983963
    vertex -150.0295474738714 47.500000000000036 297.7457076547371
    vertex -150.129447896376 47.500000000000036 297.50452669983963
  endloop
endfacet
facet normal -0.923879532511291 2.0514246579479222e-16 0.38268343236507985
  outer loop
    vertex -150.0295474738714 47.500000000000036 297.7457076547371
    vertex -150.12944789637604 7.500000000000043 297.50452669983963
    vertex -150.02954747387142 7.500000000000043 297.7457076547371
  endloop
endfacet
facet normal -0.9914448613738113 2.2014498254870036e-16 0.13052619222004516
  outer loop
    vertex -150.02954747387142 7.500000000000043 297.7457076547371
    vertex -149.99547330016043 47.500000000000036 298.00452669983963
    vertex -150.0295474738714 47.500000000000036 297.7457076547371
  endloop
endfacet
facet normal -0.9914448613738113 2.2014498254870036e-16 0.13052619222004516
  outer loop
    vertex -149.99547330016043 47.500000000000036 298.00452669983963
    vertex -150.02954747387142 7.500000000000043 297.7457076547371
    vertex -149.99547330016046 7.500000000000043 298.00452669983963
  endloop
endfacet
facet normal -0.9914448613738113 2.2014498254870036e-16 -0.13052619222004516
  outer loop
    vertex -149.99547330016046 7.500000000000043 298.00452669983963
    vertex -150.0295474738714 47.500000000000036 298.26334574494217
    vertex -149.99547330016043 47.500000000000036 298.00452669983963
  endloop
endfacet
facet normal -0.9914448613738113 2.2014498254870036e-16 -0.13052619222004516
  outer loop
    vertex -150.0295474738714 47.500000000000036 298.26334574494217
    vertex -149.99547330016046 7.500000000000043 298.00452669983963
    vertex -150.02954747387142 7.500000000000043 298.26334574494217
  endloop
endfacet
facet normal -0.9238795325112918 2.0514246579479242e-16 -0.38268343236507757
  outer loop
    vertex -150.02954747387142 7.500000000000043 298.26334574494217
    vertex -150.129447896376 47.500000000000036 298.5045266998397
    vertex -150.0295474738714 47.500000000000036 298.26334574494217
  endloop
endfacet
facet normal -0.9238795325112918 2.0514246579479242e-16 -0.38268343236507757
  outer loop
    vertex -150.129447896376 47.500000000000036 298.5045266998397
    vertex -150.02954747387142 7.500000000000043 298.26334574494217
    vertex -150.12944789637604 7.500000000000043 298.5045266998397
  endloop
endfacet
facet normal -0.7933533402912067 1.7615982901091492e-16 -0.6087614290087578
  outer loop
    vertex -150.12944789637604 7.500000000000043 298.5045266998397
    vertex -150.28836651897387 47.500000000000036 298.7116334810262
    vertex -150.129447896376 47.500000000000036 298.5045266998397
  endloop
endfacet
facet normal -0.7933533402912067 1.7615982901091492e-16 -0.6087614290087578
  outer loop
    vertex -150.28836651897387 47.500000000000036 298.7116334810262
    vertex -150.12944789637604 7.500000000000043 298.5045266998397
    vertex -150.2883665189739 7.500000000000043 298.7116334810262
  endloop
endfacet
facet normal -0.6087614290087043 1.3517219099783525e-16 -0.7933533402912477
  outer loop
    vertex -150.49547330016048 7.500000000000043 298.87055210362405
    vertex -150.28836651897387 47.500000000000036 298.7116334810262
    vertex -150.2883665189739 7.500000000000043 298.7116334810262
  endloop
endfacet
facet normal -0.6087614290087043 1.3517219099783525e-16 -0.7933533402912477
  outer loop
    vertex -150.28836651897387 47.500000000000036 298.7116334810262
    vertex -150.49547330016048 7.500000000000043 298.87055210362405
    vertex -150.49547330016046 47.500000000000036 298.87055210362405
  endloop
endfacet
facet normal -0.38268343236515584 8.497279155087597e-17 -0.9238795325112594
  outer loop
    vertex -150.49547330016048 7.500000000000043 298.87055210362405
    vertex -150.7366542550579 47.500000000000036 298.9704525261287
    vertex -150.49547330016046 47.500000000000036 298.87055210362405
  endloop
endfacet
facet normal -0.38268343236515584 8.497279155087597e-17 -0.9238795325112594
  outer loop
    vertex -150.7366542550579 47.500000000000036 298.9704525261287
    vertex -150.49547330016048 7.500000000000043 298.87055210362405
    vertex -150.73665425505794 7.500000000000043 298.9704525261287
  endloop
endfacet
facet normal -0.1305261922199881 2.898263678385595e-17 -0.9914448613738189
  outer loop
    vertex -150.73665425505794 7.500000000000043 298.9704525261287
    vertex -150.99547330016043 47.500000000000036 299.00452669983963
    vertex -150.7366542550579 47.500000000000036 298.9704525261287
  endloop
endfacet
facet normal -0.1305261922199881 2.898263678385595e-17 -0.9914448613738189
  outer loop
    vertex -150.99547330016043 47.500000000000036 299.00452669983963
    vertex -150.73665425505794 7.500000000000043 298.9704525261287
    vertex -150.99547330016046 7.500000000000043 299.00452669983963
  endloop
endfacet
facet normal 0.1305261922199881 -2.898263678385595e-17 -0.9914448613738189
  outer loop
    vertex -151.254292345263 7.500000000000043 298.9704525261287
    vertex -150.99547330016043 47.500000000000036 299.00452669983963
    vertex -150.99547330016046 7.500000000000043 299.00452669983963
  endloop
endfacet
facet normal 0.1305261922199881 -2.898263678385595e-17 -0.9914448613738189
  outer loop
    vertex -150.99547330016043 47.500000000000036 299.00452669983963
    vertex -151.254292345263 7.500000000000043 298.9704525261287
    vertex -151.25429234526297 47.500000000000036 298.9704525261287
  endloop
endfacet
facet normal 0.3826834323651569 -8.49727915508762e-17 -0.9238795325112591
  outer loop
    vertex -151.49547330016048 7.500000000000043 298.87055210362405
    vertex -151.25429234526297 47.500000000000036 298.9704525261287
    vertex -151.254292345263 7.500000000000043 298.9704525261287
  endloop
endfacet
facet normal 0.3826834323651569 -8.49727915508762e-17 -0.9238795325112591
  outer loop
    vertex -151.25429234526297 47.500000000000036 298.9704525261287
    vertex -151.49547330016048 7.500000000000043 298.87055210362405
    vertex -151.49547330016046 47.500000000000036 298.87055210362405
  endloop
endfacet
facet normal 0.6087614290087043 -1.3517219099783525e-16 -0.7933533402912477
  outer loop
    vertex -151.49547330016048 7.500000000000043 298.87055210362405
    vertex -151.70258008134698 47.500000000000036 298.7116334810262
    vertex -151.49547330016046 47.500000000000036 298.87055210362405
  endloop
endfacet
facet normal 0.6087614290087043 -1.3517219099783525e-16 -0.7933533402912477
  outer loop
    vertex -151.70258008134698 47.500000000000036 298.7116334810262
    vertex -151.49547330016048 7.500000000000043 298.87055210362405
    vertex -151.702580081347 7.500000000000043 298.7116334810262
  endloop
endfacet
facet normal 0.7933533402912067 -1.7615982901091492e-16 -0.6087614290087578
  outer loop
    vertex -151.702580081347 7.500000000000043 298.7116334810262
    vertex -151.86149870394487 47.500000000000036 298.5045266998397
    vertex -151.70258008134698 47.500000000000036 298.7116334810262
  endloop
endfacet
facet normal 0.7933533402912067 -1.7615982901091492e-16 -0.6087614290087578
  outer loop
    vertex -151.86149870394487 47.500000000000036 298.5045266998397
    vertex -151.702580081347 7.500000000000043 298.7116334810262
    vertex -151.8614987039449 7.500000000000043 298.5045266998397
  endloop
endfacet
facet normal -2.220446049250313e-16 -1.0 0.0
  outer loop
    vertex -83.00000000000004 7.500000000000026 301.0
    vertex -153.0000000000001 7.500000000000043 296.0
    vertex -83.00000000000004 7.500000000000026 296.0
  endloop
endfacet
facet normal -2.220446049250313e-16 -1.0 0.0
  outer loop
    vertex -153.0000000000001 7.500000000000043 296.0
    vertex -83.00000000000004 7.500000000000026 301.0
    vertex -150.99547330016046 7.500000000000043 297.00452669983963
  endloop
endfacet
facet normal -2.220446049250313e-16 -1.0 0.0
  outer loop
    vertex -150.99547330016046 7.500000000000043 297.00452669983963
    vertex -83.00000000000004 7.500000000000026 301.0
    vertex -150.73665425505797 7.500000000000043 297.03860087355054
  endloop
endfacet
facet normal -2.220446049250313e-16 -1.0 0.0
  outer loop
    vertex -150.73665425505797 7.500000000000043 297.03860087355054
    vertex -83.00000000000004 7.500000000000026 301.0
    vertex -150.49547330016048 7.500000000000043 297.1385012960552
  endloop
endfacet
facet normal -2.220446049250313e-16 -1.0 0.0
  outer loop
    vertex -150.49547330016048 7.500000000000043 297.1385012960552
    vertex -83.00000000000004 7.500000000000026 301.0
    vertex -150.2883665189739 7.500000000000043 297.2974199186531
  endloop
endfacet
facet normal -2.220446049250313e-16 -1.0 0.0
  outer loop
    vertex -150.2883665189739 7.500000000000043 297.2974199186531
    vertex -83.00000000000004 7.500000000000026 301.0
    vertex -150.12944789637604 7.500000000000043 297.50452669983963
  endloop
endfacet
facet normal -2.220446049250313e-16 -1.0 0.0
  outer loop
    vertex -150.12944789637604 7.500000000000043 297.50452669983963
    vertex -83.00000000000004 7.500000000000026 301.0
    vertex -150.02954747387142 7.500000000000043 297.7457076547371
  endloop
endfacet
facet normal -2.220446049250313e-16 -1.0 0.0
  outer loop
    vertex -150.02954747387142 7.500000000000043 297.7457076547371
    vertex -83.00000000000004 7.500000000000026 301.0
    vertex -149.99547330016046 7.500000000000043 298.00452669983963
  endloop
endfacet
facet normal -2.220446049250313e-16 -1.0 0.0
  outer loop
    vertex -149.99547330016046 7.500000000000043 298.00452669983963
    vertex -83.00000000000004 7.500000000000026 301.0
    vertex -150.02954747387142 7.500000000000043 298.26334574494217
  endloop
endfacet
facet normal -2.220446049250313e-16 -1.0 0.0
  outer loop
    vertex -150.02954747387142 7.500000000000043 298.26334574494217
    vertex -83.00000000000004 7.500000000000026 301.0
    vertex -150.12944789637604 7.500000000000043 298.5045266998397
  endloop
endfacet
facet normal -2.220446049250313e-16 -1.0 0.0
  outer loop
    vertex -150.12944789637604 7.500000000000043 298.5045266998397
    vertex -83.00000000000004 7.500000000000026 301.0
    vertex -150.2883665189739 7.500000000000043 298.7116334810262
  endloop
endfacet
facet normal -2.220446049250313e-16 -1.0 0.0
  outer loop
    vertex -150.2883665189739 7.500000000000043 298.7116334810262
    vertex -83.00000000000004 7.500000000000026 301.0
    vertex -150.49547330016048 7.500000000000043 298.87055210362405
  endloop
endfacet
facet normal -2.220446049250313e-16 -1.0 0.0
  outer loop
    vertex -150.49547330016048 7.500000000000043 298.87055210362405
    vertex -83.00000000000004 7.500000000000026 301.0
    vertex -150.73665425505794 7.500000000000043 298.9704525261287
  endloop
endfacet
facet normal -2.220446049250313e-16 -1.0 0.0
  outer loop
    vertex -150.73665425505794 7.500000000000043 298.9704525261287
    vertex -83.00000000000004 7.500000000000026 301.0
    vertex -150.99547330016046 7.500000000000043 299.00452669983963
  endloop
endfacet
facet normal -2.220446049250313e-16 -1.0 0.0
  outer loop
    vertex -153.0000000000001 7.500000000000043 296.0
    vertex -151.96139912644955 7.500000000000043 297.7457076547371
    vertex -153.0000000000001 7.500000000000043 301.0
  endloop
endfacet
facet normal -2.220446049250313e-16 -1.0 0.0
  outer loop
    vertex -151.96139912644955 7.500000000000043 297.7457076547371
    vertex -153.0000000000001 7.500000000000043 296.0
    vertex -151.8614987039449 7.500000000000043 297.50452669983963
  endloop
endfacet
facet normal -2.220446049250313e-16 -1.0 0.0
  outer loop
    vertex -151.8614987039449 7.500000000000043 297.50452669983963
    vertex -153.0000000000001 7.500000000000043 296.0
    vertex -151.702580081347 7.500000000000043 297.2974199186531
  endloop
endfacet
facet normal -2.220446049250313e-16 -1.0 0.0
  outer loop
    vertex -151.702580081347 7.500000000000043 297.2974199186531
    vertex -153.0000000000001 7.500000000000043 296.0
    vertex -151.49547330016048 7.500000000000043 297.1385012960552
  endloop
endfacet
facet normal -2.220446049250313e-16 -1.0 0.0
  outer loop
    vertex -151.49547330016048 7.500000000000043 297.1385012960552
    vertex -153.0000000000001 7.500000000000043 296.0
    vertex -151.254292345263 7.500000000000043 297.03860087355054
  endloop
endfacet
facet normal -2.220446049250313e-16 -1.0 0.0
  outer loop
    vertex -151.254292345263 7.500000000000043 297.03860087355054
    vertex -153.0000000000001 7.500000000000043 296.0
    vertex -150.99547330016046 7.500000000000043 297.00452669983963
  endloop
endfacet
facet normal -2.220446049250313e-16 -1.0 0.0
  outer loop
    vertex -153.0000000000001 7.500000000000043 301.0
    vertex -151.96139912644955 7.500000000000043 297.7457076547371
    vertex -151.99547330016046 7.500000000000043 298.00452669983963
  endloop
endfacet
facet normal -2.220446049250313e-16 -1.0 0.0
  outer loop
    vertex -153.0000000000001 7.500000000000043 301.0
    vertex -151.99547330016046 7.500000000000043 298.00452669983963
    vertex -151.96139912644955 7.500000000000043 298.26334574494217
  endloop
endfacet
facet normal -2.220446049250313e-16 -1.0 0.0
  outer loop
    vertex -153.0000000000001 7.500000000000043 301.0
    vertex -151.96139912644955 7.500000000000043 298.26334574494217
    vertex -151.8614987039449 7.500000000000043 298.5045266998397
  endloop
endfacet
facet normal -2.220446049250313e-16 -1.0 0.0
  outer loop
    vertex -153.0000000000001 7.500000000000043 301.0
    vertex -151.8614987039449 7.500000000000043 298.5045266998397
    vertex -151.702580081347 7.500000000000043 298.7116334810262
  endloop
endfacet
facet normal -2.220446049250313e-16 -1.0 0.0
  outer loop
    vertex -153.0000000000001 7.500000000000043 301.0
    vertex -151.702580081347 7.500000000000043 298.7116334810262
    vertex -151.49547330016048 7.500000000000043 298.87055210362405
  endloop
endfacet
facet normal -2.220446049250313e-16 -1.0 0.0
  outer loop
    vertex -153.0000000000001 7.500000000000043 301.0
    vertex -151.49547330016048 7.500000000000043 298.87055210362405
    vertex -151.254292345263 7.500000000000043 298.9704525261287
  endloop
endfacet
facet normal -2.220446049250313e-16 -1.0 0.0
  outer loop
    vertex -153.0000000000001 7.500000000000043 301.0
    vertex -151.254292345263 7.500000000000043 298.9704525261287
    vertex -150.99547330016046 7.500000000000043 299.00452669983963
  endloop
endfacet
facet normal -2.220446049250313e-16 -1.0 0.0
  outer loop
    vertex -153.0000000000001 7.500000000000043 301.0
    vertex -150.99547330016046 7.500000000000043 299.00452669983963
    vertex -83.00000000000004 7.500000000000026 301.0
  endloop
endfacet
facet normal -0.0 0.0 -1.0
  outer loop
    vertex -153.0000000000001 7.500000000000043 296.0
    vertex -83.00000000000003 47.50000000000002 296.0
    vertex -83.00000000000004 7.500000000000026 296.0
  endloop
endfacet
facet normal -0.0 0.0 -1.0
  outer loop
    vertex -83.00000000000003 47.50000000000002 296.0
    vertex -153.0000000000001 7.500000000000043 296.0
    vertex -153.00000000000009 47.500000000000036 296.0
  endloop
endfacet
facet normal 1.0 0.0 0.0
  outer loop
    vertex -83.00000000000003 47.50000000000002 301.0
    vertex -83.00000000000003 45.866025403784455 299.00000000000006
    vertex -83.00000000000003 47.50000000000002 296.0
  endloop
endfacet
facet normal 1.0 0.0 0.0
  outer loop
    vertex -83.00000000000003 45.866025403784455 299.00000000000006
    vertex -83.00000000000003 47.50000000000002 301.0
    vertex -83.00000000000003 45.70710678118656 299.20710678118655
  endloop
endfacet
facet normal 1.0 0.0 0.0
  outer loop
    vertex -83.00000000000003 45.70710678118656 299.20710678118655
    vertex -83.00000000000003 47.50000000000002 301.0
    vertex -83.00000000000003 45.50000000000002 299.3660254037845
  endloop
endfacet
facet normal 1.0 0.0 0.0
  outer loop
    vertex -83.00000000000003 45.50000000000002 299.3660254037845
    vertex -83.00000000000003 47.50000000000002 301.0
    vertex -83.00000000000003 45.258819045102534 299.4659258262891
  endloop
endfacet
facet normal 1.0 0.0 0.0
  outer loop
    vertex -83.00000000000003 45.258819045102534 299.4659258262891
    vertex -83.00000000000003 47.50000000000002 301.0
    vertex -83.00000000000003 45.00000000000002 299.5
  endloop
endfacet
facet normal 1.0 0.0 0.0
  outer loop
    vertex -83.00000000000003 45.00000000000002 299.5
    vertex -83.00000000000003 47.50000000000002 301.0
    vertex -83.00000000000004 7.500000000000026 301.0
  endloop
endfacet
facet normal 1.0 0.0 0.0
  outer loop
    vertex -83.00000000000003 47.50000000000002 296.0
    vertex -83.00000000000003 45.866025403784455 299.00000000000006
    vertex -83.00000000000003 45.96592582628909 298.75881904510254
  endloop
endfacet
facet normal 1.0 0.0 0.0
  outer loop
    vertex -83.00000000000003 47.50000000000002 296.0
    vertex -83.00000000000003 45.96592582628909 298.75881904510254
    vertex -83.00000000000003 46.000000000000014 298.5
  endloop
endfacet
facet normal 1.0 0.0 0.0
  outer loop
    vertex -83.00000000000003 45.00000000000002 299.5
    vertex -83.00000000000004 7.500000000000026 301.0
    vertex -83.00000000000003 44.741180954897494 299.4659258262891
  endloop
endfacet
facet normal 1.0 0.0 0.0
  outer loop
    vertex -83.00000000000003 44.741180954897494 299.4659258262891
    vertex -83.00000000000004 7.500000000000026 301.0
    vertex -83.00000000000003 44.50000000000002 299.3660254037845
  endloop
endfacet
facet normal 1.0 0.0 0.0
  outer loop
    vertex -83.00000000000003 44.50000000000002 299.3660254037845
    vertex -83.00000000000004 7.500000000000026 301.0
    vertex -83.00000000000003 44.29289321881347 299.20710678118655
  endloop
endfacet
facet normal 1.0 0.0 0.0
  outer loop
    vertex -83.00000000000003 44.29289321881347 299.20710678118655
    vertex -83.00000000000004 7.500000000000026 301.0
    vertex -83.00000000000003 44.13397459621558 299.0
  endloop
endfacet
facet normal 1.0 0.0 0.0
  outer loop
    vertex -83.00000000000003 44.13397459621558 299.0
    vertex -83.00000000000004 7.500000000000026 301.0
    vertex -83.00000000000003 44.034074173710955 298.75881904510254
  endloop
endfacet
facet normal 1.0 0.0 0.0
  outer loop
    vertex -83.00000000000003 44.034074173710955 298.75881904510254
    vertex -83.00000000000004 7.500000000000026 301.0
    vertex -83.00000000000003 44.00000000000002 298.5
  endloop
endfacet
facet normal 1.0 0.0 0.0
  outer loop
    vertex -83.00000000000003 44.00000000000002 298.5
    vertex -83.00000000000004 7.500000000000026 301.0
    vertex -83.00000000000004 10.50000000000002 299.3660254037844
  endloop
endfacet
facet normal 1.0 0.0 0.0
  outer loop
    vertex -83.00000000000003 44.00000000000002 298.5
    vertex -83.00000000000004 10.50000000000002 299.3660254037844
    vertex -83.00000000000004 10.707106781186571 299.2071067811865
  endloop
endfacet
facet normal 1.0 0.0 0.0
  outer loop
    vertex -83.00000000000003 44.00000000000002 298.5
    vertex -83.00000000000004 10.707106781186571 299.2071067811865
    vertex -83.00000000000004 10.866025403784455 299.0
  endloop
endfacet
facet normal 1.0 0.0 0.0
  outer loop
    vertex -83.00000000000003 44.00000000000002 298.5
    vertex -83.00000000000004 10.866025403784455 299.0
    vertex -83.00000000000004 10.965925826289093 298.7588190451025
  endloop
endfacet
facet normal 1.0 0.0 0.0
  outer loop
    vertex -83.00000000000003 44.00000000000002 298.5
    vertex -83.00000000000004 10.965925826289093 298.7588190451025
    vertex -83.00000000000004 11.00000000000002 298.5
  endloop
endfacet
facet normal 1.0 0.0 0.0
  outer loop
    vertex -83.00000000000004 10.50000000000002 299.3660254037844
    vertex -83.00000000000004 7.500000000000026 301.0
    vertex -83.00000000000004 10.258819045102545 299.46592582628904
  endloop
endfacet
facet normal 1.0 0.0 0.0
  outer loop
    vertex -83.00000000000004 10.258819045102545 299.46592582628904
    vertex -83.00000000000004 7.500000000000026 301.0
    vertex -83.00000000000004 10.000000000000021 299.49999999999994
  endloop
endfacet
facet normal 1.0 0.0 0.0
  outer loop
    vertex -83.00000000000004 10.000000000000021 299.49999999999994
    vertex -83.00000000000004 7.500000000000026 301.0
    vertex -83.00000000000004 9.741180954897498 299.46592582628904
  endloop
endfacet
facet normal 1.0 0.0 0.0
  outer loop
    vertex -83.00000000000004 9.741180954897498 299.46592582628904
    vertex -83.00000000000004 7.500000000000026 301.0
    vertex -83.00000000000004 9.500000000000021 299.3660254037844
  endloop
endfacet
facet normal 1.0 0.0 0.0
  outer loop
    vertex -83.00000000000004 9.500000000000021 299.3660254037844
    vertex -83.00000000000004 7.500000000000026 301.0
    vertex -83.00000000000004 9.292893218813472 299.2071067811865
  endloop
endfacet
facet normal 1.0 0.0 0.0
  outer loop
    vertex -83.00000000000004 9.292893218813472 299.2071067811865
    vertex -83.00000000000004 7.500000000000026 301.0
    vertex -83.00000000000004 9.133974596215587 299.0
  endloop
endfacet
facet normal 1.0 0.0 0.0
  outer loop
    vertex -83.00000000000004 9.133974596215587 299.0
    vertex -83.00000000000004 7.500000000000026 301.0
    vertex -83.00000000000004 9.034074173710948 298.7588190451025
  endloop
endfacet
facet normal 1.0 0.0 0.0
  outer loop
    vertex -83.00000000000004 9.034074173710948 298.7588190451025
    vertex -83.00000000000004 7.500000000000026 301.0
    vertex -83.00000000000004 9.000000000000023 298.5
  endloop
endfacet
facet normal 1.0 0.0 0.0
  outer loop
    vertex -83.00000000000003 47.50000000000002 296.0
    vertex -83.00000000000003 45.00000000000002 297.5
    vertex -83.00000000000004 7.500000000000026 296.0
  endloop
endfacet
facet normal 1.0 0.0 0.0
  outer loop
    vertex -83.00000000000003 45.00000000000002 297.5
    vertex -83.00000000000003 47.50000000000002 296.0
    vertex -83.00000000000003 45.25881904510254 297.5340741737109
  endloop
endfacet
facet normal 1.0 0.0 0.0
  outer loop
    vertex -83.00000000000003 45.25881904510254 297.5340741737109
    vertex -83.00000000000003 47.50000000000002 296.0
    vertex -83.00000000000003 45.50000000000002 297.6339745962156
  endloop
endfacet
facet normal 1.0 0.0 0.0
  outer loop
    vertex -83.00000000000003 45.50000000000002 297.6339745962156
    vertex -83.00000000000003 47.50000000000002 296.0
    vertex -83.00000000000003 45.70710678118656 297.79289321881345
  endloop
endfacet
facet normal 1.0 0.0 0.0
  outer loop
    vertex -83.00000000000003 45.70710678118656 297.79289321881345
    vertex -83.00000000000003 47.50000000000002 296.0
    vertex -83.00000000000003 45.866025403784455 298.00000000000006
  endloop
endfacet
facet normal 1.0 0.0 0.0
  outer loop
    vertex -83.00000000000003 45.866025403784455 298.00000000000006
    vertex -83.00000000000003 47.50000000000002 296.0
    vertex -83.00000000000003 45.96592582628909 298.24118095489746
  endloop
endfacet
facet normal 1.0 0.0 0.0
  outer loop
    vertex -83.00000000000003 45.96592582628909 298.24118095489746
    vertex -83.00000000000003 47.50000000000002 296.0
    vertex -83.00000000000003 46.000000000000014 298.5
  endloop
endfacet
facet normal 1.0 0.0 0.0
  outer loop
    vertex -83.00000000000004 7.500000000000026 296.0
    vertex -83.00000000000003 45.00000000000002 297.5
    vertex -83.00000000000003 44.741180954897494 297.5340741737109
  endloop
endfacet
facet normal 1.0 0.0 0.0
  outer loop
    vertex -83.00000000000004 7.500000000000026 296.0
    vertex -83.00000000000003 44.741180954897494 297.5340741737109
    vertex -83.00000000000003 44.50000000000002 297.6339745962156
  endloop
endfacet
facet normal 1.0 0.0 0.0
  outer loop
    vertex -83.00000000000004 7.500000000000026 296.0
    vertex -83.00000000000003 44.50000000000002 297.6339745962156
    vertex -83.00000000000003 44.292893218813475 297.79289321881345
  endloop
endfacet
facet normal 1.0 0.0 0.0
  outer loop
    vertex -83.00000000000004 7.500000000000026 296.0
    vertex -83.00000000000003 44.292893218813475 297.79289321881345
    vertex -83.00000000000003 44.13397459621558 298.0
  endloop
endfacet
facet normal 1.0 0.0 0.0
  outer loop
    vertex -83.00000000000004 7.500000000000026 296.0
    vertex -83.00000000000003 44.13397459621558 298.0
    vertex -83.00000000000003 44.034074173710955 298.24118095489746
  endloop
endfacet
facet normal 1.0 0.0 0.0
  outer loop
    vertex -83.00000000000004 7.500000000000026 296.0
    vertex -83.00000000000003 44.034074173710955 298.24118095489746
    vertex -83.00000000000003 44.00000000000002 298.5
  endloop
endfacet
facet normal 1.0 0.0 0.0
  outer loop
    vertex -83.00000000000004 7.500000000000026 296.0
    vertex -83.00000000000003 44.00000000000002 298.5
    vertex -83.00000000000004 10.50000000000002 297.6339745962155
  endloop
endfacet
facet normal 1.0 0.0 0.0
  outer loop
    vertex -83.00000000000004 10.50000000000002 297.6339745962155
    vertex -83.00000000000003 44.00000000000002 298.5
    vertex -83.00000000000004 10.707106781186571 297.79289321881345
  endloop
endfacet
facet normal 1.0 0.0 0.0
  outer loop
    vertex -83.00000000000004 10.707106781186571 297.79289321881345
    vertex -83.00000000000003 44.00000000000002 298.5
    vertex -83.00000000000004 10.866025403784455 297.99999999999994
  endloop
endfacet
facet normal 1.0 0.0 0.0
  outer loop
    vertex -83.00000000000004 10.866025403784455 297.99999999999994
    vertex -83.00000000000003 44.00000000000002 298.5
    vertex -83.00000000000004 10.965925826289093 298.24118095489746
  endloop
endfacet
facet normal 1.0 0.0 0.0
  outer loop
    vertex -83.00000000000004 10.965925826289093 298.24118095489746
    vertex -83.00000000000003 44.00000000000002 298.5
    vertex -83.00000000000004 11.00000000000002 298.5
  endloop
endfacet
facet normal 1.0 0.0 0.0
  outer loop
    vertex -83.00000000000004 7.500000000000026 296.0
    vertex -83.00000000000004 10.50000000000002 297.6339745962155
    vertex -83.00000000000004 10.258819045102545 297.5340741737109
  endloop
endfacet
facet normal 1.0 0.0 0.0
  outer loop
    vertex -83.00000000000004 7.500000000000026 296.0
    vertex -83.00000000000004 10.258819045102545 297.5340741737109
    vertex -83.00000000000004 10.000000000000021 297.5
  endloop
endfacet
facet normal 1.0 0.0 0.0
  outer loop
    vertex -83.00000000000004 7.500000000000026 296.0
    vertex -83.00000000000004 10.000000000000021 297.5
    vertex -83.00000000000004 9.741180954897498 297.5340741737109
  endloop
endfacet
facet normal 1.0 0.0 0.0
  outer loop
    vertex -83.00000000000004 7.500000000000026 296.0
    vertex -83.00000000000004 9.741180954897498 297.5340741737109
    vertex -83.00000000000004 9.500000000000021 297.6339745962155
  endloop
endfacet
facet normal 1.0 0.0 0.0
  outer loop
    vertex -83.00000000000004 7.500000000000026 296.0
    vertex -83.00000000000004 9.500000000000021 297.6339745962155
    vertex -83.00000000000004 9.292893218813472 297.79289321881345
  endloop
endfacet
facet normal 1.0 0.0 0.0
  outer loop
    vertex -83.00000000000004 7.500000000000026 296.0
    vertex -83.00000000000004 9.292893218813472 297.79289321881345
    vertex -83.00000000000004 9.133974596215587 297.99999999999994
  endloop
endfacet
facet normal 1.0 0.0 0.0
  outer loop
    vertex -83.00000000000004 7.500000000000026 296.0
    vertex -83.00000000000004 9.133974596215587 297.99999999999994
    vertex -83.00000000000004 9.034074173710948 298.24118095489746
  endloop
endfacet
facet normal 1.0 0.0 0.0
  outer loop
    vertex -83.00000000000004 7.500000000000026 296.0
    vertex -83.00000000000004 9.034074173710948 298.24118095489746
    vertex -83.00000000000004 9.000000000000023 298.5
  endloop
endfacet
facet normal 1.0 0.0 0.0
  outer loop
    vertex -83.00000000000004 7.500000000000026 296.0
    vertex -83.00000000000004 9.000000000000023 298.5
    vertex -83.00000000000004 7.500000000000026 301.0
  endloop
endfacet
facet normal -1.0 2.8199664825478977e-16 0.0
  outer loop
    vertex -153.0000000000001 7.500000000000043 296.0
    vertex -153.00000000000009 47.500000000000036 301.0
    vertex -153.00000000000009 47.500000000000036 296.0
  endloop
endfacet
facet normal -1.0 2.8199664825478977e-16 0.0
  outer loop
    vertex -153.00000000000009 47.500000000000036 301.0
    vertex -153.0000000000001 7.500000000000043 296.0
    vertex -153.0000000000001 7.500000000000043 301.0
  endloop
endfacet
facet normal 0.0 0.0 1.0
  outer loop
    vertex -153.00000000000009 47.500000000000036 301.0
    vertex -83.00000000000004 7.500000000000026 301.0
    vertex -83.00000000000003 47.50000000000002 301.0
  endloop
endfacet
facet normal 0.0 0.0 1.0
  outer loop
    vertex -83.00000000000004 7.500000000000026 301.0
    vertex -153.00000000000009 47.500000000000036 301.0
    vertex -153.0000000000001 7.500000000000043 301.0
  endloop
endfacet
facet normal 1.0 0.0 0.0
  outer loop
    vertex -133.00000000000003 10.965925826289093 298.7588190451025
    vertex -133.00000000000003 10.965925826289093 298.24118095489746
    vertex -133.00000000000003 11.00000000000002 298.5
  endloop
endfacet
facet normal 1.0 0.0 0.0
  outer loop
    vertex -133.00000000000003 10.965925826289093 298.24118095489746
    vertex -133.00000000000003 10.965925826289093 298.7588190451025
    vertex -133.00000000000003 10.866025403784455 299.0
  endloop
endfacet
facet normal 1.0 0.0 0.0
  outer loop
    vertex -133.00000000000003 10.965925826289093 298.24118095489746
    vertex -133.00000000000003 10.866025403784455 299.0
    vertex -133.00000000000003 10.866025403784455 297.99999999999994
  endloop
endfacet
facet normal 1.0 0.0 0.0
  outer loop
    vertex -133.00000000000003 10.866025403784455 297.99999999999994
    vertex -133.00000000000003 10.866025403784455 299.0
    vertex -133.00000000000003 10.707106781186571 299.2071067811865
  endloop
endfacet
facet normal 1.0 0.0 0.0
  outer loop
    vertex -133.00000000000003 10.866025403784455 297.99999999999994
    vertex -133.00000000000003 10.707106781186571 299.2071067811865
    vertex -133.00000000000003 10.707106781186571 297.79289321881345
  endloop
endfacet
facet normal 1.0 0.0 0.0
  outer loop
    vertex -133.00000000000003 10.707106781186571 297.79289321881345
    vertex -133.00000000000003 10.707106781186571 299.2071067811865
    vertex -133.00000000000003 10.50000000000002 299.3660254037844
  endloop
endfacet
facet normal 1.0 0.0 0.0
  outer loop
    vertex -133.00000000000003 10.707106781186571 297.79289321881345
    vertex -133.00000000000003 10.50000000000002 299.3660254037844
    vertex -133.00000000000003 10.50000000000002 297.6339745962155
  endloop
endfacet
facet normal 1.0 0.0 0.0
  outer loop
    vertex -133.00000000000003 10.50000000000002 297.6339745962155
    vertex -133.00000000000003 10.50000000000002 299.3660254037844
    vertex -133.00000000000003 10.258819045102545 299.46592582628904
  endloop
endfacet
facet normal 1.0 0.0 0.0
  outer loop
    vertex -133.00000000000003 10.50000000000002 297.6339745962155
    vertex -133.00000000000003 10.258819045102545 299.46592582628904
    vertex -133.00000000000003 10.258819045102545 297.5340741737109
  endloop
endfacet
facet normal 1.0 0.0 0.0
  outer loop
    vertex -133.00000000000003 10.258819045102545 297.5340741737109
    vertex -133.00000000000003 10.258819045102545 299.46592582628904
    vertex -133.00000000000003 10.000000000000021 299.49999999999994
  endloop
endfacet
facet normal 1.0 0.0 0.0
  outer loop
    vertex -133.00000000000003 10.258819045102545 297.5340741737109
    vertex -133.00000000000003 10.000000000000021 299.49999999999994
    vertex -133.00000000000003 10.000000000000021 297.5
  endloop
endfacet
facet normal 1.0 0.0 0.0
  outer loop
    vertex -133.00000000000003 10.000000000000021 297.5
    vertex -133.00000000000003 10.000000000000021 299.49999999999994
    vertex -133.00000000000003 9.741180954897498 299.46592582628904
  endloop
endfacet
facet normal 1.0 0.0 0.0
  outer loop
    vertex -133.00000000000003 10.000000000000021 297.5
    vertex -133.00000000000003 9.741180954897498 299.46592582628904
    vertex -133.00000000000003 9.741180954897498 297.5340741737109
  endloop
endfacet
facet normal 1.0 0.0 0.0
  outer loop
    vertex -133.00000000000003 9.741180954897498 297.5340741737109
    vertex -133.00000000000003 9.741180954897498 299.46592582628904
    vertex -133.00000000000003 9.500000000000021 299.3660254037844
  endloop
endfacet
facet normal 1.0 0.0 0.0
  outer loop
    vertex -133.00000000000003 9.741180954897498 297.5340741737109
    vertex -133.00000000000003 9.500000000000021 299.3660254037844
    vertex -133.00000000000003 9.500000000000021 297.6339745962155
  endloop
endfacet
facet normal 1.0 0.0 0.0
  outer loop
    vertex -133.00000000000003 9.500000000000021 297.6339745962155
    vertex -133.00000000000003 9.500000000000021 299.3660254037844
    vertex -133.00000000000009 9.292893218813472 299.2071067811865
  endloop
endfacet
facet normal 1.0 0.0 0.0
  outer loop
    vertex -133.00000000000003 9.500000000000021 297.6339745962155
    vertex -133.00000000000009 9.292893218813472 299.2071067811865
    vertex -133.00000000000009 9.292893218813472 297.79289321881345
  endloop
endfacet
facet normal 1.0 0.0 0.0
  outer loop
    vertex -133.00000000000009 9.292893218813472 297.79289321881345
    vertex -133.00000000000009 9.292893218813472 299.2071067811865
    vertex -133.00000000000009 9.133974596215587 299.0
  endloop
endfacet
facet normal 1.0 0.0 0.0
  outer loop
    vertex -133.00000000000009 9.292893218813472 297.79289321881345
    vertex -133.00000000000009 9.133974596215587 299.0
    vertex -133.00000000000009 9.133974596215587 297.99999999999994
  endloop
endfacet
facet normal 1.0 0.0 0.0
  outer loop
    vertex -133.00000000000009 9.133974596215587 297.99999999999994
    vertex -133.00000000000009 9.133974596215587 299.0
    vertex -133.00000000000009 9.034074173710948 298.7588190451025
  endloop
endfacet
facet normal 1.0 0.0 0.0
  outer loop
    vertex -133.00000000000009 9.133974596215587 297.99999999999994
    vertex -133.00000000000009 9.034074173710948 298.7588190451025
    vertex -133.00000000000009 9.034074173710948 298.24118095489746
  endloop
endfacet
facet normal 1.0 0.0 0.0
  outer loop
    vertex -133.00000000000009 9.034074173710948 298.24118095489746
    vertex -133.00000000000009 9.034074173710948 298.7588190451025
    vertex -133.00000000000009 9.000000000000023 298.5
  endloop
endfacet
facet normal 0.0 -0.9914448613738113 0.13052619222004516
  outer loop
    vertex -83.00000000000004 11.00000000000002 298.5
    vertex -133.00000000000003 10.965925826289093 298.24118095489746
    vertex -83.00000000000004 10.965925826289093 298.24118095489746
  endloop
endfacet
facet normal 0.0 -0.9914448613738113 0.13052619222004516
  outer loop
    vertex -133.00000000000003 10.965925826289093 298.24118095489746
    vertex -83.00000000000004 11.00000000000002 298.5
    vertex -133.00000000000003 11.00000000000002 298.5
  endloop
endfacet
facet normal 0.0 -0.9914448613738113 -0.13052619222004516
  outer loop
    vertex -83.00000000000004 10.965925826289093 298.7588190451025
    vertex -133.00000000000003 11.00000000000002 298.5
    vertex -83.00000000000004 11.00000000000002 298.5
  endloop
endfacet
facet normal 0.0 -0.9914448613738113 -0.13052619222004516
  outer loop
    vertex -133.00000000000003 11.00000000000002 298.5
    vertex -83.00000000000004 10.965925826289093 298.7588190451025
    vertex -133.00000000000003 10.965925826289093 298.7588190451025
  endloop
endfacet
facet normal 0.0 -0.923879532511291 -0.38268343236507985
  outer loop
    vertex -83.00000000000004 10.866025403784455 299.0
    vertex -133.00000000000003 10.965925826289093 298.7588190451025
    vertex -83.00000000000004 10.965925826289093 298.7588190451025
  endloop
endfacet
facet normal 0.0 -0.923879532511291 -0.38268343236507985
  outer loop
    vertex -133.00000000000003 10.965925826289093 298.7588190451025
    vertex -83.00000000000004 10.866025403784455 299.0
    vertex -133.00000000000003 10.866025403784455 299.0
  endloop
endfacet
facet normal 0.0 -0.7933533402912067 -0.6087614290087578
  outer loop
    vertex -83.00000000000004 10.707106781186571 299.2071067811865
    vertex -133.00000000000003 10.866025403784455 299.0
    vertex -83.00000000000004 10.866025403784455 299.0
  endloop
endfacet
facet normal 0.0 -0.7933533402912067 -0.6087614290087578
  outer loop
    vertex -133.00000000000003 10.866025403784455 299.0
    vertex -83.00000000000004 10.707106781186571 299.2071067811865
    vertex -133.00000000000003 10.707106781186571 299.2071067811865
  endloop
endfacet
facet normal 0.0 -0.6087614290087043 -0.7933533402912477
  outer loop
    vertex -133.00000000000003 10.50000000000002 299.3660254037844
    vertex -83.00000000000004 10.707106781186571 299.2071067811865
    vertex -83.00000000000004 10.50000000000002 299.3660254037844
  endloop
endfacet
facet normal 0.0 -0.6087614290087043 -0.7933533402912477
  outer loop
    vertex -83.00000000000004 10.707106781186571 299.2071067811865
    vertex -133.00000000000003 10.50000000000002 299.3660254037844
    vertex -133.00000000000003 10.707106781186571 299.2071067811865
  endloop
endfacet
facet normal 0.0 -0.38268343236515584 -0.9238795325112594
  outer loop
    vertex -133.00000000000003 10.258819045102545 299.46592582628904
    vertex -83.00000000000004 10.50000000000002 299.3660254037844
    vertex -83.00000000000004 10.258819045102545 299.46592582628904
  endloop
endfacet
facet normal 0.0 -0.38268343236515584 -0.9238795325112594
  outer loop
    vertex -83.00000000000004 10.50000000000002 299.3660254037844
    vertex -133.00000000000003 10.258819045102545 299.46592582628904
    vertex -133.00000000000003 10.50000000000002 299.3660254037844
  endloop
endfacet
facet normal 0.0 -0.13052619221998843 -0.9914448613738187
  outer loop
    vertex -133.00000000000003 10.000000000000021 299.49999999999994
    vertex -83.00000000000004 10.258819045102545 299.46592582628904
    vertex -83.00000000000004 10.000000000000021 299.49999999999994
  endloop
endfacet
facet normal 0.0 -0.13052619221998843 -0.9914448613738187
  outer loop
    vertex -83.00000000000004 10.258819045102545 299.46592582628904
    vertex -133.00000000000003 10.000000000000021 299.49999999999994
    vertex -133.00000000000003 10.258819045102545 299.46592582628904
  endloop
endfacet
facet normal 0.0 0.13052619221998774 -0.9914448613738189
  outer loop
    vertex -133.00000000000003 9.741180954897498 299.46592582628904
    vertex -83.00000000000004 10.000000000000021 299.49999999999994
    vertex -83.00000000000004 9.741180954897498 299.46592582628904
  endloop
endfacet
facet normal 0.0 0.13052619221998774 -0.9914448613738189
  outer loop
    vertex -83.00000000000004 10.000000000000021 299.49999999999994
    vertex -133.00000000000003 9.741180954897498 299.46592582628904
    vertex -133.00000000000003 10.000000000000021 299.49999999999994
  endloop
endfacet
facet normal 0.0 0.38268343236515584 -0.9238795325112594
  outer loop
    vertex -133.00000000000003 9.500000000000021 299.3660254037844
    vertex -83.00000000000004 9.741180954897498 299.46592582628904
    vertex -83.00000000000004 9.500000000000021 299.3660254037844
  endloop
endfacet
facet normal 0.0 0.38268343236515584 -0.9238795325112594
  outer loop
    vertex -83.00000000000004 9.741180954897498 299.46592582628904
    vertex -133.00000000000003 9.500000000000021 299.3660254037844
    vertex -133.00000000000003 9.741180954897498 299.46592582628904
  endloop
endfacet
facet normal 0.0 0.6087614290087043 -0.7933533402912477
  outer loop
    vertex -133.00000000000009 9.292893218813472 299.2071067811865
    vertex -83.00000000000004 9.500000000000021 299.3660254037844
    vertex -83.00000000000004 9.292893218813472 299.2071067811865
  endloop
endfacet
facet normal 0.0 0.6087614290087043 -0.7933533402912477
  outer loop
    vertex -83.00000000000004 9.500000000000021 299.3660254037844
    vertex -133.00000000000009 9.292893218813472 299.2071067811865
    vertex -133.00000000000003 9.500000000000021 299.3660254037844
  endloop
endfacet
facet normal 0.0 0.7933533402912067 -0.6087614290087578
  outer loop
    vertex -133.00000000000009 9.292893218813472 299.2071067811865
    vertex -83.00000000000004 9.133974596215587 299.0
    vertex -133.00000000000009 9.133974596215587 299.0
  endloop
endfacet
facet normal 0.0 0.7933533402912067 -0.6087614290087578
  outer loop
    vertex -83.00000000000004 9.133974596215587 299.0
    vertex -133.00000000000009 9.292893218813472 299.2071067811865
    vertex -83.00000000000004 9.292893218813472 299.2071067811865
  endloop
endfacet
facet normal 0.0 0.9238795325112928 -0.38268343236507524
  outer loop
    vertex -133.00000000000009 9.133974596215587 299.0
    vertex -83.00000000000004 9.034074173710948 298.7588190451025
    vertex -133.00000000000009 9.034074173710948 298.7588190451025
  endloop
endfacet
facet normal 0.0 0.9238795325112928 -0.38268343236507524
  outer loop
    vertex -83.00000000000004 9.034074173710948 298.7588190451025
    vertex -133.00000000000009 9.133974596215587 299.0
    vertex -83.00000000000004 9.133974596215587 299.0
  endloop
endfacet
facet normal 0.0 0.9914448613738113 -0.13052619222004516
  outer loop
    vertex -133.00000000000009 9.034074173710948 298.7588190451025
    vertex -83.00000000000004 9.000000000000023 298.5
    vertex -133.00000000000009 9.000000000000023 298.5
  endloop
endfacet
facet normal 0.0 0.9914448613738113 -0.13052619222004516
  outer loop
    vertex -83.00000000000004 9.000000000000023 298.5
    vertex -133.00000000000009 9.034074173710948 298.7588190451025
    vertex -83.00000000000004 9.034074173710948 298.7588190451025
  endloop
endfacet
facet normal 0.0 0.9914448613738113 0.13052619222004516
  outer loop
    vertex -133.00000000000009 9.000000000000023 298.5
    vertex -83.00000000000004 9.034074173710948 298.24118095489746
    vertex -133.00000000000009 9.034074173710948 298.24118095489746
  endloop
endfacet
facet normal 0.0 0.9914448613738113 0.13052619222004516
  outer loop
    vertex -83.00000000000004 9.034074173710948 298.24118095489746
    vertex -133.00000000000009 9.000000000000023 298.5
    vertex -83.00000000000004 9.000000000000023 298.5
  endloop
endfacet
facet normal 0.0 0.923879532511291 0.38268343236507985
  outer loop
    vertex -133.00000000000009 9.034074173710948 298.24118095489746
    vertex -83.00000000000004 9.133974596215587 297.99999999999994
    vertex -133.00000000000009 9.133974596215587 297.99999999999994
  endloop
endfacet
facet normal 0.0 0.923879532511291 0.38268343236507985
  outer loop
    vertex -83.00000000000004 9.133974596215587 297.99999999999994
    vertex -133.00000000000009 9.034074173710948 298.24118095489746
    vertex -83.00000000000004 9.034074173710948 298.24118095489746
  endloop
endfacet
facet normal 0.0 0.7933533402912067 0.6087614290087578
  outer loop
    vertex -133.00000000000009 9.133974596215587 297.99999999999994
    vertex -83.00000000000004 9.292893218813472 297.79289321881345
    vertex -133.00000000000009 9.292893218813472 297.79289321881345
  endloop
endfacet
facet normal 0.0 0.7933533402912067 0.6087614290087578
  outer loop
    vertex -83.00000000000004 9.292893218813472 297.79289321881345
    vertex -133.00000000000009 9.133974596215587 297.99999999999994
    vertex -83.00000000000004 9.133974596215587 297.99999999999994
  endloop
endfacet
facet normal 0.0 0.6087614290087043 0.7933533402912477
  outer loop
    vertex -133.00000000000003 9.500000000000021 297.6339745962155
    vertex -83.00000000000004 9.292893218813472 297.79289321881345
    vertex -83.00000000000004 9.500000000000021 297.6339745962155
  endloop
endfacet
facet normal 0.0 0.6087614290087043 0.7933533402912477
  outer loop
    vertex -83.00000000000004 9.292893218813472 297.79289321881345
    vertex -133.00000000000003 9.500000000000021 297.6339745962155
    vertex -133.00000000000009 9.292893218813472 297.79289321881345
  endloop
endfacet
facet normal 0.0 0.38268343236515584 0.9238795325112594
  outer loop
    vertex -133.00000000000003 9.741180954897498 297.5340741737109
    vertex -83.00000000000004 9.500000000000021 297.6339745962155
    vertex -83.00000000000004 9.741180954897498 297.5340741737109
  endloop
endfacet
facet normal 0.0 0.38268343236515584 0.9238795325112594
  outer loop
    vertex -83.00000000000004 9.500000000000021 297.6339745962155
    vertex -133.00000000000003 9.741180954897498 297.5340741737109
    vertex -133.00000000000003 9.500000000000021 297.6339745962155
  endloop
endfacet
facet normal 0.0 0.13052619221998843 0.9914448613738187
  outer loop
    vertex -133.00000000000003 10.000000000000021 297.5
    vertex -83.00000000000004 9.741180954897498 297.5340741737109
    vertex -83.00000000000004 10.000000000000021 297.5
  endloop
endfacet
facet normal 0.0 0.13052619221998843 0.9914448613738187
  outer loop
    vertex -83.00000000000004 9.741180954897498 297.5340741737109
    vertex -133.00000000000003 10.000000000000021 297.5
    vertex -133.00000000000003 9.741180954897498 297.5340741737109
  endloop
endfacet
facet normal 0.0 -0.13052619221998774 0.9914448613738189
  outer loop
    vertex -133.00000000000003 10.258819045102545 297.5340741737109
    vertex -83.00000000000004 10.000000000000021 297.5
    vertex -83.00000000000004 10.258819045102545 297.5340741737109
  endloop
endfacet
facet normal 0.0 -0.13052619221998774 0.9914448613738189
  outer loop
    vertex -83.00000000000004 10.000000000000021 297.5
    vertex -133.00000000000003 10.258819045102545 297.5340741737109
    vertex -133.00000000000003 10.000000000000021 297.5
  endloop
endfacet
facet normal 0.0 -0.38268343236515584 0.9238795325112594
  outer loop
    vertex -133.00000000000003 10.50000000000002 297.6339745962155
    vertex -83.00000000000004 10.258819045102545 297.5340741737109
    vertex -83.00000000000004 10.50000000000002 297.6339745962155
  endloop
endfacet
facet normal 0.0 -0.38268343236515584 0.9238795325112594
  outer loop
    vertex -83.00000000000004 10.258819045102545 297.5340741737109
    vertex -133.00000000000003 10.50000000000002 297.6339745962155
    vertex -133.00000000000003 10.258819045102545 297.5340741737109
  endloop
endfacet
facet normal 0.0 -0.6087614290087043 0.7933533402912477
  outer loop
    vertex -133.00000000000003 10.707106781186571 297.79289321881345
    vertex -83.00000000000004 10.50000000000002 297.6339745962155
    vertex -83.00000000000004 10.707106781186571 297.79289321881345
  endloop
endfacet
facet normal 0.0 -0.6087614290087043 0.7933533402912477
  outer loop
    vertex -83.00000000000004 10.50000000000002 297.6339745962155
    vertex -133.00000000000003 10.707106781186571 297.79289321881345
    vertex -133.00000000000003 10.50000000000002 297.6339745962155
  endloop
endfacet
facet normal 0.0 -0.7933533402912093 0.6087614290087544
  outer loop
    vertex -83.00000000000004 10.866025403784455 297.99999999999994
    vertex -133.00000000000003 10.707106781186571 297.79289321881345
    vertex -83.00000000000004 10.707106781186571 297.79289321881345
  endloop
endfacet
facet normal 0.0 -0.7933533402912093 0.6087614290087544
  outer loop
    vertex -133.00000000000003 10.707106781186571 297.79289321881345
    vertex -83.00000000000004 10.866025403784455 297.99999999999994
    vertex -133.00000000000003 10.866025403784455 297.99999999999994
  endloop
endfacet
facet normal 0.0 -0.923879532511291 0.38268343236507985
  outer loop
    vertex -83.00000000000004 10.965925826289093 298.24118095489746
    vertex -133.00000000000003 10.866025403784455 297.99999999999994
    vertex -83.00000000000004 10.866025403784455 297.99999999999994
  endloop
endfacet
facet normal 0.0 -0.923879532511291 0.38268343236507985
  outer loop
    vertex -133.00000000000003 10.866025403784455 297.99999999999994
    vertex -83.00000000000004 10.965925826289093 298.24118095489746
    vertex -133.00000000000003 10.965925826289093 298.24118095489746
  endloop
endfacet
facet normal 1.0 0.0 0.0
  outer loop
    vertex -133.00000000000009 45.96592582628909 298.75881904510254
    vertex -133.00000000000009 45.96592582628909 298.24118095489746
    vertex -133.00000000000009 46.000000000000014 298.5
  endloop
endfacet
facet normal 1.0 0.0 0.0
  outer loop
    vertex -133.00000000000009 45.96592582628909 298.24118095489746
    vertex -133.00000000000009 45.96592582628909 298.75881904510254
    vertex -133.00000000000009 45.866025403784455 299.00000000000006
  endloop
endfacet
facet normal 1.0 0.0 0.0
  outer loop
    vertex -133.00000000000009 45.96592582628909 298.24118095489746
    vertex -133.00000000000009 45.866025403784455 299.00000000000006
    vertex -133.00000000000009 45.866025403784455 298.00000000000006
  endloop
endfacet
facet normal 1.0 0.0 0.0
  outer loop
    vertex -133.00000000000009 45.866025403784455 298.00000000000006
    vertex -133.00000000000009 45.866025403784455 299.00000000000006
    vertex -133.00000000000009 45.70710678118656 299.20710678118655
  endloop
endfacet
facet normal 1.0 0.0 0.0
  outer loop
    vertex -133.00000000000009 45.866025403784455 298.00000000000006
    vertex -133.00000000000009 45.70710678118656 299.20710678118655
    vertex -133.00000000000009 45.70710678118656 297.79289321881345
  endloop
endfacet
facet normal 1.0 0.0 0.0
  outer loop
    vertex -133.00000000000009 45.70710678118656 297.79289321881345
    vertex -133.00000000000009 45.70710678118656 299.20710678118655
    vertex -133.00000000000009 45.50000000000002 299.3660254037845
  endloop
endfacet
facet normal 1.0 0.0 0.0
  outer loop
    vertex -133.00000000000009 45.70710678118656 297.79289321881345
    vertex -133.00000000000009 45.50000000000002 299.3660254037845
    vertex -133.00000000000009 45.50000000000002 297.6339745962156
  endloop
endfacet
facet normal 1.0 0.0 0.0
  outer loop
    vertex -133.00000000000009 45.50000000000002 297.6339745962156
    vertex -133.00000000000009 45.50000000000002 299.3660254037845
    vertex -133.00000000000009 45.258819045102534 299.4659258262891
  endloop
endfacet
facet normal 1.0 0.0 0.0
  outer loop
    vertex -133.00000000000009 45.50000000000002 297.6339745962156
    vertex -133.00000000000009 45.258819045102534 299.4659258262891
    vertex -133.00000000000009 45.25881904510254 297.5340741737109
  endloop
endfacet
facet normal 1.0 0.0 0.0
  outer loop
    vertex -133.00000000000009 45.25881904510254 297.5340741737109
    vertex -133.00000000000009 45.258819045102534 299.4659258262891
    vertex -133.00000000000009 45.00000000000002 297.5
  endloop
endfacet
facet normal 1.0 0.0 0.0
  outer loop
    vertex -133.00000000000009 45.00000000000002 297.5
    vertex -133.00000000000009 45.258819045102534 299.4659258262891
    vertex -133.00000000000009 45.00000000000002 299.5
  endloop
endfacet
facet normal 1.0 0.0 0.0
  outer loop
    vertex -133.00000000000009 45.00000000000002 297.5
    vertex -133.00000000000009 45.00000000000002 299.5
    vertex -133.00000000000009 44.741180954897494 299.4659258262891
  endloop
endfacet
facet normal 1.0 0.0 0.0
  outer loop
    vertex -133.00000000000009 45.00000000000002 297.5
    vertex -133.00000000000009 44.741180954897494 299.4659258262891
    vertex -133.00000000000009 44.741180954897494 297.5340741737109
  endloop
endfacet
facet normal 1.0 0.0 0.0
  outer loop
    vertex -133.00000000000009 44.741180954897494 297.5340741737109
    vertex -133.00000000000009 44.741180954897494 299.4659258262891
    vertex -133.00000000000009 44.50000000000002 299.3660254037845
  endloop
endfacet
facet normal 1.0 0.0 0.0
  outer loop
    vertex -133.00000000000009 44.741180954897494 297.5340741737109
    vertex -133.00000000000009 44.50000000000002 299.3660254037845
    vertex -133.00000000000009 44.50000000000002 297.6339745962156
  endloop
endfacet
facet normal 1.0 0.0 0.0
  outer loop
    vertex -133.00000000000009 44.50000000000002 297.6339745962156
    vertex -133.00000000000009 44.50000000000002 299.3660254037845
    vertex -133.00000000000009 44.29289321881347 299.20710678118655
  endloop
endfacet
facet normal 1.0 0.0 0.0
  outer loop
    vertex -133.00000000000009 44.50000000000002 297.6339745962156
    vertex -133.00000000000009 44.29289321881347 299.20710678118655
    vertex -133.00000000000009 44.292893218813475 297.79289321881345
  endloop
endfacet
facet normal 1.0 0.0 0.0
  outer loop
    vertex -133.00000000000009 44.292893218813475 297.79289321881345
    vertex -133.00000000000009 44.29289321881347 299.20710678118655
    vertex -133.00000000000009 44.13397459621558 298.0
  endloop
endfacet
facet normal 1.0 0.0 0.0
  outer loop
    vertex -133.00000000000009 44.13397459621558 298.0
    vertex -133.00000000000009 44.29289321881347 299.20710678118655
    vertex -133.00000000000009 44.13397459621558 299.0
  endloop
endfacet
facet normal 1.0 0.0 0.0
  outer loop
    vertex -133.00000000000009 44.13397459621558 298.0
    vertex -133.00000000000009 44.13397459621558 299.0
    vertex -133.00000000000009 44.034074173710955 298.75881904510254
  endloop
endfacet
facet normal 1.0 0.0 0.0
  outer loop
    vertex -133.00000000000009 44.13397459621558 298.0
    vertex -133.00000000000009 44.034074173710955 298.75881904510254
    vertex -133.00000000000009 44.034074173710955 298.24118095489746
  endloop
endfacet
facet normal 1.0 0.0 0.0
  outer loop
    vertex -133.00000000000009 44.034074173710955 298.24118095489746
    vertex -133.00000000000009 44.034074173710955 298.75881904510254
    vertex -133.00000000000009 44.00000000000002 298.5
  endloop
endfacet
facet normal 0.0 -0.13052619221998704 0.991444861373819
  outer loop
    vertex -133.00000000000009 45.25881904510254 297.5340741737109
    vertex -83.00000000000003 45.00000000000002 297.5
    vertex -83.00000000000003 45.25881904510254 297.5340741737109
  endloop
endfacet
facet normal 0.0 -0.13052619221998704 0.991444861373819
  outer loop
    vertex -83.00000000000003 45.00000000000002 297.5
    vertex -133.00000000000009 45.25881904510254 297.5340741737109
    vertex -133.00000000000009 45.00000000000002 297.5
  endloop
endfacet
facet normal 0.0 -0.38268343236515967 0.9238795325112579
  outer loop
    vertex -133.00000000000009 45.50000000000002 297.6339745962156
    vertex -83.00000000000003 45.25881904510254 297.5340741737109
    vertex -83.00000000000003 45.50000000000002 297.6339745962156
  endloop
endfacet
facet normal 0.0 -0.38268343236515967 0.9238795325112579
  outer loop
    vertex -83.00000000000003 45.25881904510254 297.5340741737109
    vertex -133.00000000000009 45.50000000000002 297.6339745962156
    vertex -133.00000000000009 45.25881904510254 297.5340741737109
  endloop
endfacet
facet normal 0.0 -0.6087614290087096 0.7933533402912437
  outer loop
    vertex -133.00000000000009 45.70710678118656 297.79289321881345
    vertex -83.00000000000003 45.50000000000002 297.6339745962156
    vertex -83.00000000000003 45.70710678118656 297.79289321881345
  endloop
endfacet
facet normal 0.0 -0.6087614290087096 0.7933533402912437
  outer loop
    vertex -83.00000000000003 45.50000000000002 297.6339745962156
    vertex -133.00000000000009 45.70710678118656 297.79289321881345
    vertex -133.00000000000009 45.50000000000002 297.6339745962156
  endloop
endfacet
facet normal 0.0 -0.7933533402912629 0.6087614290086847
  outer loop
    vertex -83.00000000000003 45.866025403784455 298.00000000000006
    vertex -133.00000000000009 45.70710678118656 297.79289321881345
    vertex -83.00000000000003 45.70710678118656 297.79289321881345
  endloop
endfacet
facet normal 0.0 -0.7933533402912629 0.6087614290086847
  outer loop
    vertex -133.00000000000009 45.70710678118656 297.79289321881345
    vertex -83.00000000000003 45.866025403784455 298.00000000000006
    vertex -133.00000000000009 45.866025403784455 298.00000000000006
  endloop
endfacet
facet normal 0.0 -0.9238795325112693 0.3826834323651317
  outer loop
    vertex -83.00000000000003 45.96592582628909 298.24118095489746
    vertex -133.00000000000009 45.866025403784455 298.00000000000006
    vertex -83.00000000000003 45.866025403784455 298.00000000000006
  endloop
endfacet
facet normal 0.0 -0.9238795325112693 0.3826834323651317
  outer loop
    vertex -133.00000000000009 45.866025403784455 298.00000000000006
    vertex -83.00000000000003 45.96592582628909 298.24118095489746
    vertex -133.00000000000009 45.96592582628909 298.24118095489746
  endloop
endfacet
facet normal 0.0 -0.9914448613738113 0.13052619222004516
  outer loop
    vertex -83.00000000000003 46.000000000000014 298.5
    vertex -133.00000000000009 45.96592582628909 298.24118095489746
    vertex -83.00000000000003 45.96592582628909 298.24118095489746
  endloop
endfacet
facet normal 0.0 -0.9914448613738113 0.13052619222004516
  outer loop
    vertex -133.00000000000009 45.96592582628909 298.24118095489746
    vertex -83.00000000000003 46.000000000000014 298.5
    vertex -133.00000000000009 46.000000000000014 298.5
  endloop
endfacet
facet normal 0.0 -0.9914448613738113 -0.13052619222004516
  outer loop
    vertex -83.00000000000003 45.96592582628909 298.75881904510254
    vertex -133.00000000000009 46.000000000000014 298.5
    vertex -83.00000000000003 46.000000000000014 298.5
  endloop
endfacet
facet normal 0.0 -0.9914448613738113 -0.13052619222004516
  outer loop
    vertex -133.00000000000009 46.000000000000014 298.5
    vertex -83.00000000000003 45.96592582628909 298.75881904510254
    vertex -133.00000000000009 45.96592582628909 298.75881904510254
  endloop
endfacet
facet normal 0.0 -0.9238795325112947 -0.38268343236507063
  outer loop
    vertex -83.00000000000003 45.866025403784455 299.00000000000006
    vertex -133.00000000000009 45.96592582628909 298.75881904510254
    vertex -83.00000000000003 45.96592582628909 298.75881904510254
  endloop
endfacet
facet normal 0.0 -0.9238795325112947 -0.38268343236507063
  outer loop
    vertex -133.00000000000009 45.96592582628909 298.75881904510254
    vertex -83.00000000000003 45.866025403784455 299.00000000000006
    vertex -133.00000000000009 45.866025403784455 299.00000000000006
  endloop
endfacet
facet normal 0.0 -0.7933533402911989 -0.6087614290087681
  outer loop
    vertex -83.00000000000003 45.70710678118656 299.20710678118655
    vertex -133.00000000000009 45.866025403784455 299.00000000000006
    vertex -83.00000000000003 45.866025403784455 299.00000000000006
  endloop
endfacet
facet normal 0.0 -0.7933533402911989 -0.6087614290087681
  outer loop
    vertex -133.00000000000009 45.866025403784455 299.00000000000006
    vertex -83.00000000000003 45.70710678118656 299.20710678118655
    vertex -133.00000000000009 45.70710678118656 299.20710678118655
  endloop
endfacet
facet normal 0.0 -0.6087614290087096 -0.7933533402912437
  outer loop
    vertex -133.00000000000009 45.50000000000002 299.3660254037845
    vertex -83.00000000000003 45.70710678118656 299.20710678118655
    vertex -83.00000000000003 45.50000000000002 299.3660254037845
  endloop
endfacet
facet normal 0.0 -0.6087614290087096 -0.7933533402912437
  outer loop
    vertex -83.00000000000003 45.70710678118656 299.20710678118655
    vertex -133.00000000000009 45.50000000000002 299.3660254037845
    vertex -133.00000000000009 45.70710678118656 299.20710678118655
  endloop
endfacet
facet normal 0.0 -0.38268343236515207 -0.9238795325112611
  outer loop
    vertex -133.00000000000009 45.258819045102534 299.4659258262891
    vertex -83.00000000000003 45.50000000000002 299.3660254037845
    vertex -83.00000000000003 45.258819045102534 299.4659258262891
  endloop
endfacet
facet normal 0.0 -0.38268343236515207 -0.9238795325112611
  outer loop
    vertex -83.00000000000003 45.50000000000002 299.3660254037845
    vertex -133.00000000000009 45.258819045102534 299.4659258262891
    vertex -133.00000000000009 45.50000000000002 299.3660254037845
  endloop
endfacet
facet normal 0.0 -0.13052619221998985 -0.9914448613738186
  outer loop
    vertex -133.00000000000009 45.00000000000002 299.5
    vertex -83.00000000000003 45.258819045102534 299.4659258262891
    vertex -83.00000000000003 45.00000000000002 299.5
  endloop
endfacet
facet normal 0.0 -0.13052619221998985 -0.9914448613738186
  outer loop
    vertex -83.00000000000003 45.258819045102534 299.4659258262891
    vertex -133.00000000000009 45.00000000000002 299.5
    vertex -133.00000000000009 45.258819045102534 299.4659258262891
  endloop
endfacet
facet normal 0.0 0.13052619221998704 -0.991444861373819
  outer loop
    vertex -133.00000000000009 44.741180954897494 299.4659258262891
    vertex -83.00000000000003 45.00000000000002 299.5
    vertex -83.00000000000003 44.741180954897494 299.4659258262891
  endloop
endfacet
facet normal 0.0 0.13052619221998704 -0.991444861373819
  outer loop
    vertex -83.00000000000003 45.00000000000002 299.5
    vertex -133.00000000000009 44.741180954897494 299.4659258262891
    vertex -133.00000000000009 45.00000000000002 299.5
  endloop
endfacet
facet normal 0.0 0.38268343236515967 -0.9238795325112579
  outer loop
    vertex -133.00000000000009 44.50000000000002 299.3660254037845
    vertex -83.00000000000003 44.741180954897494 299.4659258262891
    vertex -83.00000000000003 44.50000000000002 299.3660254037845
  endloop
endfacet
facet normal 0.0 0.38268343236515967 -0.9238795325112579
  outer loop
    vertex -83.00000000000003 44.741180954897494 299.4659258262891
    vertex -133.00000000000009 44.50000000000002 299.3660254037845
    vertex -133.00000000000009 44.741180954897494 299.4659258262891
  endloop
endfacet
facet normal 0.0 0.6087614290086991 -0.7933533402912518
  outer loop
    vertex -133.00000000000009 44.29289321881347 299.20710678118655
    vertex -83.00000000000003 44.50000000000002 299.3660254037845
    vertex -83.00000000000003 44.29289321881347 299.20710678118655
  endloop
endfacet
facet normal 0.0 0.6087614290086991 -0.7933533402912518
  outer loop
    vertex -83.00000000000003 44.50000000000002 299.3660254037845
    vertex -133.00000000000009 44.29289321881347 299.20710678118655
    vertex -133.00000000000009 44.50000000000002 299.3660254037845
  endloop
endfacet
facet normal 0.0 0.7933533402912732 -0.6087614290086709
  outer loop
    vertex -133.00000000000009 44.29289321881347 299.20710678118655
    vertex -83.00000000000003 44.13397459621558 299.0
    vertex -133.00000000000009 44.13397459621558 299.0
  endloop
endfacet
facet normal 0.0 0.7933533402912732 -0.6087614290086709
  outer loop
    vertex -83.00000000000003 44.13397459621558 299.0
    vertex -133.00000000000009 44.29289321881347 299.20710678118655
    vertex -83.00000000000003 44.29289321881347 299.20710678118655
  endloop
endfacet
facet normal 0.0 0.9238795325112693 -0.3826834323651317
  outer loop
    vertex -133.00000000000009 44.13397459621558 299.0
    vertex -83.00000000000003 44.034074173710955 298.75881904510254
    vertex -133.00000000000009 44.034074173710955 298.75881904510254
  endloop
endfacet
facet normal 0.0 0.9238795325112693 -0.3826834323651317
  outer loop
    vertex -83.00000000000003 44.034074173710955 298.75881904510254
    vertex -133.00000000000009 44.13397459621558 299.0
    vertex -83.00000000000003 44.13397459621558 299.0
  endloop
endfacet
facet normal 0.0 0.9914448613738113 -0.13052619222004516
  outer loop
    vertex -133.00000000000009 44.034074173710955 298.75881904510254
    vertex -83.00000000000003 44.00000000000002 298.5
    vertex -133.00000000000009 44.00000000000002 298.5
  endloop
endfacet
facet normal 0.0 0.9914448613738113 -0.13052619222004516
  outer loop
    vertex -83.00000000000003 44.00000000000002 298.5
    vertex -133.00000000000009 44.034074173710955 298.75881904510254
    vertex -83.00000000000003 44.034074173710955 298.75881904510254
  endloop
endfacet
facet normal 0.0 0.9914448613738113 0.13052619222004516
  outer loop
    vertex -133.00000000000009 44.00000000000002 298.5
    vertex -83.00000000000003 44.034074173710955 298.24118095489746
    vertex -133.00000000000009 44.034074173710955 298.24118095489746
  endloop
endfacet
facet normal 0.0 0.9914448613738113 0.13052619222004516
  outer loop
    vertex -83.00000000000003 44.034074173710955 298.24118095489746
    vertex -133.00000000000009 44.00000000000002 298.5
    vertex -83.00000000000003 44.00000000000002 298.5
  endloop
endfacet
facet normal 0.0 0.9238795325112947 0.38268343236507063
  outer loop
    vertex -133.00000000000009 44.034074173710955 298.24118095489746
    vertex -83.00000000000003 44.13397459621558 298.0
    vertex -133.00000000000009 44.13397459621558 298.0
  endloop
endfacet
facet normal 0.0 0.9238795325112947 0.38268343236507063
  outer loop
    vertex -83.00000000000003 44.13397459621558 298.0
    vertex -133.00000000000009 44.034074173710955 298.24118095489746
    vertex -83.00000000000003 44.034074173710955 298.24118095489746
  endloop
endfacet
facet normal 0.0 0.7933533402911989 0.6087614290087681
  outer loop
    vertex -133.00000000000009 44.13397459621558 298.0
    vertex -83.00000000000003 44.292893218813475 297.79289321881345
    vertex -133.00000000000009 44.292893218813475 297.79289321881345
  endloop
endfacet
facet normal 0.0 0.7933533402911989 0.6087614290087681
  outer loop
    vertex -83.00000000000003 44.292893218813475 297.79289321881345
    vertex -133.00000000000009 44.13397459621558 298.0
    vertex -83.00000000000003 44.13397459621558 298.0
  endloop
endfacet
facet normal 0.0 0.6087614290087096 0.7933533402912437
  outer loop
    vertex -133.00000000000009 44.50000000000002 297.6339745962156
    vertex -83.00000000000003 44.292893218813475 297.79289321881345
    vertex -83.00000000000003 44.50000000000002 297.6339745962156
  endloop
endfacet
facet normal 0.0 0.6087614290087096 0.7933533402912437
  outer loop
    vertex -83.00000000000003 44.292893218813475 297.79289321881345
    vertex -133.00000000000009 44.50000000000002 297.6339745962156
    vertex -133.00000000000009 44.292893218813475 297.79289321881345
  endloop
endfacet
facet normal 0.0 0.38268343236515967 0.9238795325112579
  outer loop
    vertex -133.00000000000009 44.741180954897494 297.5340741737109
    vertex -83.00000000000003 44.50000000000002 297.6339745962156
    vertex -83.00000000000003 44.741180954897494 297.5340741737109
  endloop
endfacet
facet normal 0.0 0.38268343236515967 0.9238795325112579
  outer loop
    vertex -83.00000000000003 44.50000000000002 297.6339745962156
    vertex -133.00000000000009 44.741180954897494 297.5340741737109
    vertex -133.00000000000009 44.50000000000002 297.6339745962156
  endloop
endfacet
facet normal 0.0 0.13052619221998704 0.991444861373819
  outer loop
    vertex -133.00000000000009 45.00000000000002 297.5
    vertex -83.00000000000003 44.741180954897494 297.5340741737109
    vertex -83.00000000000003 45.00000000000002 297.5
  endloop
endfacet
facet normal 0.0 0.13052619221998704 0.991444861373819
  outer loop
    vertex -83.00000000000003 44.741180954897494 297.5340741737109
    vertex -133.00000000000009 45.00000000000002 297.5
    vertex -133.00000000000009 44.741180954897494 297.5340741737109
  endloop
endfacet
endsolid crane
