solid crane
facet normal -0.6517688105645928 0.5701557725345177 -0.5001197982691581
  outer loop
    vertex -407.45621353409337 24.699999999999065 285.7251264659071
    vertex -407.4062109305369 25.69999999999906 286.8000002000601
    vertex -406.9612387872628 25.69999999999906 286.22010121273775
  endloop
endfacet
facet normal -0.6517688105645928 0.5701557725345177 -0.5001197982691581
  outer loop
    vertex -407.4062109305369 25.69999999999906 286.8000002000601
    vertex -407.45621353409337 24.699999999999065 285.7251264659071
    vertex -408.012428713186 24.699999999999065 286.45000020006006
  endloop
endfacet
facet normal 0.3143884482087265 -0.5701557725345187 0.7590008555189348
  outer loop
    vertex -404.07547314208165 27.699999999999065 291.5807405920718
    vertex -403.5813397999405 26.699999999999065 290.62487133065645
    vertex -403.2313397999405 27.69999999999907 291.2310891133056
  endloop
endfacet
facet normal 0.3143884482087265 -0.5701557725345187 0.7590008555189348
  outer loop
    vertex -403.5813397999405 26.699999999999065 290.62487133065645
    vertex -404.07547314208165 27.699999999999065 291.5807405920718
    vertex -404.2566464736534 26.699999999999065 290.90459251366946
  endloop
endfacet
facet normal 0.8145082464778836 -0.570155772534518 -0.10723204495434288
  outer loop
    vertex -402.1813397999405 26.699999999999065 288.20000020006006
    vertex -401.6005994079287 27.69999999999907 287.2941335422013
    vertex -401.4813397999405 27.69999999999907 288.20000020006006
  endloop
endfacet
facet normal 0.8145082464778836 -0.570155772534518 -0.10723204495434288
  outer loop
    vertex -401.6005994079287 27.69999999999907 287.2941335422013
    vertex -402.1813397999405 26.699999999999065 288.20000020006006
    vertex -402.2767474863311 26.699999999999065 287.475306873773
  endloop
endfacet
facet normal -0.31438844820872625 0.5701557725345182 -0.7590008555189354
  outer loop
    vertex -405.8872064577993 24.699999999999065 284.8192598080483
    vertex -406.38133979994046 25.69999999999906 285.7751290694636
    vertex -405.70603312622757 25.69999999999907 285.49540788645066
  endloop
endfacet
facet normal -0.31438844820872625 0.5701557725345182 -0.7590008555189354
  outer loop
    vertex -406.38133979994046 25.69999999999906 285.7751290694636
    vertex -405.8872064577993 24.699999999999065 284.8192598080483
    vertex -406.7313397999405 24.699999999999065 285.16891128681453
  endloop
endfacet
facet normal 0.31438844820872514 -0.5701557725345183 -0.7590008555189356
  outer loop
    vertex -403.5813397999405 26.699999999999065 285.7751290694636
    vertex -404.07547314208165 27.69999999999907 284.8192598080483
    vertex -403.2313397999405 27.69999999999907 285.16891128681453
  endloop
endfacet
facet normal 0.31438844820872514 -0.5701557725345183 -0.7590008555189356
  outer loop
    vertex -404.07547314208165 27.69999999999907 284.8192598080483
    vertex -403.5813397999405 26.699999999999065 285.7751290694636
    vertex -404.2566464736534 26.699999999999065 285.49540788645066
  endloop
endfacet
facet normal 0.5001197982691588 -0.5701557725345188 -0.6517688105645915
  outer loop
    vertex -403.0014408126181 26.699999999999065 286.22010121273775
    vertex -403.2313397999405 27.69999999999907 285.16891128681453
    vertex -402.50646606578755 27.69999999999907 285.7251264659071
  endloop
endfacet
facet normal 0.5001197982691588 -0.5701557725345188 -0.6517688105645915
  outer loop
    vertex -403.2313397999405 27.69999999999907 285.16891128681453
    vertex -403.0014408126181 26.699999999999065 286.22010121273775
    vertex -403.5813397999405 26.699999999999065 285.7751290694636
  endloop
endfacet
facet normal -0.814508246477884 0.5701557725345175 -0.10723204495434265
  outer loop
    vertex -408.3620801919522 24.699999999999065 287.2941335422013
    vertex -407.78133979994044 25.69999999999906 288.20000020006006
    vertex -407.6859321135499 25.69999999999906 287.475306873773
  endloop
endfacet
facet normal -0.814508246477884 0.5701557725345175 -0.10723204495434265
  outer loop
    vertex -407.78133979994044 25.69999999999906 288.20000020006006
    vertex -408.3620801919522 24.699999999999065 287.2941335422013
    vertex -408.4813397999405 24.699999999999065 288.20000020006006
  endloop
endfacet
facet normal -0.7590008555189361 0.5701557725345175 0.31438844820872586
  outer loop
    vertex -408.3620801919522 24.699999999999065 289.1058668579189
    vertex -407.4062109305369 25.69999999999906 289.6000002000601
    vertex -407.6859321135499 25.69999999999906 288.92469352634714
  endloop
endfacet
facet normal -0.7590008555189361 0.5701557725345175 0.31438844820872586
  outer loop
    vertex -407.4062109305369 25.69999999999906 289.6000002000601
    vertex -408.3620801919522 24.699999999999065 289.1058668579189
    vertex -408.012428713186 24.699999999999065 289.95000020006006
  endloop
endfacet
facet normal -0.6517688105645928 0.5701557725345177 0.5001197982691581
  outer loop
    vertex -408.012428713186 24.699999999999065 289.95000020006006
    vertex -406.9612387872628 25.69999999999906 290.1798991873824
    vertex -407.4062109305369 25.69999999999906 289.6000002000601
  endloop
endfacet
facet normal -0.6517688105645928 0.5701557725345177 0.5001197982691581
  outer loop
    vertex -406.9612387872628 25.69999999999906 290.1798991873824
    vertex -408.012428713186 24.699999999999065 289.95000020006006
    vertex -407.45621353409337 24.699999999999065 290.674873934213
  endloop
endfacet
facet normal -0.5001197982691582 0.5701557725345177 0.6517688105645927
  outer loop
    vertex -406.9612387872628 25.69999999999906 290.1798991873824
    vertex -406.7313397999405 24.699999999999065 291.2310891133056
    vertex -406.38133979994046 25.69999999999906 290.6248713306565
  endloop
endfacet
facet normal -0.5001197982691582 0.5701557725345177 0.6517688105645927
  outer loop
    vertex -406.7313397999405 24.699999999999065 291.2310891133056
    vertex -406.9612387872628 25.69999999999906 290.1798991873824
    vertex -407.45621353409337 24.699999999999065 290.674873934213
  endloop
endfacet
facet normal 0.1072320449543433 -0.570155772534519 -0.8145082464778829
  outer loop
    vertex -404.2566464736534 26.699999999999065 285.49540788645066
    vertex -404.9813397999405 27.699999999999065 284.70000020006006
    vertex -404.07547314208165 27.69999999999907 284.8192598080483
  endloop
endfacet
facet normal 0.1072320449543433 -0.570155772534519 -0.8145082464778829
  outer loop
    vertex -404.9813397999405 27.699999999999065 284.70000020006006
    vertex -404.2566464736534 26.699999999999065 285.49540788645066
    vertex -404.9813397999405 26.699999999999065 285.4000002000601
  endloop
endfacet
facet normal 0.31438844820872414 0.5701557725345184 -0.759000855518936
  outer loop
    vertex -404.07547314208165 24.699999999999065 284.8192598080483
    vertex -403.5813397999405 25.69999999999907 285.7751290694636
    vertex -403.2313397999405 24.699999999999065 285.16891128681453
  endloop
endfacet
facet normal 0.31438844820872414 0.5701557725345184 -0.759000855518936
  outer loop
    vertex -403.5813397999405 25.69999999999907 285.7751290694636
    vertex -404.07547314208165 24.699999999999065 284.8192598080483
    vertex -404.2566464736534 25.69999999999907 285.49540788645066
  endloop
endfacet
facet normal 0.5001197982691588 -0.5701557725345189 0.6517688105645913
  outer loop
    vertex -403.2313397999405 27.69999999999907 291.2310891133056
    vertex -403.0014408126181 26.699999999999065 290.1798991873824
    vertex -402.50646606578755 27.69999999999907 290.674873934213
  endloop
endfacet
facet normal 0.5001197982691588 -0.5701557725345189 0.6517688105645913
  outer loop
    vertex -403.0014408126181 26.699999999999065 290.1798991873824
    vertex -403.2313397999405 27.69999999999907 291.2310891133056
    vertex -403.5813397999405 26.699999999999065 290.62487133065645
  endloop
endfacet
facet normal 0.6517688105645919 -0.5701557725345188 0.500119798269158
  outer loop
    vertex -403.0014408126181 26.699999999999065 290.1798991873824
    vertex -401.95025088669496 27.69999999999907 289.95000020006006
    vertex -402.50646606578755 27.69999999999907 290.674873934213
  endloop
endfacet
facet normal 0.6517688105645919 -0.5701557725345188 0.500119798269158
  outer loop
    vertex -401.95025088669496 27.69999999999907 289.95000020006006
    vertex -403.0014408126181 26.699999999999065 290.1798991873824
    vertex -402.55646866934404 26.699999999999065 289.6000002000601
  endloop
endfacet
facet normal -0.6517688105645907 -0.57015577253452 0.5001197982691581
  outer loop
    vertex -407.4062109305369 26.699999999999065 289.6000002000601
    vertex -407.45621353409337 27.699999999999065 290.674873934213
    vertex -408.012428713186 27.699999999999065 289.95000020006006
  endloop
endfacet
facet normal -0.6517688105645907 -0.57015577253452 0.5001197982691581
  outer loop
    vertex -407.45621353409337 27.699999999999065 290.674873934213
    vertex -407.4062109305369 26.699999999999065 289.6000002000601
    vertex -406.9612387872628 26.699999999999065 290.1798991873824
  endloop
endfacet
facet normal 0.5001197982691574 0.570155772534519 -0.6517688105645922
  outer loop
    vertex -403.2313397999405 24.699999999999065 285.16891128681453
    vertex -403.0014408126181 25.69999999999907 286.22010121273775
    vertex -402.50646606578755 24.69999999999907 285.7251264659071
  endloop
endfacet
facet normal 0.5001197982691574 0.570155772534519 -0.6517688105645922
  outer loop
    vertex -403.0014408126181 25.69999999999907 286.22010121273775
    vertex -403.2313397999405 24.699999999999065 285.16891128681453
    vertex -403.5813397999405 25.69999999999907 285.7751290694636
  endloop
endfacet
facet normal 0.7590008555189365 -0.5701557725345181 0.31438844820872436
  outer loop
    vertex -402.55646866934404 26.699999999999065 289.6000002000601
    vertex -401.6005994079287 27.69999999999907 289.10586685791884
    vertex -401.95025088669496 27.69999999999907 289.95000020006006
  endloop
endfacet
facet normal 0.7590008555189365 -0.5701557725345181 0.31438844820872436
  outer loop
    vertex -401.6005994079287 27.69999999999907 289.10586685791884
    vertex -402.55646866934404 26.699999999999065 289.6000002000601
    vertex -402.2767474863311 26.699999999999065 288.92469352634714
  endloop
endfacet
facet normal 0.31438844820872525 0.5701557725345185 0.7590008555189356
  outer loop
    vertex -403.58133979994045 25.69999999999907 290.62487133065645
    vertex -404.07547314208165 24.699999999999065 291.5807405920718
    vertex -403.2313397999405 24.699999999999065 291.2310891133056
  endloop
endfacet
facet normal 0.31438844820872525 0.5701557725345185 0.7590008555189356
  outer loop
    vertex -404.07547314208165 24.699999999999065 291.5807405920718
    vertex -403.58133979994045 25.69999999999907 290.62487133065645
    vertex -404.2566464736534 25.69999999999907 290.90459251366946
  endloop
endfacet
facet normal 0.10723204495434313 0.5701557725345185 0.8145082464778833
  outer loop
    vertex -404.2566464736534 25.69999999999907 290.90459251366946
    vertex -404.9813397999405 24.699999999999065 291.70000020006006
    vertex -404.07547314208165 24.699999999999065 291.5807405920718
  endloop
endfacet
facet normal 0.10723204495434313 0.5701557725345185 0.8145082464778833
  outer loop
    vertex -404.9813397999405 24.699999999999065 291.70000020006006
    vertex -404.2566464736534 25.69999999999907 290.90459251366946
    vertex -404.9813397999405 25.69999999999907 291.0000002000601
  endloop
endfacet
facet normal -0.8145082464778824 -0.5701557725345197 0.10723204495434344
  outer loop
    vertex -407.78133979994044 26.69999999999906 288.20000020006006
    vertex -408.3620801919522 27.699999999999065 289.1058668579189
    vertex -408.4813397999405 27.699999999999065 288.20000020006006
  endloop
endfacet
facet normal -0.8145082464778824 -0.5701557725345197 0.10723204495434344
  outer loop
    vertex -408.3620801919522 27.699999999999065 289.1058668579189
    vertex -407.78133979994044 26.69999999999906 288.20000020006006
    vertex -407.6859321135499 26.699999999999065 288.92469352634714
  endloop
endfacet
facet normal 0.7590008555189358 0.5701557725345189 0.3143884482087243
  outer loop
    vertex -401.95025088669496 24.69999999999907 289.95000020006006
    vertex -402.2767474863311 25.69999999999907 288.92469352634714
    vertex -402.55646866934404 25.69999999999907 289.6000002000601
  endloop
endfacet
facet normal 0.7590008555189358 0.5701557725345189 0.3143884482087243
  outer loop
    vertex -402.2767474863311 25.69999999999907 288.92469352634714
    vertex -401.95025088669496 24.69999999999907 289.95000020006006
    vertex -401.6005994079287 24.69999999999907 289.10586685791884
  endloop
endfacet
facet normal -0.5001197982691572 -0.5701557725345195 0.651768810564592
  outer loop
    vertex -406.7313397999405 27.699999999999065 291.2310891133056
    vertex -406.9612387872628 26.699999999999065 290.1798991873824
    vertex -406.38133979994046 26.699999999999065 290.62487133065645
  endloop
endfacet
facet normal -0.5001197982691572 -0.5701557725345195 0.651768810564592
  outer loop
    vertex -406.9612387872628 26.699999999999065 290.1798991873824
    vertex -406.7313397999405 27.699999999999065 291.2310891133056
    vertex -407.45621353409337 27.699999999999065 290.674873934213
  endloop
endfacet
facet normal -0.1072320449543418 -0.5701557725345191 0.8145082464778832
  outer loop
    vertex -405.88720645779927 27.699999999999065 291.5807405920718
    vertex -404.9813397999405 26.699999999999065 291.0000002000601
    vertex -404.9813397999405 27.699999999999065 291.70000020006006
  endloop
endfacet
facet normal -0.1072320449543418 -0.5701557725345191 0.8145082464778832
  outer loop
    vertex -404.9813397999405 26.699999999999065 291.0000002000601
    vertex -405.88720645779927 27.699999999999065 291.5807405920718
    vertex -405.70603312622757 26.699999999999065 290.90459251366946
  endloop
endfacet
facet normal 0.6517688105645918 0.5701557725345191 0.5001197982691578
  outer loop
    vertex -402.50646606578755 24.69999999999907 290.674873934213
    vertex -402.55646866934404 25.69999999999907 289.6000002000601
    vertex -403.0014408126181 25.69999999999907 290.1798991873824
  endloop
endfacet
facet normal 0.6517688105645918 0.5701557725345191 0.5001197982691578
  outer loop
    vertex -402.55646866934404 25.69999999999907 289.6000002000601
    vertex -402.50646606578755 24.69999999999907 290.674873934213
    vertex -401.95025088669496 24.69999999999907 289.95000020006006
  endloop
endfacet
facet normal 0.7590008555189358 -0.5701557725345181 -0.3143884482087256
  outer loop
    vertex -402.2767474863311 26.699999999999065 287.475306873773
    vertex -401.95025088669496 27.69999999999907 286.45000020006006
    vertex -401.6005994079287 27.69999999999907 287.2941335422013
  endloop
endfacet
facet normal 0.7590008555189358 -0.5701557725345181 -0.3143884482087256
  outer loop
    vertex -401.95025088669496 27.69999999999907 286.45000020006006
    vertex -402.2767474863311 26.699999999999065 287.475306873773
    vertex -402.55646866934404 26.699999999999065 286.8000002000601
  endloop
endfacet
facet normal -0.500119798269159 0.5701557725345179 -0.651768810564592
  outer loop
    vertex -406.7313397999405 24.699999999999065 285.16891128681453
    vertex -406.9612387872628 25.69999999999906 286.22010121273775
    vertex -406.38133979994046 25.69999999999906 285.7751290694636
  endloop
endfacet
facet normal -0.500119798269159 0.5701557725345179 -0.651768810564592
  outer loop
    vertex -406.9612387872628 25.69999999999906 286.22010121273775
    vertex -406.7313397999405 24.699999999999065 285.16891128681453
    vertex -407.45621353409337 24.699999999999065 285.7251264659071
  endloop
endfacet
facet normal -0.8145082464778824 -0.5701557725345198 -0.10723204495434258
  outer loop
    vertex -407.6859321135499 26.699999999999065 287.475306873773
    vertex -408.4813397999405 27.699999999999065 288.20000020006006
    vertex -408.3620801919522 27.699999999999065 287.2941335422013
  endloop
endfacet
facet normal -0.8145082464778824 -0.5701557725345198 -0.10723204495434258
  outer loop
    vertex -408.4813397999405 27.699999999999065 288.20000020006006
    vertex -407.6859321135499 26.699999999999065 287.475306873773
    vertex -407.78133979994044 26.69999999999906 288.20000020006006
  endloop
endfacet
facet normal -0.5001197982691574 -0.5701557725345195 -0.6517688105645917
  outer loop
    vertex -406.9612387872628 26.699999999999065 286.22010121273775
    vertex -406.7313397999405 27.699999999999065 285.16891128681453
    vertex -406.38133979994046 26.699999999999065 285.7751290694636
  endloop
endfacet
facet normal -0.5001197982691574 -0.5701557725345195 -0.6517688105645917
  outer loop
    vertex -406.7313397999405 27.699999999999065 285.16891128681453
    vertex -406.9612387872628 26.699999999999065 286.22010121273775
    vertex -407.45621353409337 27.699999999999065 285.7251264659071
  endloop
endfacet
facet normal -0.7590008555189343 -0.5701557725345197 0.31438844820872597
  outer loop
    vertex -407.6859321135499 26.699999999999065 288.92469352634714
    vertex -408.012428713186 27.699999999999065 289.95000020006006
    vertex -408.3620801919522 27.699999999999065 289.1058668579189
  endloop
endfacet
facet normal -0.7590008555189343 -0.5701557725345197 0.31438844820872597
  outer loop
    vertex -408.012428713186 27.699999999999065 289.95000020006006
    vertex -407.6859321135499 26.699999999999065 288.92469352634714
    vertex -407.4062109305369 26.699999999999065 289.6000002000601
  endloop
endfacet
facet normal -0.1072320449543425 -0.5701557725345192 -0.814508246477883
  outer loop
    vertex -404.9813397999405 26.699999999999065 285.4000002000601
    vertex -405.8872064577993 27.699999999999065 284.8192598080483
    vertex -404.9813397999405 27.699999999999065 284.70000020006006
  endloop
endfacet
facet normal -0.1072320449543425 -0.5701557725345192 -0.814508246477883
  outer loop
    vertex -405.8872064577993 27.699999999999065 284.8192598080483
    vertex -404.9813397999405 26.699999999999065 285.4000002000601
    vertex -405.70603312622757 26.699999999999065 285.49540788645066
  endloop
endfacet
facet normal -0.7590008555189353 -0.5701557725345193 -0.3143884482087245
  outer loop
    vertex -407.4062109305369 26.699999999999065 286.8000002000601
    vertex -408.3620801919522 27.699999999999065 287.2941335422013
    vertex -408.012428713186 27.699999999999065 286.45000020006006
  endloop
endfacet
facet normal -0.7590008555189353 -0.5701557725345193 -0.3143884482087245
  outer loop
    vertex -408.3620801919522 27.699999999999065 287.2941335422013
    vertex -407.4062109305369 26.699999999999065 286.8000002000601
    vertex -407.6859321135499 26.699999999999065 287.475306873773
  endloop
endfacet
facet normal -0.31438844820872525 -0.5701557725345193 -0.7590008555189349
  outer loop
    vertex -406.38133979994046 26.699999999999065 285.7751290694636
    vertex -405.8872064577993 27.699999999999065 284.8192598080483
    vertex -405.70603312622757 26.699999999999065 285.49540788645066
  endloop
endfacet
facet normal -0.31438844820872525 -0.5701557725345193 -0.7590008555189349
  outer loop
    vertex -405.8872064577993 27.699999999999065 284.8192598080483
    vertex -406.38133979994046 26.699999999999065 285.7751290694636
    vertex -406.7313397999405 27.699999999999065 285.16891128681453
  endloop
endfacet
facet normal -0.6517688105645912 -0.5701557725345197 -0.5001197982691579
  outer loop
    vertex -406.9612387872628 26.699999999999065 286.22010121273775
    vertex -408.012428713186 27.699999999999065 286.45000020006006
    vertex -407.45621353409337 27.699999999999065 285.7251264659071
  endloop
endfacet
facet normal -0.6517688105645912 -0.5701557725345197 -0.5001197982691579
  outer loop
    vertex -408.012428713186 27.699999999999065 286.45000020006006
    vertex -406.9612387872628 26.699999999999065 286.22010121273775
    vertex -407.4062109305369 26.699999999999065 286.8000002000601
  endloop
endfacet
facet normal -0.6087614290087207 1.2699355002058476e-15 -0.7933533402912354
  outer loop
    vertex -406.38133979994046 25.69999999999906 285.7751290694636
    vertex -406.9612387872628 26.699999999999065 286.22010121273775
    vertex -406.38133979994046 26.699999999999065 285.7751290694636
  endloop
endfacet
facet normal -0.6087614290087207 1.2699355002058476e-15 -0.7933533402912354
  outer loop
    vertex -406.9612387872628 26.699999999999065 286.22010121273775
    vertex -406.38133979994046 25.69999999999906 285.7751290694636
    vertex -406.9612387872628 25.69999999999906 286.22010121273775
  endloop
endfacet
facet normal -0.9238795325112862 3.504930701769799e-16 0.3826834323650913
  outer loop
    vertex -407.6859321135499 25.69999999999906 288.92469352634714
    vertex -407.4062109305369 26.699999999999065 289.6000002000601
    vertex -407.6859321135499 26.699999999999065 288.92469352634714
  endloop
endfacet
facet normal -0.9238795325112862 3.504930701769799e-16 0.3826834323650913
  outer loop
    vertex -407.4062109305369 26.699999999999065 289.6000002000601
    vertex -407.6859321135499 25.69999999999906 288.92469352634714
    vertex -407.4062109305369 25.69999999999906 289.6000002000601
  endloop
endfacet
facet normal 0.13052619222005013 1.420074199815051e-15 -0.9914448613738106
  outer loop
    vertex -404.2566464736534 25.69999999999907 285.49540788645066
    vertex -404.9813397999405 26.699999999999065 285.4000002000601
    vertex -404.2566464736534 26.699999999999065 285.49540788645066
  endloop
endfacet
facet normal 0.13052619222005013 1.420074199815051e-15 -0.9914448613738106
  outer loop
    vertex -404.9813397999405 26.699999999999065 285.4000002000601
    vertex -404.2566464736534 25.69999999999907 285.49540788645066
    vertex -404.9813397999405 25.69999999999907 285.4000002000601
  endloop
endfacet
facet normal -0.9914448613738107 2.92658475174596e-16 -0.13052619222004905
  outer loop
    vertex -407.6859321135499 25.69999999999906 287.475306873773
    vertex -407.78133979994044 26.69999999999906 288.20000020006006
    vertex -407.6859321135499 26.699999999999065 287.475306873773
  endloop
endfacet
facet normal -0.9914448613738107 2.92658475174596e-16 -0.13052619222004905
  outer loop
    vertex -407.78133979994044 26.69999999999906 288.20000020006006
    vertex -407.6859321135499 25.69999999999906 287.475306873773
    vertex -407.78133979994044 25.69999999999906 288.20000020006006
  endloop
endfacet
facet normal 0.7933533402912347 2.602099457905907e-15 -0.6087614290087212
  outer loop
    vertex -402.55646866934404 25.69999999999907 286.8000002000601
    vertex -403.0014408126181 26.699999999999065 286.22010121273775
    vertex -402.55646866934404 26.699999999999065 286.8000002000601
  endloop
endfacet
facet normal 0.7933533402912347 2.602099457905907e-15 -0.6087614290087212
  outer loop
    vertex -403.0014408126181 26.699999999999065 286.22010121273775
    vertex -402.55646866934404 25.69999999999907 286.8000002000601
    vertex -403.0014408126181 25.69999999999907 286.22010121273775
  endloop
endfacet
facet normal 0.9914448613738106 2.2145926994001276e-15 -0.1305261922200496
  outer loop
    vertex -402.1813397999405 25.69999999999907 288.20000020006006
    vertex -402.2767474863311 26.699999999999065 287.475306873773
    vertex -402.1813397999405 26.699999999999065 288.20000020006006
  endloop
endfacet
facet normal 0.9914448613738106 2.2145926994001276e-15 -0.1305261922200496
  outer loop
    vertex -402.2767474863311 26.699999999999065 287.475306873773
    vertex -402.1813397999405 25.69999999999907 288.20000020006006
    vertex -402.2767474863311 25.69999999999907 287.475306873773
  endloop
endfacet
facet normal 0.1305261922200496 1.323760769949994e-15 0.9914448613738106
  outer loop
    vertex -404.2566464736534 26.699999999999065 290.90459251366946
    vertex -404.9813397999405 25.69999999999907 291.0000002000601
    vertex -404.2566464736534 25.69999999999907 290.90459251366946
  endloop
endfacet
facet normal 0.1305261922200496 1.323760769949994e-15 0.9914448613738106
  outer loop
    vertex -404.9813397999405 25.69999999999907 291.0000002000601
    vertex -404.2566464736534 26.699999999999065 290.90459251366946
    vertex -404.9813397999405 26.699999999999065 291.0000002000601
  endloop
endfacet
facet normal -0.3826834323650913 9.396981075385331e-16 -0.9238795325112862
  outer loop
    vertex -405.70603312622757 25.69999999999907 285.49540788645066
    vertex -406.38133979994046 26.699999999999065 285.7751290694636
    vertex -405.70603312622757 26.699999999999065 285.49540788645066
  endloop
endfacet
facet normal -0.3826834323650913 9.396981075385331e-16 -0.9238795325112862
  outer loop
    vertex -406.38133979994046 26.699999999999065 285.7751290694636
    vertex -405.70603312622757 25.69999999999907 285.49540788645066
    vertex -406.38133979994046 25.69999999999906 285.7751290694636
  endloop
endfacet
facet normal -0.7933533402912347 1.0074736037526294e-15 -0.6087614290087212
  outer loop
    vertex -406.9612387872628 25.69999999999906 286.22010121273775
    vertex -407.4062109305369 26.699999999999065 286.8000002000601
    vertex -406.9612387872628 26.699999999999065 286.22010121273775
  endloop
endfacet
facet normal -0.7933533402912347 1.0074736037526294e-15 -0.6087614290087212
  outer loop
    vertex -407.4062109305369 26.699999999999065 286.8000002000601
    vertex -406.9612387872628 25.69999999999906 286.22010121273775
    vertex -407.4062109305369 25.69999999999906 286.8000002000601
  endloop
endfacet
facet normal 0.9238795325112872 2.0571073935645663e-15 0.38268343236508906
  outer loop
    vertex -402.55646866934404 25.69999999999907 289.6000002000601
    vertex -402.2767474863311 26.699999999999065 288.92469352634714
    vertex -402.55646866934404 26.699999999999065 289.6000002000601
  endloop
endfacet
facet normal 0.9238795325112872 2.0571073935645663e-15 0.38268343236508906
  outer loop
    vertex -402.2767474863311 26.699999999999065 288.92469352634714
    vertex -402.55646866934404 25.69999999999907 289.6000002000601
    vertex -402.2767474863311 25.69999999999907 288.92469352634714
  endloop
endfacet
facet normal 0.7933533402912344 2.5961889746520716e-15 0.6087614290087218
  outer loop
    vertex -403.0014408126181 25.69999999999907 290.1798991873824
    vertex -402.55646866934404 26.699999999999065 289.6000002000601
    vertex -403.0014408126181 26.699999999999065 290.1798991873824
  endloop
endfacet
facet normal 0.7933533402912344 2.5961889746520716e-15 0.6087614290087218
  outer loop
    vertex -402.55646866934404 26.699999999999065 289.6000002000601
    vertex -403.0014408126181 25.69999999999907 290.1798991873824
    vertex -402.55646866934404 25.69999999999907 289.6000002000601
  endloop
endfacet
facet normal 0.9914448613738106 2.20624716888278e-15 0.13052619222005013
  outer loop
    vertex -402.2767474863311 25.69999999999907 288.92469352634714
    vertex -402.1813397999405 26.699999999999065 288.20000020006006
    vertex -402.2767474863311 26.699999999999065 288.92469352634714
  endloop
endfacet
facet normal 0.9914448613738106 2.20624716888278e-15 0.13052619222005013
  outer loop
    vertex -402.1813397999405 26.699999999999065 288.20000020006006
    vertex -402.2767474863311 25.69999999999907 288.92469352634714
    vertex -402.1813397999405 25.69999999999907 288.20000020006006
  endloop
endfacet
facet normal -0.13052619222004905 1.069932022839709e-15 0.9914448613738107
  outer loop
    vertex -404.9813397999405 26.699999999999065 291.0000002000601
    vertex -405.70603312622757 25.69999999999907 290.90459251366946
    vertex -404.9813397999405 25.69999999999907 291.0000002000601
  endloop
endfacet
facet normal -0.13052619222004905 1.069932022839709e-15 0.9914448613738107
  outer loop
    vertex -405.70603312622757 25.69999999999907 290.90459251366946
    vertex -404.9813397999405 26.699999999999065 291.0000002000601
    vertex -405.70603312622757 26.699999999999065 290.90459251366946
  endloop
endfacet
facet normal -0.793353340291235 9.1605600390626e-16 0.6087614290087209
  outer loop
    vertex -407.4062109305369 25.69999999999906 289.6000002000601
    vertex -406.9612387872628 26.699999999999065 290.1798991873824
    vertex -407.4062109305369 26.699999999999065 289.6000002000601
  endloop
endfacet
facet normal -0.793353340291235 9.1605600390626e-16 0.6087614290087209
  outer loop
    vertex -406.9612387872628 26.699999999999065 290.1798991873824
    vertex -407.4062109305369 25.69999999999906 289.6000002000601
    vertex -406.9612387872628 25.69999999999906 290.1798991873824
  endloop
endfacet
facet normal -0.6087614290087213 9.93829620472722e-16 0.7933533402912348
  outer loop
    vertex -406.9612387872628 26.699999999999065 290.1798991873824
    vertex -406.38133979994046 25.69999999999906 290.6248713306565
    vertex -406.38133979994046 26.699999999999065 290.62487133065645
  endloop
endfacet
facet normal -0.6087614290087213 9.93829620472722e-16 0.7933533402912348
  outer loop
    vertex -406.38133979994046 25.69999999999906 290.6248713306565
    vertex -406.9612387872628 26.699999999999065 290.1798991873824
    vertex -406.9612387872628 25.69999999999906 290.1798991873824
  endloop
endfacet
facet normal 0.38268343236508917 1.5948277812917332e-15 -0.923879532511287
  outer loop
    vertex -404.2566464736534 25.69999999999907 285.49540788645066
    vertex -403.5813397999405 26.699999999999065 285.7751290694636
    vertex -403.5813397999405 25.69999999999907 285.7751290694636
  endloop
endfacet
facet normal 0.38268343236508917 1.5948277812917332e-15 -0.923879532511287
  outer loop
    vertex -403.5813397999405 26.699999999999065 285.7751290694636
    vertex -404.2566464736534 25.69999999999907 285.49540788645066
    vertex -404.2566464736534 26.699999999999065 285.49540788645066
  endloop
endfacet
facet normal -0.3826834323650893 7.562599673815659e-16 0.9238795325112868
  outer loop
    vertex -406.38133979994046 26.699999999999065 290.62487133065645
    vertex -405.70603312622757 25.69999999999907 290.90459251366946
    vertex -405.70603312622757 26.699999999999065 290.90459251366946
  endloop
endfacet
facet normal -0.3826834323650893 7.562599673815659e-16 0.9238795325112868
  outer loop
    vertex -405.70603312622757 25.69999999999907 290.90459251366946
    vertex -406.38133979994046 26.699999999999065 290.62487133065645
    vertex -406.38133979994046 25.69999999999906 290.6248713306565
  endloop
endfacet
facet normal 0.3826834323650909 1.5265399824149596e-15 0.9238795325112863
  outer loop
    vertex -403.5813397999405 26.699999999999065 290.62487133065645
    vertex -404.2566464736534 25.69999999999907 290.90459251366946
    vertex -403.58133979994045 25.69999999999907 290.62487133065645
  endloop
endfacet
facet normal 0.3826834323650909 1.5265399824149596e-15 0.9238795325112863
  outer loop
    vertex -404.2566464736534 25.69999999999907 290.90459251366946
    vertex -403.5813397999405 26.699999999999065 290.62487133065645
    vertex -404.2566464736534 26.699999999999065 290.90459251366946
  endloop
endfacet
facet normal -0.9914448613738106 2.84774295160101e-16 0.1305261922200504
  outer loop
    vertex -407.78133979994044 25.69999999999906 288.20000020006006
    vertex -407.6859321135499 26.699999999999065 288.92469352634714
    vertex -407.78133979994044 26.69999999999906 288.20000020006006
  endloop
endfacet
facet normal -0.9914448613738106 2.84774295160101e-16 0.1305261922200504
  outer loop
    vertex -407.6859321135499 26.699999999999065 288.92469352634714
    vertex -407.78133979994044 25.69999999999906 288.20000020006006
    vertex -407.6859321135499 25.69999999999906 288.92469352634714
  endloop
endfacet
facet normal 0.9238795325112865 2.075592886331479e-15 -0.38268343236509067
  outer loop
    vertex -402.2767474863311 25.69999999999907 287.475306873773
    vertex -402.55646866934404 26.699999999999065 286.8000002000601
    vertex -402.2767474863311 26.699999999999065 287.475306873773
  endloop
endfacet
facet normal 0.9238795325112865 2.075592886331479e-15 -0.38268343236509067
  outer loop
    vertex -402.55646866934404 26.699999999999065 286.8000002000601
    vertex -402.2767474863311 25.69999999999907 287.475306873773
    vertex -402.55646866934404 25.69999999999907 286.8000002000601
  endloop
endfacet
facet normal -0.1305261922200504 1.175606224610234e-15 -0.9914448613738106
  outer loop
    vertex -405.70603312622757 25.69999999999907 285.49540788645066
    vertex -404.9813397999405 26.699999999999065 285.4000002000601
    vertex -404.9813397999405 25.69999999999907 285.4000002000601
  endloop
endfacet
facet normal -0.1305261922200504 1.175606224610234e-15 -0.9914448613738106
  outer loop
    vertex -404.9813397999405 26.699999999999065 285.4000002000601
    vertex -405.70603312622757 25.69999999999907 285.49540788645066
    vertex -405.70603312622757 26.699999999999065 285.49540788645066
  endloop
endfacet
facet normal 0.6087614290087218 2.4849719377217546e-15 -0.7933533402912344
  outer loop
    vertex -403.5813397999405 25.69999999999907 285.7751290694636
    vertex -403.0014408126181 26.699999999999065 286.22010121273775
    vertex -403.0014408126181 25.69999999999907 286.22010121273775
  endloop
endfacet
facet normal 0.6087614290087218 2.4849719377217546e-15 -0.7933533402912344
  outer loop
    vertex -403.0014408126181 26.699999999999065 286.22010121273775
    vertex -403.5813397999405 25.69999999999907 285.7751290694636
    vertex -403.5813397999405 26.699999999999065 285.7751290694636
  endloop
endfacet
facet normal 0.6087614290087211 2.4217754592194996e-15 0.7933533402912349
  outer loop
    vertex -403.0014408126181 26.699999999999065 290.1798991873824
    vertex -403.58133979994045 25.69999999999907 290.62487133065645
    vertex -403.0014408126181 25.69999999999907 290.1798991873824
  endloop
endfacet
facet normal 0.6087614290087211 2.4217754592194996e-15 0.7933533402912349
  outer loop
    vertex -403.58133979994045 25.69999999999907 290.62487133065645
    vertex -403.0014408126181 26.699999999999065 290.1798991873824
    vertex -403.5813397999405 26.699999999999065 290.62487133065645
  endloop
endfacet
facet normal -0.9238795325112873 2.992864141636434e-16 -0.3826834323650889
  outer loop
    vertex -407.4062109305369 25.69999999999906 286.8000002000601
    vertex -407.6859321135499 26.699999999999065 287.475306873773
    vertex -407.4062109305369 26.699999999999065 286.8000002000601
  endloop
endfacet
facet normal -0.9238795325112873 2.992864141636434e-16 -0.3826834323650889
  outer loop
    vertex -407.6859321135499 26.699999999999065 287.475306873773
    vertex -407.4062109305369 25.69999999999906 286.8000002000601
    vertex -407.6859321135499 25.69999999999906 287.475306873773
  endloop
endfacet
facet normal 9.71445146547012e-16 -1.0 -4.8572257327350685e-17
  outer loop
    vertex -404.07547314208165 24.699999999999065 284.8192598080483
    vertex -405.8872064577993 24.699999999999065 284.8192598080483
    vertex -404.9813397999405 24.699999999999065 284.70000020006006
  endloop
endfacet
facet normal 9.71445146547012e-16 -1.0 -4.8572257327350685e-17
  outer loop
    vertex -405.8872064577993 24.699999999999065 284.8192598080483
    vertex -404.07547314208165 24.699999999999065 284.8192598080483
    vertex -403.2313397999405 24.699999999999065 285.16891128681453
  endloop
endfacet
facet normal 9.71445146547012e-16 -1.0 -4.8572257327350685e-17
  outer loop
    vertex -405.8872064577993 24.699999999999065 284.8192598080483
    vertex -403.2313397999405 24.699999999999065 285.16891128681453
    vertex -406.7313397999405 24.699999999999065 285.16891128681453
  endloop
endfacet
facet normal 9.71445146547012e-16 -1.0 -4.8572257327350685e-17
  outer loop
    vertex -406.7313397999405 24.699999999999065 285.16891128681453
    vertex -403.2313397999405 24.699999999999065 285.16891128681453
    vertex -402.50646606578755 24.69999999999907 285.7251264659071
  endloop
endfacet
facet normal 9.71445146547012e-16 -1.0 -4.8572257327350685e-17
  outer loop
    vertex -406.7313397999405 24.699999999999065 285.16891128681453
    vertex -402.50646606578755 24.69999999999907 285.7251264659071
    vertex -407.45621353409337 24.699999999999065 285.7251264659071
  endloop
endfacet
facet normal 9.71445146547012e-16 -1.0 -4.8572257327350685e-17
  outer loop
    vertex -407.45621353409337 24.699999999999065 285.7251264659071
    vertex -402.50646606578755 24.69999999999907 285.7251264659071
    vertex -401.95025088669496 24.69999999999907 286.45000020006006
  endloop
endfacet
facet normal 9.71445146547012e-16 -1.0 -4.8572257327350685e-17
  outer loop
    vertex -407.45621353409337 24.699999999999065 285.7251264659071
    vertex -401.95025088669496 24.69999999999907 286.45000020006006
    vertex -408.012428713186 24.699999999999065 286.45000020006006
  endloop
endfacet
facet normal 9.71445146547012e-16 -1.0 -4.8572257327350685e-17
  outer loop
    vertex -408.012428713186 24.699999999999065 286.45000020006006
    vertex -401.95025088669496 24.69999999999907 286.45000020006006
    vertex -401.6005994079287 24.69999999999907 287.2941335422013
  endloop
endfacet
facet normal 9.71445146547012e-16 -1.0 -4.8572257327350685e-17
  outer loop
    vertex -408.012428713186 24.699999999999065 286.45000020006006
    vertex -401.6005994079287 24.69999999999907 287.2941335422013
    vertex -404.9813397999405 24.699999999999065 287.0000002000601
  endloop
endfacet
facet normal 9.71445146547012e-16 -1.0 -4.8572257327350685e-17
  outer loop
    vertex -404.9813397999405 24.699999999999065 287.0000002000601
    vertex -401.6005994079287 24.69999999999907 287.2941335422013
    vertex -404.67075694581746 24.699999999999065 287.0408892085132
  endloop
endfacet
facet normal 9.71445146547012e-16 -1.0 -4.8572257327350685e-17
  outer loop
    vertex -404.67075694581746 24.699999999999065 287.0408892085132
    vertex -401.6005994079287 24.69999999999907 287.2941335422013
    vertex -404.3813397999405 24.699999999999065 287.1607697155187
  endloop
endfacet
facet normal 9.71445146547012e-16 -1.0 -4.8572257327350685e-17
  outer loop
    vertex -404.3813397999405 24.699999999999065 287.1607697155187
    vertex -401.6005994079287 24.69999999999907 287.2941335422013
    vertex -404.1328116625166 24.699999999999065 287.35147206263616
  endloop
endfacet
facet normal 9.71445146547012e-16 -1.0 -4.8572257327350685e-17
  outer loop
    vertex -404.1328116625166 24.699999999999065 287.35147206263616
    vertex -401.6005994079287 24.69999999999907 287.2941335422013
    vertex -401.4813397999405 24.69999999999907 288.20000020006006
  endloop
endfacet
facet normal 9.71445146547012e-16 -1.0 -4.8572257327350685e-17
  outer loop
    vertex -404.1328116625166 24.699999999999065 287.35147206263616
    vertex -401.4813397999405 24.69999999999907 288.20000020006006
    vertex -403.94210931539914 24.699999999999065 287.6000002000601
  endloop
endfacet
facet normal 9.71445146547012e-16 -1.0 -4.8572257327350685e-17
  outer loop
    vertex -403.94210931539914 24.699999999999065 287.6000002000601
    vertex -401.4813397999405 24.69999999999907 288.20000020006006
    vertex -403.8222288083936 24.699999999999065 287.88941734593703
  endloop
endfacet
facet normal 9.71445146547012e-16 -1.0 -4.8572257327350685e-17
  outer loop
    vertex -403.8222288083936 24.699999999999065 287.88941734593703
    vertex -401.4813397999405 24.69999999999907 288.20000020006006
    vertex -403.78133979994044 24.699999999999065 288.20000020006006
  endloop
endfacet
facet normal 9.71445146547012e-16 -1.0 -4.8572257327350685e-17
  outer loop
    vertex -403.78133979994044 24.699999999999065 288.20000020006006
    vertex -401.4813397999405 24.69999999999907 288.20000020006006
    vertex -403.8222288083936 24.699999999999065 288.5105830541831
  endloop
endfacet
facet normal 9.71445146547012e-16 -1.0 -4.8572257327350685e-17
  outer loop
    vertex -403.8222288083936 24.699999999999065 288.5105830541831
    vertex -401.4813397999405 24.69999999999907 288.20000020006006
    vertex -401.6005994079287 24.69999999999907 289.10586685791884
  endloop
endfacet
facet normal 9.71445146547012e-16 -1.0 -4.8572257327350685e-17
  outer loop
    vertex -403.8222288083936 24.699999999999065 288.5105830541831
    vertex -401.6005994079287 24.69999999999907 289.10586685791884
    vertex -403.94210931539914 24.699999999999065 288.8000002000601
  endloop
endfacet
facet normal 9.71445146547012e-16 -1.0 -4.8572257327350685e-17
  outer loop
    vertex -403.94210931539914 24.699999999999065 288.8000002000601
    vertex -401.6005994079287 24.69999999999907 289.10586685791884
    vertex -404.1328116625166 24.699999999999065 289.0485283374839
  endloop
endfacet
facet normal 9.71445146547012e-16 -1.0 -4.8572257327350685e-17
  outer loop
    vertex -404.1328116625166 24.699999999999065 289.0485283374839
    vertex -401.6005994079287 24.69999999999907 289.10586685791884
    vertex -404.3813397999405 24.699999999999065 289.23923068460135
  endloop
endfacet
facet normal 9.71445146547012e-16 -1.0 -4.8572257327350685e-17
  outer loop
    vertex -404.3813397999405 24.699999999999065 289.23923068460135
    vertex -401.6005994079287 24.69999999999907 289.10586685791884
    vertex -401.95025088669496 24.69999999999907 289.95000020006006
  endloop
endfacet
facet normal 9.71445146547012e-16 -1.0 -4.8572257327350685e-17
  outer loop
    vertex -404.3813397999405 24.699999999999065 289.23923068460135
    vertex -401.95025088669496 24.69999999999907 289.95000020006006
    vertex -404.67075694581746 24.699999999999065 289.359111191607
  endloop
endfacet
facet normal 9.71445146547012e-16 -1.0 -4.8572257327350685e-17
  outer loop
    vertex -404.67075694581746 24.699999999999065 289.359111191607
    vertex -401.95025088669496 24.69999999999907 289.95000020006006
    vertex -404.9813397999405 24.699999999999065 289.40000020006005
  endloop
endfacet
facet normal 9.71445146547012e-16 -1.0 -4.8572257327350685e-17
  outer loop
    vertex -404.9813397999405 24.699999999999065 287.0000002000601
    vertex -408.3620801919522 24.699999999999065 287.2941335422013
    vertex -408.012428713186 24.699999999999065 286.45000020006006
  endloop
endfacet
facet normal 9.71445146547012e-16 -1.0 -4.8572257327350685e-17
  outer loop
    vertex -408.3620801919522 24.699999999999065 287.2941335422013
    vertex -404.9813397999405 24.699999999999065 287.0000002000601
    vertex -405.2919226540635 24.699999999999065 287.0408892085132
  endloop
endfacet
facet normal 9.71445146547012e-16 -1.0 -4.8572257327350685e-17
  outer loop
    vertex -408.3620801919522 24.699999999999065 287.2941335422013
    vertex -405.2919226540635 24.699999999999065 287.0408892085132
    vertex -405.5813397999405 24.699999999999065 287.1607697155187
  endloop
endfacet
facet normal 9.71445146547012e-16 -1.0 -4.8572257327350685e-17
  outer loop
    vertex -408.3620801919522 24.699999999999065 287.2941335422013
    vertex -405.5813397999405 24.699999999999065 287.1607697155187
    vertex -405.8298679373643 24.699999999999065 287.35147206263616
  endloop
endfacet
facet normal 9.71445146547012e-16 -1.0 -4.8572257327350685e-17
  outer loop
    vertex -408.3620801919522 24.699999999999065 287.2941335422013
    vertex -405.8298679373643 24.699999999999065 287.35147206263616
    vertex -408.4813397999405 24.699999999999065 288.20000020006006
  endloop
endfacet
facet normal 9.71445146547012e-16 -1.0 -4.8572257327350685e-17
  outer loop
    vertex -408.4813397999405 24.699999999999065 288.20000020006006
    vertex -405.8298679373643 24.699999999999065 287.35147206263616
    vertex -406.0205702844818 24.699999999999065 287.6000002000601
  endloop
endfacet
facet normal 9.71445146547012e-16 -1.0 -4.8572257327350685e-17
  outer loop
    vertex -408.4813397999405 24.699999999999065 288.20000020006006
    vertex -406.0205702844818 24.699999999999065 287.6000002000601
    vertex -406.14045079148735 24.699999999999065 287.88941734593703
  endloop
endfacet
facet normal 9.71445146547012e-16 -1.0 -4.8572257327350685e-17
  outer loop
    vertex -408.4813397999405 24.699999999999065 288.20000020006006
    vertex -406.14045079148735 24.699999999999065 287.88941734593703
    vertex -406.1813397999405 24.699999999999065 288.20000020006006
  endloop
endfacet
facet normal 9.71445146547012e-16 -1.0 -4.8572257327350685e-17
  outer loop
    vertex -408.4813397999405 24.699999999999065 288.20000020006006
    vertex -406.1813397999405 24.699999999999065 288.20000020006006
    vertex -408.3620801919522 24.699999999999065 289.1058668579189
  endloop
endfacet
facet normal 9.71445146547012e-16 -1.0 -4.8572257327350685e-17
  outer loop
    vertex -408.3620801919522 24.699999999999065 289.1058668579189
    vertex -406.1813397999405 24.699999999999065 288.20000020006006
    vertex -406.14045079148735 24.699999999999065 288.5105830541831
  endloop
endfacet
facet normal 9.71445146547012e-16 -1.0 -4.8572257327350685e-17
  outer loop
    vertex -408.3620801919522 24.699999999999065 289.1058668579189
    vertex -406.14045079148735 24.699999999999065 288.5105830541831
    vertex -406.0205702844818 24.699999999999065 288.8000002000601
  endloop
endfacet
facet normal 9.71445146547012e-16 -1.0 -4.8572257327350685e-17
  outer loop
    vertex -408.3620801919522 24.699999999999065 289.1058668579189
    vertex -406.0205702844818 24.699999999999065 288.8000002000601
    vertex -405.8298679373643 24.699999999999065 289.0485283374839
  endloop
endfacet
facet normal 9.71445146547012e-16 -1.0 -4.8572257327350685e-17
  outer loop
    vertex -408.3620801919522 24.699999999999065 289.1058668579189
    vertex -405.8298679373643 24.699999999999065 289.0485283374839
    vertex -405.5813397999405 24.699999999999065 289.23923068460135
  endloop
endfacet
facet normal 9.71445146547012e-16 -1.0 -4.8572257327350685e-17
  outer loop
    vertex -408.3620801919522 24.699999999999065 289.1058668579189
    vertex -405.5813397999405 24.699999999999065 289.23923068460135
    vertex -408.012428713186 24.699999999999065 289.95000020006006
  endloop
endfacet
facet normal 9.71445146547012e-16 -1.0 -4.8572257327350685e-17
  outer loop
    vertex -408.012428713186 24.699999999999065 289.95000020006006
    vertex -405.5813397999405 24.699999999999065 289.23923068460135
    vertex -405.2919226540635 24.699999999999065 289.359111191607
  endloop
endfacet
facet normal 9.71445146547012e-16 -1.0 -4.8572257327350685e-17
  outer loop
    vertex -408.012428713186 24.699999999999065 289.95000020006006
    vertex -405.2919226540635 24.699999999999065 289.359111191607
    vertex -404.9813397999405 24.699999999999065 289.40000020006005
  endloop
endfacet
facet normal 9.71445146547012e-16 -1.0 -4.8572257327350685e-17
  outer loop
    vertex -408.012428713186 24.699999999999065 289.95000020006006
    vertex -404.9813397999405 24.699999999999065 289.40000020006005
    vertex -401.95025088669496 24.69999999999907 289.95000020006006
  endloop
endfacet
facet normal 9.71445146547012e-16 -1.0 -4.8572257327350685e-17
  outer loop
    vertex -408.012428713186 24.699999999999065 289.95000020006006
    vertex -401.95025088669496 24.69999999999907 289.95000020006006
    vertex -402.50646606578755 24.69999999999907 290.674873934213
  endloop
endfacet
facet normal 9.71445146547012e-16 -1.0 -4.8572257327350685e-17
  outer loop
    vertex -408.012428713186 24.699999999999065 289.95000020006006
    vertex -402.50646606578755 24.69999999999907 290.674873934213
    vertex -407.45621353409337 24.699999999999065 290.674873934213
  endloop
endfacet
facet normal 9.71445146547012e-16 -1.0 -4.8572257327350685e-17
  outer loop
    vertex -407.45621353409337 24.699999999999065 290.674873934213
    vertex -402.50646606578755 24.69999999999907 290.674873934213
    vertex -403.2313397999405 24.699999999999065 291.2310891133056
  endloop
endfacet
facet normal 9.71445146547012e-16 -1.0 -4.8572257327350685e-17
  outer loop
    vertex -407.45621353409337 24.699999999999065 290.674873934213
    vertex -403.2313397999405 24.699999999999065 291.2310891133056
    vertex -406.7313397999405 24.699999999999065 291.2310891133056
  endloop
endfacet
facet normal 9.71445146547012e-16 -1.0 -4.8572257327350685e-17
  outer loop
    vertex -406.7313397999405 24.699999999999065 291.2310891133056
    vertex -403.2313397999405 24.699999999999065 291.2310891133056
    vertex -404.07547314208165 24.699999999999065 291.5807405920718
  endloop
endfacet
facet normal 9.71445146547012e-16 -1.0 -4.8572257327350685e-17
  outer loop
    vertex -406.7313397999405 24.699999999999065 291.2310891133056
    vertex -404.07547314208165 24.699999999999065 291.5807405920718
    vertex -405.88720645779927 24.699999999999065 291.5807405920718
  endloop
endfacet
facet normal 9.71445146547012e-16 -1.0 -4.8572257327350685e-17
  outer loop
    vertex -405.88720645779927 24.699999999999065 291.5807405920718
    vertex -404.07547314208165 24.699999999999065 291.5807405920718
    vertex -404.9813397999405 24.699999999999065 291.70000020006006
  endloop
endfacet
facet normal 0.9914448613738105 9.567943468540917e-16 0.13052619222005102
  outer loop
    vertex -406.1813397999405 24.699999999999065 288.20000020006006
    vertex -406.14045079148735 27.699999999999065 287.88941734593703
    vertex -406.1813397999405 27.699999999999065 288.20000020006006
  endloop
endfacet
facet normal 0.9914448613738105 9.567943468540917e-16 0.13052619222005102
  outer loop
    vertex -406.14045079148735 27.699999999999065 287.88941734593703
    vertex -406.1813397999405 24.699999999999065 288.20000020006006
    vertex -406.14045079148735 24.699999999999065 287.88941734593703
  endloop
endfacet
facet normal -0.9238795325112872 -8.789104897004613e-16 -0.38268343236508906
  outer loop
    vertex -403.8222288083936 24.699999999999065 288.5105830541831
    vertex -403.94210931539914 27.69999999999907 288.8000002000601
    vertex -403.8222288083936 27.69999999999907 288.5105830541831
  endloop
endfacet
facet normal -0.9238795325112872 -8.789104897004613e-16 -0.38268343236508906
  outer loop
    vertex -403.94210931539914 27.69999999999907 288.8000002000601
    vertex -403.8222288083936 24.699999999999065 288.5105830541831
    vertex -403.94210931539914 24.699999999999065 288.8000002000601
  endloop
endfacet
facet normal -0.6087614290087209 -5.528433730194061e-16 -0.7933533402912352
  outer loop
    vertex -404.3813397999405 24.699999999999065 289.23923068460135
    vertex -404.1328116625166 27.69999999999907 289.0485283374839
    vertex -404.1328116625166 24.699999999999065 289.0485283374839
  endloop
endfacet
facet normal -0.6087614290087209 -5.528433730194061e-16 -0.7933533402912352
  outer loop
    vertex -404.1328116625166 27.69999999999907 289.0485283374839
    vertex -404.3813397999405 24.699999999999065 289.23923068460135
    vertex -404.3813397999405 27.699999999999065 289.23923068460135
  endloop
endfacet
facet normal -0.38268343236509067 -3.268810486424084e-16 -0.9238795325112865
  outer loop
    vertex -404.67075694581746 24.699999999999065 289.359111191607
    vertex -404.3813397999405 27.699999999999065 289.23923068460135
    vertex -404.3813397999405 24.699999999999065 289.23923068460135
  endloop
endfacet
facet normal -0.38268343236509067 -3.268810486424084e-16 -0.9238795325112865
  outer loop
    vertex -404.3813397999405 27.699999999999065 289.23923068460135
    vertex -404.67075694581746 24.699999999999065 289.359111191607
    vertex -404.67075694581746 27.699999999999065 289.359111191607
  endloop
endfacet
facet normal -9.71445146547012e-16 1.0 4.8572257327350685e-17
  outer loop
    vertex -408.3620801919522 27.699999999999065 287.2941335422013
    vertex -404.9813397999405 27.699999999999065 287.0000002000601
    vertex -408.012428713186 27.699999999999065 286.45000020006006
  endloop
endfacet
facet normal -9.71445146547012e-16 1.0 4.8572257327350685e-17
  outer loop
    vertex -404.9813397999405 27.699999999999065 287.0000002000601
    vertex -408.3620801919522 27.699999999999065 287.2941335422013
    vertex -405.2919226540635 27.699999999999065 287.0408892085132
  endloop
endfacet
facet normal -9.71445146547012e-16 1.0 4.8572257327350685e-17
  outer loop
    vertex -405.2919226540635 27.699999999999065 287.0408892085132
    vertex -408.3620801919522 27.699999999999065 287.2941335422013
    vertex -405.5813397999405 27.699999999999065 287.1607697155187
  endloop
endfacet
facet normal -9.71445146547012e-16 1.0 4.8572257327350685e-17
  outer loop
    vertex -405.5813397999405 27.699999999999065 287.1607697155187
    vertex -408.3620801919522 27.699999999999065 287.2941335422013
    vertex -405.8298679373643 27.699999999999065 287.35147206263616
  endloop
endfacet
facet normal -9.71445146547012e-16 1.0 4.8572257327350685e-17
  outer loop
    vertex -405.8298679373643 27.699999999999065 287.35147206263616
    vertex -408.3620801919522 27.699999999999065 287.2941335422013
    vertex -408.4813397999405 27.699999999999065 288.20000020006006
  endloop
endfacet
facet normal -9.71445146547012e-16 1.0 4.8572257327350685e-17
  outer loop
    vertex -405.8298679373643 27.699999999999065 287.35147206263616
    vertex -408.4813397999405 27.699999999999065 288.20000020006006
    vertex -406.0205702844818 27.699999999999065 287.6000002000601
  endloop
endfacet
facet normal -9.71445146547012e-16 1.0 4.8572257327350685e-17
  outer loop
    vertex -406.0205702844818 27.699999999999065 287.6000002000601
    vertex -408.4813397999405 27.699999999999065 288.20000020006006
    vertex -406.14045079148735 27.699999999999065 287.88941734593703
  endloop
endfacet
facet normal -9.71445146547012e-16 1.0 4.8572257327350685e-17
  outer loop
    vertex -406.14045079148735 27.699999999999065 287.88941734593703
    vertex -408.4813397999405 27.699999999999065 288.20000020006006
    vertex -406.1813397999405 27.699999999999065 288.20000020006006
  endloop
endfacet
facet normal -9.71445146547012e-16 1.0 4.8572257327350685e-17
  outer loop
    vertex -406.1813397999405 27.699999999999065 288.20000020006006
    vertex -408.4813397999405 27.699999999999065 288.20000020006006
    vertex -408.3620801919522 27.699999999999065 289.1058668579189
  endloop
endfacet
facet normal -9.71445146547012e-16 1.0 4.8572257327350685e-17
  outer loop
    vertex -406.1813397999405 27.699999999999065 288.20000020006006
    vertex -408.3620801919522 27.699999999999065 289.1058668579189
    vertex -406.14045079148735 27.699999999999065 288.5105830541831
  endloop
endfacet
facet normal -9.71445146547012e-16 1.0 4.8572257327350685e-17
  outer loop
    vertex -406.14045079148735 27.699999999999065 288.5105830541831
    vertex -408.3620801919522 27.699999999999065 289.1058668579189
    vertex -406.0205702844818 27.699999999999065 288.8000002000601
  endloop
endfacet
facet normal -9.71445146547012e-16 1.0 4.8572257327350685e-17
  outer loop
    vertex -406.0205702844818 27.699999999999065 288.8000002000601
    vertex -408.3620801919522 27.699999999999065 289.1058668579189
    vertex -405.8298679373643 27.699999999999065 289.0485283374839
  endloop
endfacet
facet normal -9.71445146547012e-16 1.0 4.8572257327350685e-17
  outer loop
    vertex -405.8298679373643 27.699999999999065 289.0485283374839
    vertex -408.3620801919522 27.699999999999065 289.1058668579189
    vertex -405.5813397999405 27.699999999999065 289.23923068460135
  endloop
endfacet
facet normal -9.71445146547012e-16 1.0 4.8572257327350685e-17
  outer loop
    vertex -405.5813397999405 27.699999999999065 289.23923068460135
    vertex -408.3620801919522 27.699999999999065 289.1058668579189
    vertex -408.012428713186 27.699999999999065 289.95000020006006
  endloop
endfacet
facet normal -9.71445146547012e-16 1.0 4.8572257327350685e-17
  outer loop
    vertex -405.5813397999405 27.699999999999065 289.23923068460135
    vertex -408.012428713186 27.699999999999065 289.95000020006006
    vertex -405.2919226540635 27.699999999999065 289.359111191607
  endloop
endfacet
facet normal -9.71445146547012e-16 1.0 4.8572257327350685e-17
  outer loop
    vertex -405.2919226540635 27.699999999999065 289.359111191607
    vertex -408.012428713186 27.699999999999065 289.95000020006006
    vertex -404.9813397999405 27.699999999999065 289.40000020006005
  endloop
endfacet
facet normal -9.71445146547012e-16 1.0 4.8572257327350685e-17
  outer loop
    vertex -404.9813397999405 27.699999999999065 289.40000020006005
    vertex -408.012428713186 27.699999999999065 289.95000020006006
    vertex -401.95025088669496 27.69999999999907 289.95000020006006
  endloop
endfacet
facet normal -9.71445146547012e-16 1.0 4.8572257327350685e-17
  outer loop
    vertex -401.95025088669496 27.69999999999907 289.95000020006006
    vertex -408.012428713186 27.699999999999065 289.95000020006006
    vertex -402.50646606578755 27.69999999999907 290.674873934213
  endloop
endfacet
facet normal -9.71445146547012e-16 1.0 4.8572257327350685e-17
  outer loop
    vertex -402.50646606578755 27.69999999999907 290.674873934213
    vertex -408.012428713186 27.699999999999065 289.95000020006006
    vertex -407.45621353409337 27.699999999999065 290.674873934213
  endloop
endfacet
facet normal -9.71445146547012e-16 1.0 4.8572257327350685e-17
  outer loop
    vertex -402.50646606578755 27.69999999999907 290.674873934213
    vertex -407.45621353409337 27.699999999999065 290.674873934213
    vertex -403.2313397999405 27.69999999999907 291.2310891133056
  endloop
endfacet
facet normal -9.71445146547012e-16 1.0 4.8572257327350685e-17
  outer loop
    vertex -403.2313397999405 27.69999999999907 291.2310891133056
    vertex -407.45621353409337 27.699999999999065 290.674873934213
    vertex -406.7313397999405 27.699999999999065 291.2310891133056
  endloop
endfacet
facet normal -9.71445146547012e-16 1.0 4.8572257327350685e-17
  outer loop
    vertex -403.2313397999405 27.69999999999907 291.2310891133056
    vertex -406.7313397999405 27.699999999999065 291.2310891133056
    vertex -404.07547314208165 27.699999999999065 291.5807405920718
  endloop
endfacet
facet normal -9.71445146547012e-16 1.0 4.8572257327350685e-17
  outer loop
    vertex -404.07547314208165 27.699999999999065 291.5807405920718
    vertex -406.7313397999405 27.699999999999065 291.2310891133056
    vertex -405.88720645779927 27.699999999999065 291.5807405920718
  endloop
endfacet
facet normal -9.71445146547012e-16 1.0 4.8572257327350685e-17
  outer loop
    vertex -404.07547314208165 27.699999999999065 291.5807405920718
    vertex -405.88720645779927 27.699999999999065 291.5807405920718
    vertex -404.9813397999405 27.699999999999065 291.70000020006006
  endloop
endfacet
facet normal -9.71445146547012e-16 1.0 4.8572257327350685e-17
  outer loop
    vertex -405.8872064577993 27.699999999999065 284.8192598080483
    vertex -404.07547314208165 27.69999999999907 284.8192598080483
    vertex -404.9813397999405 27.699999999999065 284.70000020006006
  endloop
endfacet
facet normal -9.71445146547012e-16 1.0 4.8572257327350685e-17
  outer loop
    vertex -404.07547314208165 27.69999999999907 284.8192598080483
    vertex -405.8872064577993 27.699999999999065 284.8192598080483
    vertex -403.2313397999405 27.69999999999907 285.16891128681453
  endloop
endfacet
facet normal -9.71445146547012e-16 1.0 4.8572257327350685e-17
  outer loop
    vertex -403.2313397999405 27.69999999999907 285.16891128681453
    vertex -405.8872064577993 27.699999999999065 284.8192598080483
    vertex -406.7313397999405 27.699999999999065 285.16891128681453
  endloop
endfacet
facet normal -9.71445146547012e-16 1.0 4.8572257327350685e-17
  outer loop
    vertex -403.2313397999405 27.69999999999907 285.16891128681453
    vertex -406.7313397999405 27.699999999999065 285.16891128681453
    vertex -402.50646606578755 27.69999999999907 285.7251264659071
  endloop
endfacet
facet normal -9.71445146547012e-16 1.0 4.8572257327350685e-17
  outer loop
    vertex -402.50646606578755 27.69999999999907 285.7251264659071
    vertex -406.7313397999405 27.699999999999065 285.16891128681453
    vertex -407.45621353409337 27.699999999999065 285.7251264659071
  endloop
endfacet
facet normal -9.71445146547012e-16 1.0 4.8572257327350685e-17
  outer loop
    vertex -402.50646606578755 27.69999999999907 285.7251264659071
    vertex -407.45621353409337 27.699999999999065 285.7251264659071
    vertex -401.95025088669496 27.69999999999907 286.45000020006006
  endloop
endfacet
facet normal -9.71445146547012e-16 1.0 4.8572257327350685e-17
  outer loop
    vertex -401.95025088669496 27.69999999999907 286.45000020006006
    vertex -407.45621353409337 27.699999999999065 285.7251264659071
    vertex -408.012428713186 27.699999999999065 286.45000020006006
  endloop
endfacet
facet normal -9.71445146547012e-16 1.0 4.8572257327350685e-17
  outer loop
    vertex -401.95025088669496 27.69999999999907 286.45000020006006
    vertex -408.012428713186 27.699999999999065 286.45000020006006
    vertex -401.6005994079287 27.69999999999907 287.2941335422013
  endloop
endfacet
facet normal -9.71445146547012e-16 1.0 4.8572257327350685e-17
  outer loop
    vertex -401.6005994079287 27.69999999999907 287.2941335422013
    vertex -408.012428713186 27.699999999999065 286.45000020006006
    vertex -404.9813397999405 27.699999999999065 287.0000002000601
  endloop
endfacet
facet normal -9.71445146547012e-16 1.0 4.8572257327350685e-17
  outer loop
    vertex -401.6005994079287 27.69999999999907 287.2941335422013
    vertex -404.9813397999405 27.699999999999065 287.0000002000601
    vertex -404.67075694581746 27.699999999999065 287.0408892085132
  endloop
endfacet
facet normal -9.71445146547012e-16 1.0 4.8572257327350685e-17
  outer loop
    vertex -401.6005994079287 27.69999999999907 287.2941335422013
    vertex -404.67075694581746 27.699999999999065 287.0408892085132
    vertex -404.3813397999405 27.699999999999065 287.1607697155187
  endloop
endfacet
facet normal -9.71445146547012e-16 1.0 4.8572257327350685e-17
  outer loop
    vertex -401.6005994079287 27.69999999999907 287.2941335422013
    vertex -404.3813397999405 27.699999999999065 287.1607697155187
    vertex -404.1328116625166 27.69999999999907 287.35147206263616
  endloop
endfacet
facet normal -9.71445146547012e-16 1.0 4.8572257327350685e-17
  outer loop
    vertex -401.6005994079287 27.69999999999907 287.2941335422013
    vertex -404.1328116625166 27.69999999999907 287.35147206263616
    vertex -401.4813397999405 27.69999999999907 288.20000020006006
  endloop
endfacet
facet normal -9.71445146547012e-16 1.0 4.8572257327350685e-17
  outer loop
    vertex -401.4813397999405 27.69999999999907 288.20000020006006
    vertex -404.1328116625166 27.69999999999907 287.35147206263616
    vertex -403.94210931539914 27.69999999999907 287.6000002000601
  endloop
endfacet
facet normal -9.71445146547012e-16 1.0 4.8572257327350685e-17
  outer loop
    vertex -401.4813397999405 27.69999999999907 288.20000020006006
    vertex -403.94210931539914 27.69999999999907 287.6000002000601
    vertex -403.8222288083936 27.69999999999907 287.88941734593703
  endloop
endfacet
facet normal -9.71445146547012e-16 1.0 4.8572257327350685e-17
  outer loop
    vertex -401.4813397999405 27.69999999999907 288.20000020006006
    vertex -403.8222288083936 27.69999999999907 287.88941734593703
    vertex -403.7813397999405 27.69999999999907 288.20000020006006
  endloop
endfacet
facet normal -9.71445146547012e-16 1.0 4.8572257327350685e-17
  outer loop
    vertex -401.4813397999405 27.69999999999907 288.20000020006006
    vertex -403.7813397999405 27.69999999999907 288.20000020006006
    vertex -403.8222288083936 27.69999999999907 288.5105830541831
  endloop
endfacet
facet normal -9.71445146547012e-16 1.0 4.8572257327350685e-17
  outer loop
    vertex -401.4813397999405 27.69999999999907 288.20000020006006
    vertex -403.8222288083936 27.69999999999907 288.5105830541831
    vertex -401.6005994079287 27.69999999999907 289.10586685791884
  endloop
endfacet
facet normal -9.71445146547012e-16 1.0 4.8572257327350685e-17
  outer loop
    vertex -401.6005994079287 27.69999999999907 289.10586685791884
    vertex -403.8222288083936 27.69999999999907 288.5105830541831
    vertex -403.94210931539914 27.69999999999907 288.8000002000601
  endloop
endfacet
facet normal -9.71445146547012e-16 1.0 4.8572257327350685e-17
  outer loop
    vertex -401.6005994079287 27.69999999999907 289.10586685791884
    vertex -403.94210931539914 27.69999999999907 288.8000002000601
    vertex -404.1328116625166 27.69999999999907 289.0485283374839
  endloop
endfacet
facet normal -9.71445146547012e-16 1.0 4.8572257327350685e-17
  outer loop
    vertex -401.6005994079287 27.69999999999907 289.10586685791884
    vertex -404.1328116625166 27.69999999999907 289.0485283374839
    vertex -404.3813397999405 27.699999999999065 289.23923068460135
  endloop
endfacet
facet normal -9.71445146547012e-16 1.0 4.8572257327350685e-17
  outer loop
    vertex -401.6005994079287 27.69999999999907 289.10586685791884
    vertex -404.3813397999405 27.699999999999065 289.23923068460135
    vertex -401.95025088669496 27.69999999999907 289.95000020006006
  endloop
endfacet
facet normal -9.71445146547012e-16 1.0 4.8572257327350685e-17
  outer loop
    vertex -401.95025088669496 27.69999999999907 289.95000020006006
    vertex -404.3813397999405 27.699999999999065 289.23923068460135
    vertex -404.67075694581746 27.699999999999065 289.359111191607
  endloop
endfacet
facet normal -9.71445146547012e-16 1.0 4.8572257327350685e-17
  outer loop
    vertex -401.95025088669496 27.69999999999907 289.95000020006006
    vertex -404.67075694581746 27.699999999999065 289.359111191607
    vertex -404.9813397999405 27.699999999999065 289.40000020006005
  endloop
endfacet
facet normal -0.9914448613738103 -9.694742504470346e-16 0.13052619222005216
  outer loop
    vertex -403.8222288083936 24.699999999999065 287.88941734593703
    vertex -403.7813397999405 27.69999999999907 288.20000020006006
    vertex -403.8222288083936 27.69999999999907 287.88941734593703
  endloop
endfacet
facet normal -0.9914448613738103 -9.694742504470346e-16 0.13052619222005216
  outer loop
    vertex -403.7813397999405 27.69999999999907 288.20000020006006
    vertex -403.8222288083936 24.699999999999065 287.88941734593703
    vertex -403.78133979994044 24.699999999999065 288.20000020006006
  endloop
endfacet
facet normal -0.7933533402912355 -7.411303351420035e-16 -0.6087614290087202
  outer loop
    vertex -403.94210931539914 24.699999999999065 288.8000002000601
    vertex -404.1328116625166 27.69999999999907 289.0485283374839
    vertex -403.94210931539914 27.69999999999907 288.8000002000601
  endloop
endfacet
facet normal -0.7933533402912355 -7.411303351420035e-16 -0.6087614290087202
  outer loop
    vertex -404.1328116625166 27.69999999999907 289.0485283374839
    vertex -403.94210931539914 24.699999999999065 288.8000002000601
    vertex -404.1328116625166 24.699999999999065 289.0485283374839
  endloop
endfacet
facet normal -0.793353340291235 -8.002681687035576e-16 0.6087614290087209
  outer loop
    vertex -404.1328116625166 24.699999999999065 287.35147206263616
    vertex -403.94210931539914 27.69999999999907 287.6000002000601
    vertex -404.1328116625166 27.69999999999907 287.35147206263616
  endloop
endfacet
facet normal -0.793353340291235 -8.002681687035576e-16 0.6087614290087209
  outer loop
    vertex -403.94210931539914 27.69999999999907 287.6000002000601
    vertex -404.1328116625166 24.699999999999065 287.35147206263616
    vertex -403.94210931539914 24.699999999999065 287.6000002000601
  endloop
endfacet
facet normal 0.1305261922200513 1.7495575086195943e-16 -0.9914448613738105
  outer loop
    vertex -405.2919226540635 24.699999999999065 289.359111191607
    vertex -404.9813397999405 27.699999999999065 289.40000020006005
    vertex -404.9813397999405 24.699999999999065 289.40000020006005
  endloop
endfacet
facet normal 0.1305261922200513 1.7495575086195943e-16 -0.9914448613738105
  outer loop
    vertex -404.9813397999405 27.699999999999065 289.40000020006005
    vertex -405.2919226540635 24.699999999999065 289.359111191607
    vertex -405.2919226540635 27.699999999999065 289.359111191607
  endloop
endfacet
facet normal 0.923879532511287 8.789104897004611e-16 0.3826834323650896
  outer loop
    vertex -406.14045079148735 24.699999999999065 287.88941734593703
    vertex -406.0205702844818 27.699999999999065 287.6000002000601
    vertex -406.14045079148735 27.699999999999065 287.88941734593703
  endloop
endfacet
facet normal 0.923879532511287 8.789104897004611e-16 0.3826834323650896
  outer loop
    vertex -406.0205702844818 27.699999999999065 287.6000002000601
    vertex -406.14045079148735 24.699999999999065 287.88941734593703
    vertex -406.0205702844818 24.699999999999065 287.6000002000601
  endloop
endfacet
facet normal 0.9914448613738103 9.694742504470346e-16 -0.13052619222005216
  outer loop
    vertex -406.14045079148735 24.699999999999065 288.5105830541831
    vertex -406.1813397999405 27.699999999999065 288.20000020006006
    vertex -406.14045079148735 27.699999999999065 288.5105830541831
  endloop
endfacet
facet normal 0.9914448613738103 9.694742504470346e-16 -0.13052619222005216
  outer loop
    vertex -406.1813397999405 27.699999999999065 288.20000020006006
    vertex -406.14045079148735 24.699999999999065 288.5105830541831
    vertex -406.1813397999405 24.699999999999065 288.20000020006006
  endloop
endfacet
facet normal 0.6087614290087209 5.528433730194061e-16 0.7933533402912352
  outer loop
    vertex -405.8298679373643 27.699999999999065 287.35147206263616
    vertex -405.5813397999405 24.699999999999065 287.1607697155187
    vertex -405.5813397999405 27.699999999999065 287.1607697155187
  endloop
endfacet
facet normal 0.6087614290087209 5.528433730194061e-16 0.7933533402912352
  outer loop
    vertex -405.5813397999405 24.699999999999065 287.1607697155187
    vertex -405.8298679373643 27.699999999999065 287.35147206263616
    vertex -405.8298679373643 24.699999999999065 287.35147206263616
  endloop
endfacet
facet normal -0.6087614290087201 -6.299132982116836e-16 0.7933533402912356
  outer loop
    vertex -404.3813397999405 27.699999999999065 287.1607697155187
    vertex -404.1328116625166 24.699999999999065 287.35147206263616
    vertex -404.1328116625166 27.69999999999907 287.35147206263616
  endloop
endfacet
facet normal -0.6087614290087201 -6.299132982116836e-16 0.7933533402912356
  outer loop
    vertex -404.1328116625166 24.699999999999065 287.35147206263616
    vertex -404.3813397999405 27.699999999999065 287.1607697155187
    vertex -404.3813397999405 24.699999999999065 287.1607697155187
  endloop
endfacet
facet normal 0.7933533402912353 7.411303351420033e-16 0.6087614290087205
  outer loop
    vertex -406.0205702844818 24.699999999999065 287.6000002000601
    vertex -405.8298679373643 27.699999999999065 287.35147206263616
    vertex -406.0205702844818 27.699999999999065 287.6000002000601
  endloop
endfacet
facet normal 0.7933533402912353 7.411303351420033e-16 0.6087614290087205
  outer loop
    vertex -405.8298679373643 27.699999999999065 287.35147206263616
    vertex -406.0205702844818 24.699999999999065 287.6000002000601
    vertex -405.8298679373643 24.699999999999065 287.35147206263616
  endloop
endfacet
facet normal 0.3826834323650898 3.2688104864240747e-16 0.923879532511287
  outer loop
    vertex -405.5813397999405 27.699999999999065 287.1607697155187
    vertex -405.2919226540635 24.699999999999065 287.0408892085132
    vertex -405.2919226540635 27.699999999999065 287.0408892085132
  endloop
endfacet
facet normal 0.3826834323650898 3.2688104864240747e-16 0.923879532511287
  outer loop
    vertex -405.2919226540635 24.699999999999065 287.0408892085132
    vertex -405.5813397999405 27.699999999999065 287.1607697155187
    vertex -405.5813397999405 24.699999999999065 287.1607697155187
  endloop
endfacet
facet normal -0.9238795325112868 -9.16086086003963e-16 0.3826834323650901
  outer loop
    vertex -403.94210931539914 24.699999999999065 287.6000002000601
    vertex -403.8222288083936 27.69999999999907 287.88941734593703
    vertex -403.94210931539914 27.69999999999907 287.6000002000601
  endloop
endfacet
facet normal -0.9238795325112868 -9.16086086003963e-16 0.3826834323650901
  outer loop
    vertex -403.8222288083936 27.69999999999907 287.88941734593703
    vertex -403.94210931539914 24.699999999999065 287.6000002000601
    vertex -403.8222288083936 24.699999999999065 287.88941734593703
  endloop
endfacet
facet normal -0.13052619222005238 -7.8642320996904e-17 -0.9914448613738103
  outer loop
    vertex -404.9813397999405 24.699999999999065 289.40000020006005
    vertex -404.67075694581746 27.699999999999065 289.359111191607
    vertex -404.67075694581746 24.699999999999065 289.359111191607
  endloop
endfacet
facet normal -0.13052619222005238 -7.8642320996904e-17 -0.9914448613738103
  outer loop
    vertex -404.67075694581746 27.699999999999065 289.359111191607
    vertex -404.9813397999405 24.699999999999065 289.40000020006005
    vertex -404.9813397999405 27.699999999999065 289.40000020006005
  endloop
endfacet
facet normal 0.6087614290087208 6.299132982116843e-16 -0.7933533402912352
  outer loop
    vertex -405.8298679373643 24.699999999999065 289.0485283374839
    vertex -405.5813397999405 27.699999999999065 289.23923068460135
    vertex -405.5813397999405 24.699999999999065 289.23923068460135
  endloop
endfacet
facet normal 0.6087614290087208 6.299132982116843e-16 -0.7933533402912352
  outer loop
    vertex -405.5813397999405 27.699999999999065 289.23923068460135
    vertex -405.8298679373643 24.699999999999065 289.0485283374839
    vertex -405.8298679373643 27.699999999999065 289.0485283374839
  endloop
endfacet
facet normal 0.13052619222005207 7.864232099690369e-17 0.9914448613738105
  outer loop
    vertex -405.2919226540635 27.699999999999065 287.0408892085132
    vertex -404.9813397999405 24.699999999999065 287.0000002000601
    vertex -404.9813397999405 27.699999999999065 287.0000002000601
  endloop
endfacet
facet normal 0.13052619222005207 7.864232099690369e-17 0.9914448613738105
  outer loop
    vertex -404.9813397999405 24.699999999999065 287.0000002000601
    vertex -405.2919226540635 27.699999999999065 287.0408892085132
    vertex -405.2919226540635 24.699999999999065 287.0408892085132
  endloop
endfacet
facet normal -0.3826834323650898 -4.1663087742762883e-16 0.9238795325112867
  outer loop
    vertex -404.67075694581746 27.699999999999065 287.0408892085132
    vertex -404.3813397999405 24.699999999999065 287.1607697155187
    vertex -404.3813397999405 27.699999999999065 287.1607697155187
  endloop
endfacet
facet normal -0.3826834323650898 -4.1663087742762883e-16 0.9238795325112867
  outer loop
    vertex -404.3813397999405 24.699999999999065 287.1607697155187
    vertex -404.67075694581746 27.699999999999065 287.0408892085132
    vertex -404.67075694581746 24.699999999999065 287.0408892085132
  endloop
endfacet
facet normal 0.38268343236508856 4.166308774276277e-16 -0.9238795325112874
  outer loop
    vertex -405.5813397999405 24.699999999999065 289.23923068460135
    vertex -405.2919226540635 27.699999999999065 289.359111191607
    vertex -405.2919226540635 24.699999999999065 289.359111191607
  endloop
endfacet
facet normal 0.38268343236508856 4.166308774276277e-16 -0.9238795325112874
  outer loop
    vertex -405.2919226540635 27.699999999999065 289.359111191607
    vertex -405.5813397999405 24.699999999999065 289.23923068460135
    vertex -405.5813397999405 27.699999999999065 289.23923068460135
  endloop
endfacet
facet normal -0.9914448613738105 -9.567943468540917e-16 -0.1305261922200513
  outer loop
    vertex -403.78133979994044 24.699999999999065 288.20000020006006
    vertex -403.8222288083936 27.69999999999907 288.5105830541831
    vertex -403.7813397999405 27.69999999999907 288.20000020006006
  endloop
endfacet
facet normal -0.9914448613738105 -9.567943468540917e-16 -0.1305261922200513
  outer loop
    vertex -403.8222288083936 27.69999999999907 288.5105830541831
    vertex -403.78133979994044 24.699999999999065 288.20000020006006
    vertex -403.8222288083936 24.699999999999065 288.5105830541831
  endloop
endfacet
facet normal 0.9238795325112865 9.160860860039625e-16 -0.38268343236509067
  outer loop
    vertex -406.0205702844818 24.699999999999065 288.8000002000601
    vertex -406.14045079148735 27.699999999999065 288.5105830541831
    vertex -406.0205702844818 27.699999999999065 288.8000002000601
  endloop
endfacet
facet normal 0.9238795325112865 9.160860860039625e-16 -0.38268343236509067
  outer loop
    vertex -406.14045079148735 27.699999999999065 288.5105830541831
    vertex -406.0205702844818 24.699999999999065 288.8000002000601
    vertex -406.14045079148735 24.699999999999065 288.5105830541831
  endloop
endfacet
facet normal -0.13052619222005102 -1.7495575086195919e-16 0.9914448613738105
  outer loop
    vertex -404.9813397999405 27.699999999999065 287.0000002000601
    vertex -404.67075694581746 24.699999999999065 287.0408892085132
    vertex -404.67075694581746 27.699999999999065 287.0408892085132
  endloop
endfacet
facet normal -0.13052619222005102 -1.7495575086195919e-16 0.9914448613738105
  outer loop
    vertex -404.67075694581746 24.699999999999065 287.0408892085132
    vertex -404.9813397999405 27.699999999999065 287.0000002000601
    vertex -404.9813397999405 24.699999999999065 287.0000002000601
  endloop
endfacet
facet normal 0.7933533402912349 8.002681687035576e-16 -0.6087614290087211
  outer loop
    vertex -405.8298679373643 24.699999999999065 289.0485283374839
    vertex -406.0205702844818 27.699999999999065 288.8000002000601
    vertex -405.8298679373643 27.699999999999065 289.0485283374839
  endloop
endfacet
facet normal 0.7933533402912349 8.002681687035576e-16 -0.6087614290087211
  outer loop
    vertex -406.0205702844818 27.699999999999065 288.8000002000601
    vertex -405.8298679373643 24.699999999999065 289.0485283374839
    vertex -406.0205702844818 24.699999999999065 288.8000002000601
  endloop
endfacet
facet normal 0.6517688105645915 0.570155772534519 -0.5001197982691584
  outer loop
    vertex -401.95025088669496 24.69999999999907 286.45000020006006
    vertex -403.0014408126181 25.69999999999907 286.22010121273775
    vertex -402.55646866934404 25.69999999999907 286.8000002000601
  endloop
endfacet
facet normal 0.6517688105645915 0.570155772534519 -0.5001197982691584
  outer loop
    vertex -403.0014408126181 25.69999999999907 286.22010121273775
    vertex -401.95025088669496 24.69999999999907 286.45000020006006
    vertex -402.50646606578755 24.69999999999907 285.7251264659071
  endloop
endfacet
facet normal -0.1072320449543441 0.5701557725345185 -0.8145082464778831
  outer loop
    vertex -405.8872064577993 24.699999999999065 284.8192598080483
    vertex -404.9813397999405 25.69999999999907 285.4000002000601
    vertex -404.9813397999405 24.699999999999065 284.70000020006006
  endloop
endfacet
facet normal -0.1072320449543441 0.5701557725345185 -0.8145082464778831
  outer loop
    vertex -404.9813397999405 25.69999999999907 285.4000002000601
    vertex -405.8872064577993 24.699999999999065 284.8192598080483
    vertex -405.70603312622757 25.69999999999907 285.49540788645066
  endloop
endfacet
facet normal 0.10723204495434252 0.5701557725345187 -0.8145082464778832
  outer loop
    vertex -404.9813397999405 24.699999999999065 284.70000020006006
    vertex -404.2566464736534 25.69999999999907 285.49540788645066
    vertex -404.07547314208165 24.699999999999065 284.8192598080483
  endloop
endfacet
facet normal 0.10723204495434252 0.5701557725345187 -0.8145082464778832
  outer loop
    vertex -404.2566464736534 25.69999999999907 285.49540788645066
    vertex -404.9813397999405 24.699999999999065 284.70000020006006
    vertex -404.9813397999405 25.69999999999907 285.4000002000601
  endloop
endfacet
facet normal -0.10723204495434299 0.5701557725345183 0.8145082464778833
  outer loop
    vertex -405.70603312622757 25.69999999999907 290.90459251366946
    vertex -404.9813397999405 24.699999999999065 291.70000020006006
    vertex -404.9813397999405 25.69999999999907 291.0000002000601
  endloop
endfacet
facet normal -0.10723204495434299 0.5701557725345183 0.8145082464778833
  outer loop
    vertex -404.9813397999405 24.699999999999065 291.70000020006006
    vertex -405.70603312622757 25.69999999999907 290.90459251366946
    vertex -405.88720645779927 24.699999999999065 291.5807405920718
  endloop
endfacet
facet normal -0.3143884482087253 0.5701557725345179 0.7590008555189363
  outer loop
    vertex -406.38133979994046 25.69999999999906 290.6248713306565
    vertex -405.88720645779927 24.699999999999065 291.5807405920718
    vertex -405.70603312622757 25.69999999999907 290.90459251366946
  endloop
endfacet
facet normal -0.3143884482087253 0.5701557725345179 0.7590008555189363
  outer loop
    vertex -405.88720645779927 24.699999999999065 291.5807405920718
    vertex -406.38133979994046 25.69999999999906 290.6248713306565
    vertex -406.7313397999405 24.699999999999065 291.2310891133056
  endloop
endfacet
facet normal 0.8145082464778827 0.5701557725345194 0.10723204495434285
  outer loop
    vertex -401.6005994079287 24.69999999999907 289.10586685791884
    vertex -402.1813397999405 25.69999999999907 288.20000020006006
    vertex -402.2767474863311 25.69999999999907 288.92469352634714
  endloop
endfacet
facet normal 0.8145082464778827 0.5701557725345194 0.10723204495434285
  outer loop
    vertex -402.1813397999405 25.69999999999907 288.20000020006006
    vertex -401.6005994079287 24.69999999999907 289.10586685791884
    vertex -401.4813397999405 24.69999999999907 288.20000020006006
  endloop
endfacet
facet normal 0.7590008555189349 0.5701557725345193 -0.31438844820872563
  outer loop
    vertex -401.6005994079287 24.69999999999907 287.2941335422013
    vertex -402.55646866934404 25.69999999999907 286.8000002000601
    vertex -402.2767474863311 25.69999999999907 287.475306873773
  endloop
endfacet
facet normal 0.7590008555189349 0.5701557725345193 -0.31438844820872563
  outer loop
    vertex -402.55646866934404 25.69999999999907 286.8000002000601
    vertex -401.6005994079287 24.69999999999907 287.2941335422013
    vertex -401.95025088669496 24.69999999999907 286.45000020006006
  endloop
endfacet
facet normal 0.10723204495434391 -0.5701557725345189 0.8145082464778829
  outer loop
    vertex -404.9813397999405 27.699999999999065 291.70000020006006
    vertex -404.2566464736534 26.699999999999065 290.90459251366946
    vertex -404.07547314208165 27.699999999999065 291.5807405920718
  endloop
endfacet
facet normal 0.10723204495434391 -0.5701557725345189 0.8145082464778829
  outer loop
    vertex -404.2566464736534 26.699999999999065 290.90459251366946
    vertex -404.9813397999405 27.699999999999065 291.70000020006006
    vertex -404.9813397999405 26.699999999999065 291.0000002000601
  endloop
endfacet
facet normal -0.314388448208724 -0.5701557725345192 0.7590008555189356
  outer loop
    vertex -405.88720645779927 27.699999999999065 291.5807405920718
    vertex -406.38133979994046 26.699999999999065 290.62487133065645
    vertex -405.70603312622757 26.699999999999065 290.90459251366946
  endloop
endfacet
facet normal -0.314388448208724 -0.5701557725345192 0.7590008555189356
  outer loop
    vertex -406.38133979994046 26.699999999999065 290.62487133065645
    vertex -405.88720645779927 27.699999999999065 291.5807405920718
    vertex -406.7313397999405 27.699999999999065 291.2310891133056
  endloop
endfacet
facet normal -0.8145082464778838 0.5701557725345178 0.10723204495434385
  outer loop
    vertex -408.4813397999405 24.699999999999065 288.20000020006006
    vertex -407.6859321135499 25.69999999999906 288.92469352634714
    vertex -407.78133979994044 25.69999999999906 288.20000020006006
  endloop
endfacet
facet normal -0.8145082464778838 0.5701557725345178 0.10723204495434385
  outer loop
    vertex -407.6859321135499 25.69999999999906 288.92469352634714
    vertex -408.4813397999405 24.699999999999065 288.20000020006006
    vertex -408.3620801919522 24.699999999999065 289.1058668579189
  endloop
endfacet
facet normal -0.7590008555189369 0.5701557725345172 -0.31438844820872464
  outer loop
    vertex -408.012428713186 24.699999999999065 286.45000020006006
    vertex -407.6859321135499 25.69999999999906 287.475306873773
    vertex -407.4062109305369 25.69999999999906 286.8000002000601
  endloop
endfacet
facet normal -0.7590008555189369 0.5701557725345172 -0.31438844820872464
  outer loop
    vertex -407.6859321135499 25.69999999999906 287.475306873773
    vertex -408.012428713186 24.699999999999065 286.45000020006006
    vertex -408.3620801919522 24.699999999999065 287.2941335422013
  endloop
endfacet
facet normal 0.8145082464778834 -0.5701557725345183 0.10723204495434244
  outer loop
    vertex -402.2767474863311 26.699999999999065 288.92469352634714
    vertex -401.4813397999405 27.69999999999907 288.20000020006006
    vertex -401.6005994079287 27.69999999999907 289.10586685791884
  endloop
endfacet
facet normal 0.8145082464778834 -0.5701557725345183 0.10723204495434244
  outer loop
    vertex -401.4813397999405 27.69999999999907 288.20000020006006
    vertex -402.2767474863311 26.699999999999065 288.92469352634714
    vertex -402.1813397999405 26.699999999999065 288.20000020006006
  endloop
endfacet
facet normal 0.8145082464778827 0.5701557725345193 -0.10723204495434324
  outer loop
    vertex -401.4813397999405 24.69999999999907 288.20000020006006
    vertex -402.2767474863311 25.69999999999907 287.475306873773
    vertex -402.1813397999405 25.69999999999907 288.20000020006006
  endloop
endfacet
facet normal 0.8145082464778827 0.5701557725345193 -0.10723204495434324
  outer loop
    vertex -402.2767474863311 25.69999999999907 287.475306873773
    vertex -401.4813397999405 24.69999999999907 288.20000020006006
    vertex -401.6005994079287 24.69999999999907 287.2941335422013
  endloop
endfacet
facet normal 0.6517688105645919 -0.5701557725345185 -0.5001197982691584
  outer loop
    vertex -402.55646866934404 26.699999999999065 286.8000002000601
    vertex -402.50646606578755 27.69999999999907 285.7251264659071
    vertex -401.95025088669496 27.69999999999907 286.45000020006006
  endloop
endfacet
facet normal 0.6517688105645919 -0.5701557725345185 -0.5001197982691584
  outer loop
    vertex -402.50646606578755 27.69999999999907 285.7251264659071
    vertex -402.55646866934404 26.699999999999065 286.8000002000601
    vertex -403.0014408126181 26.699999999999065 286.22010121273775
  endloop
endfacet
facet normal 0.5001197982691579 0.5701557725345187 0.651768810564592
  outer loop
    vertex -403.0014408126181 25.69999999999907 290.1798991873824
    vertex -403.2313397999405 24.699999999999065 291.2310891133056
    vertex -402.50646606578755 24.69999999999907 290.674873934213
  endloop
endfacet
facet normal 0.5001197982691579 0.5701557725345187 0.651768810564592
  outer loop
    vertex -403.2313397999405 24.699999999999065 291.2310891133056
    vertex -403.0014408126181 25.69999999999907 290.1798991873824
    vertex -403.58133979994045 25.69999999999907 290.62487133065645
  endloop
endfacet
endsolid crane
