solid crane
facet normal -0.29982392600171587 -0.7238389884772659 0.6214199322174389
  outer loop
    vertex -171.32868765636437 -50.4868284078559 35.00000000000006
    vertex -172.09045908871056 -51.02979809712651 34.00000000000006
    vertex -171.72868765636437 -51.17964873088345 34.00000000000006
  endloop
endfacet
facet normal -0.29982392600171587 -0.7238389884772659 0.6214199322174389
  outer loop
    vertex -172.09045908871056 -51.02979809712651 34.00000000000006
    vertex -171.32868765636437 -50.4868284078559 35.00000000000006
    vertex -171.88340385262853 -50.25705743609525 35.00000000000006
  endloop
endfacet
facet normal -0.10226435765876744 -0.7767749152718002 0.6214199322174396
  outer loop
    vertex -171.88340385262853 -50.25705743609525 35.00000000000006
    vertex -172.47868765636437 -50.97868683656011 34.00000000000006
    vertex -172.09045908871056 -51.02979809712651 34.00000000000006
  endloop
endfacet
facet normal -0.10226435765876744 -0.7767749152718002 0.6214199322174396
  outer loop
    vertex -172.47868765636437 -50.97868683656011 34.00000000000006
    vertex -171.88340385262853 -50.25705743609525 35.00000000000006
    vertex -172.47868765636437 -50.17868683656011 35.00000000000006
  endloop
endfacet
facet normal 0.10226435765876757 -0.7767749152718003 0.6214199322174395
  outer loop
    vertex -172.47868765636437 -50.17868683656011 35.00000000000006
    vertex -172.86691622401813 -51.02979809712651 34.00000000000006
    vertex -172.47868765636437 -50.97868683656011 34.00000000000006
  endloop
endfacet
facet normal 0.10226435765876757 -0.7767749152718003 0.6214199322174395
  outer loop
    vertex -172.86691622401813 -51.02979809712651 34.00000000000006
    vertex -172.47868765636437 -50.17868683656011 35.00000000000006
    vertex -173.07397146010015 -50.25705743609525 35.00000000000006
  endloop
endfacet
facet normal 0.2998239260017086 -0.7238389884772668 0.6214199322174412
  outer loop
    vertex -173.07397146010015 -50.25705743609525 35.00000000000006
    vertex -173.22868765636437 -51.17964873088346 34.00000000000006
    vertex -172.86691622401813 -51.02979809712651 34.00000000000006
  endloop
endfacet
facet normal 0.2998239260017086 -0.7238389884772668 0.6214199322174412
  outer loop
    vertex -173.22868765636437 -51.17964873088346 34.00000000000006
    vertex -173.07397146010015 -50.25705743609525 35.00000000000006
    vertex -173.62868765636438 -50.4868284078559 35.00000000000006
  endloop
endfacet
facet normal 0.47695098927009266 -0.6215746308184983 0.6214199322174399
  outer loop
    vertex -173.62868765636438 -50.4868284078559 35.00000000000006
    vertex -173.53934782814417 -51.418026664780285 34.00000000000006
    vertex -173.22868765636437 -51.17964873088346 34.00000000000006
  endloop
endfacet
facet normal 0.47695098927009266 -0.6215746308184983 0.6214199322174399
  outer loop
    vertex -173.53934782814417 -51.418026664780285 34.00000000000006
    vertex -173.62868765636438 -50.4868284078559 35.00000000000006
    vertex -174.10503325309344 -50.85234123983105 35.00000000000006
  endloop
endfacet
facet normal 0.6215746308184983 -0.47695098927008983 0.6214199322174421
  outer loop
    vertex -173.53934782814417 -51.418026664780285 34.00000000000006
    vertex -174.47054608506855 -51.32868683656011 35.00000000000006
    vertex -173.777725762041 -51.72868683656011 34.00000000000006
  endloop
endfacet
facet normal 0.6215746308184983 -0.47695098927008983 0.6214199322174421
  outer loop
    vertex -174.47054608506855 -51.32868683656011 35.00000000000006
    vertex -173.53934782814417 -51.418026664780285 34.00000000000006
    vertex -174.10503325309344 -50.85234123983105 35.00000000000006
  endloop
endfacet
facet normal 0.7238389884772738 -0.29982392600169394 0.6214199322174402
  outer loop
    vertex -173.777725762041 -51.72868683656011 34.00000000000006
    vertex -174.70031705682916 -51.88340303282431 35.00000000000006
    vertex -173.92757639579798 -52.09045826890633 34.00000000000006
  endloop
endfacet
facet normal 0.7238389884772738 -0.29982392600169394 0.6214199322174402
  outer loop
    vertex -174.70031705682916 -51.88340303282431 35.00000000000006
    vertex -173.777725762041 -51.72868683656011 34.00000000000006
    vertex -174.47054608506855 -51.32868683656011 35.00000000000006
  endloop
endfacet
facet normal 0.7767749152718011 -0.10226435765877925 0.6214199322174365
  outer loop
    vertex -173.92757639579798 -52.09045826890633 34.00000000000006
    vertex -174.77868765636435 -52.47868683656011 35.00000000000006
    vertex -173.97868765636434 -52.47868683656011 34.00000000000006
  endloop
endfacet
facet normal 0.7767749152718011 -0.10226435765877925 0.6214199322174365
  outer loop
    vertex -174.77868765636435 -52.47868683656011 35.00000000000006
    vertex -173.92757639579798 -52.09045826890633 34.00000000000006
    vertex -174.70031705682916 -51.88340303282431 35.00000000000006
  endloop
endfacet
facet normal 0.7767749152718011 0.10226435765877928 0.6214199322174365
  outer loop
    vertex -173.92757639579798 -52.866915404213884 34.00000000000006
    vertex -174.77868765636435 -52.47868683656011 35.00000000000006
    vertex -174.70031705682916 -53.073970640295904 35.00000000000006
  endloop
endfacet
facet normal 0.7767749152718011 0.10226435765877928 0.6214199322174365
  outer loop
    vertex -174.77868765636435 -52.47868683656011 35.00000000000006
    vertex -173.92757639579798 -52.866915404213884 34.00000000000006
    vertex -173.97868765636434 -52.47868683656011 34.00000000000006
  endloop
endfacet
facet normal 0.7238389884772739 0.2998239260016937 0.6214199322174401
  outer loop
    vertex -173.777725762041 -53.22868683656011 34.00000000000006
    vertex -174.70031705682916 -53.073970640295904 35.00000000000006
    vertex -174.47054608506855 -53.62868683656011 35.00000000000006
  endloop
endfacet
facet normal 0.7238389884772739 0.2998239260016937 0.6214199322174401
  outer loop
    vertex -174.70031705682916 -53.073970640295904 35.00000000000006
    vertex -173.777725762041 -53.22868683656011 34.00000000000006
    vertex -173.92757639579798 -52.866915404213884 34.00000000000006
  endloop
endfacet
facet normal 0.6215746308184983 0.47695098927008983 0.6214199322174421
  outer loop
    vertex -173.53934782814417 -53.53934700833993 34.00000000000006
    vertex -174.47054608506855 -53.62868683656011 35.00000000000006
    vertex -174.10503325309344 -54.10503243328917 35.00000000000006
  endloop
endfacet
facet normal 0.6215746308184983 0.47695098927008983 0.6214199322174421
  outer loop
    vertex -174.47054608506855 -53.62868683656011 35.00000000000006
    vertex -173.53934782814417 -53.53934700833993 34.00000000000006
    vertex -173.777725762041 -53.22868683656011 34.00000000000006
  endloop
endfacet
facet normal 0.4769509892700763 0.6215746308185109 0.62141993221744
  outer loop
    vertex -174.10503325309344 -54.10503243328917 35.00000000000006
    vertex -173.22868765636434 -53.77772494223676 34.00000000000006
    vertex -173.53934782814417 -53.53934700833993 34.00000000000006
  endloop
endfacet
facet normal 0.4769509892700763 0.6215746308185109 0.62141993221744
  outer loop
    vertex -173.22868765636434 -53.77772494223676 34.00000000000006
    vertex -174.10503325309344 -54.10503243328917 35.00000000000006
    vertex -173.62868765636432 -54.47054526526431 35.00000000000006
  endloop
endfacet
facet normal 0.2998239260017209 0.7238389884772616 0.6214199322174412
  outer loop
    vertex -173.62868765636432 -54.47054526526431 35.00000000000006
    vertex -172.86691622401813 -53.927575575993714 34.00000000000006
    vertex -173.22868765636434 -53.77772494223676 34.00000000000006
  endloop
endfacet
facet normal 0.2998239260017209 0.7238389884772616 0.6214199322174412
  outer loop
    vertex -172.86691622401813 -53.927575575993714 34.00000000000006
    vertex -173.62868765636432 -54.47054526526431 35.00000000000006
    vertex -173.07397146010015 -54.700316237024964 35.00000000000006
  endloop
endfacet
facet normal 0.10226435765876754 0.7767749152718002 0.6214199322174396
  outer loop
    vertex -173.07397146010015 -54.700316237024964 35.00000000000006
    vertex -172.47868765636437 -53.97868683656011 34.00000000000006
    vertex -172.86691622401813 -53.927575575993714 34.00000000000006
  endloop
endfacet
facet normal 0.10226435765876754 0.7767749152718002 0.6214199322174396
  outer loop
    vertex -172.47868765636437 -53.97868683656011 34.00000000000006
    vertex -173.07397146010015 -54.700316237024964 35.00000000000006
    vertex -172.47868765636437 -54.778686836560105 35.00000000000006
  endloop
endfacet
facet normal -0.10226435765876754 0.7767749152718002 0.6214199322174396
  outer loop
    vertex -172.47868765636437 -54.778686836560105 35.00000000000006
    vertex -172.09045908871056 -53.927575575993714 34.00000000000006
    vertex -172.47868765636437 -53.97868683656011 34.00000000000006
  endloop
endfacet
facet normal -0.10226435765876754 0.7767749152718002 0.6214199322174396
  outer loop
    vertex -172.09045908871056 -53.927575575993714 34.00000000000006
    vertex -172.47868765636437 -54.778686836560105 35.00000000000006
    vertex -171.88340385262853 -54.700316237024964 35.00000000000006
  endloop
endfacet
facet normal -0.29982392600170865 0.7238389884772668 0.6214199322174412
  outer loop
    vertex -171.88340385262853 -54.700316237024964 35.00000000000006
    vertex -171.72868765636437 -53.77772494223676 34.00000000000006
    vertex -172.09045908871056 -53.927575575993714 34.00000000000006
  endloop
endfacet
facet normal -0.29982392600170865 0.7238389884772668 0.6214199322174412
  outer loop
    vertex -171.72868765636437 -53.77772494223676 34.00000000000006
    vertex -171.88340385262853 -54.700316237024964 35.00000000000006
    vertex -171.32868765636437 -54.47054526526431 35.00000000000006
  endloop
endfacet
facet normal -0.47695098927009266 0.6215746308184983 0.6214199322174399
  outer loop
    vertex -171.32868765636437 -54.47054526526431 35.00000000000006
    vertex -171.4180274845845 -53.53934700833993 34.00000000000006
    vertex -171.72868765636437 -53.77772494223676 34.00000000000006
  endloop
endfacet
facet normal -0.47695098927009266 0.6215746308184983 0.6214199322174399
  outer loop
    vertex -171.4180274845845 -53.53934700833993 34.00000000000006
    vertex -171.32868765636437 -54.47054526526431 35.00000000000006
    vertex -170.8523420596353 -54.10503243328917 35.00000000000006
  endloop
endfacet
facet normal -0.6215746308184983 0.47695098927008983 0.6214199322174421
  outer loop
    vertex -170.48682922766014 -53.62868683656011 35.00000000000006
    vertex -171.4180274845845 -53.53934700833993 34.00000000000006
    vertex -170.8523420596353 -54.10503243328917 35.00000000000006
  endloop
endfacet
facet normal -0.6215746308184983 0.47695098927008983 0.6214199322174421
  outer loop
    vertex -171.4180274845845 -53.53934700833993 34.00000000000006
    vertex -170.48682922766014 -53.62868683656011 35.00000000000006
    vertex -171.17964955068769 -53.22868683656011 34.00000000000006
  endloop
endfacet
facet normal -0.7238389884772738 0.29982392600169394 0.6214199322174402
  outer loop
    vertex -170.2570582558995 -53.073970640295904 35.00000000000006
    vertex -171.17964955068769 -53.22868683656011 34.00000000000006
    vertex -170.48682922766014 -53.62868683656011 35.00000000000006
  endloop
endfacet
facet normal -0.7238389884772738 0.29982392600169394 0.6214199322174402
  outer loop
    vertex -171.17964955068769 -53.22868683656011 34.00000000000006
    vertex -170.2570582558995 -53.073970640295904 35.00000000000006
    vertex -171.02979891693076 -52.866915404213884 34.00000000000006
  endloop
endfacet
facet normal -0.7767749152718011 0.10226435765877925 0.6214199322174365
  outer loop
    vertex -170.17868765636436 -52.47868683656011 35.00000000000006
    vertex -171.02979891693076 -52.866915404213884 34.00000000000006
    vertex -170.2570582558995 -53.073970640295904 35.00000000000006
  endloop
endfacet
facet normal -0.7767749152718011 0.10226435765877925 0.6214199322174365
  outer loop
    vertex -171.02979891693076 -52.866915404213884 34.00000000000006
    vertex -170.17868765636436 -52.47868683656011 35.00000000000006
    vertex -170.97868765636434 -52.47868683656011 34.00000000000006
  endloop
endfacet
facet normal -0.7767749152718011 -0.10226435765877925 0.6214199322174365
  outer loop
    vertex -170.2570582558995 -51.88340303282431 35.00000000000006
    vertex -170.97868765636434 -52.47868683656011 34.00000000000006
    vertex -170.17868765636436 -52.47868683656011 35.00000000000006
  endloop
endfacet
facet normal -0.7767749152718011 -0.10226435765877925 0.6214199322174365
  outer loop
    vertex -170.97868765636434 -52.47868683656011 34.00000000000006
    vertex -170.2570582558995 -51.88340303282431 35.00000000000006
    vertex -171.02979891693076 -52.09045826890633 34.00000000000006
  endloop
endfacet
facet normal -0.7238389884772739 -0.2998239260016937 0.6214199322174401
  outer loop
    vertex -170.2570582558995 -51.88340303282431 35.00000000000006
    vertex -171.17964955068769 -51.72868683656011 34.00000000000006
    vertex -171.02979891693076 -52.09045826890633 34.00000000000006
  endloop
endfacet
facet normal -0.7238389884772739 -0.2998239260016937 0.6214199322174401
  outer loop
    vertex -171.17964955068769 -51.72868683656011 34.00000000000006
    vertex -170.2570582558995 -51.88340303282431 35.00000000000006
    vertex -170.48682922766014 -51.32868683656011 35.00000000000006
  endloop
endfacet
facet normal -0.6215746308184983 -0.47695098927008983 0.6214199322174421
  outer loop
    vertex -170.48682922766014 -51.32868683656011 35.00000000000006
    vertex -171.4180274845845 -51.418026664780285 34.00000000000006
    vertex -171.17964955068769 -51.72868683656011 34.00000000000006
  endloop
endfacet
facet normal -0.6215746308184983 -0.47695098927008983 0.6214199322174421
  outer loop
    vertex -171.4180274845845 -51.418026664780285 34.00000000000006
    vertex -170.48682922766014 -51.32868683656011 35.00000000000006
    vertex -170.8523420596353 -50.85234123983105 35.00000000000006
  endloop
endfacet
facet normal -0.47695098927008145 -0.6215746308185089 0.6214199322174377
  outer loop
    vertex -170.8523420596353 -50.85234123983105 35.00000000000006
    vertex -171.72868765636437 -51.17964873088345 34.00000000000006
    vertex -171.4180274845845 -51.418026664780285 34.00000000000006
  endloop
endfacet
facet normal -0.47695098927008145 -0.6215746308185089 0.6214199322174377
  outer loop
    vertex -171.72868765636437 -51.17964873088345 34.00000000000006
    vertex -170.8523420596353 -50.85234123983105 35.00000000000006
    vertex -171.32868765636437 -50.4868284078559 35.00000000000006
  endloop
endfacet
facet normal -0.7933533402912517 -0.608761429008699 -9.681998618855931e-30
  outer loop
    vertex -171.4180274845845 -51.418026664780285 34.00000000000006
    vertex -171.17964955068769 -51.72868683656011 32.00000000000006
    vertex -171.17964955068769 -51.72868683656011 34.00000000000006
  endloop
endfacet
facet normal -0.7933533402912517 -0.608761429008699 -9.681998618855931e-30
  outer loop
    vertex -171.17964955068769 -51.72868683656011 32.00000000000006
    vertex -171.4180274845845 -51.418026664780285 34.00000000000006
    vertex -171.4180274845845 -51.418026664780285 32.00000000000006
  endloop
endfacet
facet normal 0.7933533402912517 0.608761429008699 9.681998618855931e-30
  outer loop
    vertex -173.777725762041 -53.22868683656011 32.00000000000006
    vertex -173.53934782814417 -53.53934700833993 34.00000000000006
    vertex -173.53934782814417 -53.53934700833993 32.00000000000006
  endloop
endfacet
facet normal 0.7933533402912517 0.608761429008699 9.681998618855931e-30
  outer loop
    vertex -173.53934782814417 -53.53934700833993 34.00000000000006
    vertex -173.777725762041 -53.22868683656011 32.00000000000006
    vertex -173.777725762041 -53.22868683656011 34.00000000000006
  endloop
endfacet
facet normal -0.38268343236509106 -0.9238795325112864 1.4693769893288877e-29
  outer loop
    vertex -171.72868765636437 -51.17964873088345 34.00000000000006
    vertex -172.09045908871056 -51.02979809712651 32.00000000000006
    vertex -171.72868765636437 -51.17964873088345 32.00000000000006
  endloop
endfacet
facet normal -0.38268343236509106 -0.9238795325112864 1.4693769893288877e-29
  outer loop
    vertex -172.09045908871056 -51.02979809712651 32.00000000000006
    vertex -171.72868765636437 -51.17964873088345 34.00000000000006
    vertex -172.09045908871056 -51.02979809712651 34.00000000000006
  endloop
endfacet
facet normal 0.9238795325112803 -0.38268343236510544 -2.3301181014387592e-29
  outer loop
    vertex -173.777725762041 -51.72868683656011 32.00000000000006
    vertex -173.92757639579798 -52.09045826890633 34.00000000000006
    vertex -173.92757639579798 -52.09045826890633 32.00000000000006
  endloop
endfacet
facet normal 0.9238795325112803 -0.38268343236510544 -2.3301181014387592e-29
  outer loop
    vertex -173.92757639579798 -52.09045826890633 34.00000000000006
    vertex -173.777725762041 -51.72868683656011 32.00000000000006
    vertex -173.777725762041 -51.72868683656011 34.00000000000006
  endloop
endfacet
facet normal -0.7933533402912517 0.608761429008699 -9.681998618855931e-30
  outer loop
    vertex -171.17964955068769 -53.22868683656011 34.00000000000006
    vertex -171.4180274845845 -53.53934700833993 32.00000000000006
    vertex -171.4180274845845 -53.53934700833993 34.00000000000006
  endloop
endfacet
facet normal -0.7933533402912517 0.608761429008699 -9.681998618855931e-30
  outer loop
    vertex -171.4180274845845 -53.53934700833993 32.00000000000006
    vertex -171.17964955068769 -53.22868683656011 34.00000000000006
    vertex -171.17964955068769 -53.22868683656011 32.00000000000006
  endloop
endfacet
facet normal -0.9238795325112803 -0.38268343236510544 2.3301181014387592e-29
  outer loop
    vertex -171.17964955068769 -51.72868683656011 34.00000000000006
    vertex -171.02979891693076 -52.09045826890633 32.00000000000006
    vertex -171.02979891693076 -52.09045826890633 34.00000000000006
  endloop
endfacet
facet normal -0.9238795325112803 -0.38268343236510544 2.3301181014387592e-29
  outer loop
    vertex -171.02979891693076 -52.09045826890633 32.00000000000006
    vertex -171.17964955068769 -51.72868683656011 34.00000000000006
    vertex -171.17964955068769 -51.72868683656011 32.00000000000006
  endloop
endfacet
facet normal -0.9914448613738112 -0.1305261922200455 3.153671478209201e-29
  outer loop
    vertex -171.02979891693076 -52.09045826890633 34.00000000000006
    vertex -170.97868765636434 -52.47868683656011 32.00000000000006
    vertex -170.97868765636434 -52.47868683656011 34.00000000000006
  endloop
endfacet
facet normal -0.9914448613738112 -0.1305261922200455 3.153671478209201e-29
  outer loop
    vertex -170.97868765636434 -52.47868683656011 32.00000000000006
    vertex -171.02979891693076 -52.09045826890633 34.00000000000006
    vertex -171.02979891693076 -52.09045826890633 32.00000000000006
  endloop
endfacet
facet normal 0.1305261922200455 0.9914448613738112 4.1518872667635634e-30
  outer loop
    vertex -172.86691622401813 -53.927575575993714 34.00000000000006
    vertex -172.47868765636437 -53.97868683656011 32.00000000000006
    vertex -172.86691622401813 -53.927575575993714 32.00000000000006
  endloop
endfacet
facet normal 0.1305261922200455 0.9914448613738112 4.1518872667635634e-30
  outer loop
    vertex -172.47868765636437 -53.97868683656011 32.00000000000006
    vertex -172.86691622401813 -53.927575575993714 34.00000000000006
    vertex -172.47868765636437 -53.97868683656011 34.00000000000006
  endloop
endfacet
facet normal 0.3826834323650952 -0.9238795325112846 1.2172717544379618e-29
  outer loop
    vertex -172.86691622401813 -51.02979809712651 34.00000000000006
    vertex -173.22868765636437 -51.17964873088346 32.00000000000006
    vertex -172.86691622401813 -51.02979809712651 32.00000000000006
  endloop
endfacet
facet normal 0.3826834323650952 -0.9238795325112846 1.2172717544379618e-29
  outer loop
    vertex -173.22868765636437 -51.17964873088346 32.00000000000006
    vertex -172.86691622401813 -51.02979809712651 34.00000000000006
    vertex -173.22868765636437 -51.17964873088346 34.00000000000006
  endloop
endfacet
facet normal -0.9914448613738112 0.1305261922200455 3.153671478209201e-29
  outer loop
    vertex -170.97868765636434 -52.47868683656011 34.00000000000006
    vertex -171.02979891693076 -52.866915404213884 32.00000000000006
    vertex -171.02979891693076 -52.866915404213884 34.00000000000006
  endloop
endfacet
facet normal -0.9914448613738112 0.1305261922200455 3.153671478209201e-29
  outer loop
    vertex -171.02979891693076 -52.866915404213884 32.00000000000006
    vertex -170.97868765636434 -52.47868683656011 34.00000000000006
    vertex -170.97868765636434 -52.47868683656011 32.00000000000006
  endloop
endfacet
facet normal 0.9914448613738112 0.1305261922200455 -3.153671478209201e-29
  outer loop
    vertex -173.97868765636434 -52.47868683656011 32.00000000000006
    vertex -173.92757639579798 -52.866915404213884 34.00000000000006
    vertex -173.92757639579798 -52.866915404213884 32.00000000000006
  endloop
endfacet
facet normal 0.9914448613738112 0.1305261922200455 -3.153671478209201e-29
  outer loop
    vertex -173.92757639579798 -52.866915404213884 34.00000000000006
    vertex -173.97868765636434 -52.47868683656011 32.00000000000006
    vertex -173.97868765636434 -52.47868683656011 34.00000000000006
  endloop
endfacet
facet normal -0.9238795325112803 0.38268343236510544 -3.5473898558767535e-29
  outer loop
    vertex -171.02979891693076 -52.866915404213884 34.00000000000006
    vertex -171.17964955068769 -53.22868683656011 32.00000000000006
    vertex -171.17964955068769 -53.22868683656011 34.00000000000006
  endloop
endfacet
facet normal -0.9238795325112803 0.38268343236510544 -3.5473898558767535e-29
  outer loop
    vertex -171.17964955068769 -53.22868683656011 32.00000000000006
    vertex -171.02979891693076 -52.866915404213884 34.00000000000006
    vertex -171.02979891693076 -52.866915404213884 32.00000000000006
  endloop
endfacet
facet normal 0.7933533402912517 -0.608761429008699 9.681998618855931e-30
  outer loop
    vertex -173.53934782814417 -51.418026664780285 32.00000000000006
    vertex -173.777725762041 -51.72868683656011 34.00000000000006
    vertex -173.777725762041 -51.72868683656011 32.00000000000006
  endloop
endfacet
facet normal 0.7933533402912517 -0.608761429008699 9.681998618855931e-30
  outer loop
    vertex -173.777725762041 -51.72868683656011 34.00000000000006
    vertex -173.53934782814417 -51.418026664780285 32.00000000000006
    vertex -173.53934782814417 -51.418026664780285 34.00000000000006
  endloop
endfacet
facet normal 0.1305261922200455 -0.9914448613738112 -4.1518872667635634e-30
  outer loop
    vertex -172.47868765636437 -50.97868683656011 34.00000000000006
    vertex -172.86691622401813 -51.02979809712651 32.00000000000006
    vertex -172.47868765636437 -50.97868683656011 32.00000000000006
  endloop
endfacet
facet normal 0.1305261922200455 -0.9914448613738112 -4.1518872667635634e-30
  outer loop
    vertex -172.86691622401813 -51.02979809712651 32.00000000000006
    vertex -172.47868765636437 -50.97868683656011 34.00000000000006
    vertex -172.86691622401813 -51.02979809712651 34.00000000000006
  endloop
endfacet
facet normal 0.6087614290086851 0.7933533402912624 0.0
  outer loop
    vertex -173.53934782814417 -53.53934700833993 34.00000000000006
    vertex -173.22868765636434 -53.77772494223676 32.00000000000006
    vertex -173.53934782814417 -53.53934700833993 32.00000000000006
  endloop
endfacet
facet normal 0.6087614290086851 0.7933533402912624 0.0
  outer loop
    vertex -173.22868765636434 -53.77772494223676 32.00000000000006
    vertex -173.53934782814417 -53.53934700833993 34.00000000000006
    vertex -173.22868765636434 -53.77772494223676 34.00000000000006
  endloop
endfacet
facet normal -0.1305261922200455 0.9914448613738112 -4.1518872667635634e-30
  outer loop
    vertex -172.47868765636437 -53.97868683656011 34.00000000000006
    vertex -172.09045908871056 -53.927575575993714 32.00000000000006
    vertex -172.47868765636437 -53.97868683656011 32.00000000000006
  endloop
endfacet
facet normal -0.1305261922200455 0.9914448613738112 -4.1518872667635634e-30
  outer loop
    vertex -172.09045908871056 -53.927575575993714 32.00000000000006
    vertex -172.47868765636437 -53.97868683656011 34.00000000000006
    vertex -172.09045908871056 -53.927575575993714 34.00000000000006
  endloop
endfacet
facet normal 0.9238795325112803 0.38268343236510544 -2.3301181014387592e-29
  outer loop
    vertex -173.92757639579798 -52.866915404213884 32.00000000000006
    vertex -173.777725762041 -53.22868683656011 34.00000000000006
    vertex -173.777725762041 -53.22868683656011 32.00000000000006
  endloop
endfacet
facet normal 0.9238795325112803 0.38268343236510544 -2.3301181014387592e-29
  outer loop
    vertex -173.777725762041 -53.22868683656011 34.00000000000006
    vertex -173.92757639579798 -52.866915404213884 32.00000000000006
    vertex -173.92757639579798 -52.866915404213884 34.00000000000006
  endloop
endfacet
facet normal 0.38268343236511554 0.9238795325112761 0.0
  outer loop
    vertex -173.22868765636434 -53.77772494223676 34.00000000000006
    vertex -172.86691622401813 -53.927575575993714 32.00000000000006
    vertex -173.22868765636434 -53.77772494223676 32.00000000000006
  endloop
endfacet
facet normal 0.38268343236511554 0.9238795325112761 0.0
  outer loop
    vertex -172.86691622401813 -53.927575575993714 32.00000000000006
    vertex -173.22868765636434 -53.77772494223676 34.00000000000006
    vertex -172.86691622401813 -53.927575575993714 34.00000000000006
  endloop
endfacet
facet normal -0.1305261922200455 -0.9914448613738112 4.1518872667635634e-30
  outer loop
    vertex -172.09045908871056 -51.02979809712651 34.00000000000006
    vertex -172.47868765636437 -50.97868683656011 32.00000000000006
    vertex -172.09045908871056 -51.02979809712651 32.00000000000006
  endloop
endfacet
facet normal -0.1305261922200455 -0.9914448613738112 4.1518872667635634e-30
  outer loop
    vertex -172.47868765636437 -50.97868683656011 32.00000000000006
    vertex -172.09045908871056 -51.02979809712651 34.00000000000006
    vertex -172.47868765636437 -50.97868683656011 34.00000000000006
  endloop
endfacet
facet normal 0.9914448613738112 -0.1305261922200455 3.153671478209201e-29
  outer loop
    vertex -173.92757639579798 -52.09045826890633 32.00000000000006
    vertex -173.97868765636434 -52.47868683656011 34.00000000000006
    vertex -173.97868765636434 -52.47868683656011 32.00000000000006
  endloop
endfacet
facet normal 0.9914448613738112 -0.1305261922200455 3.153671478209201e-29
  outer loop
    vertex -173.97868765636434 -52.47868683656011 34.00000000000006
    vertex -173.92757639579798 -52.09045826890633 32.00000000000006
    vertex -173.92757639579798 -52.09045826890633 34.00000000000006
  endloop
endfacet
facet normal 0.6087614290087131 -0.7933533402912409 1.9363997237712305e-29
  outer loop
    vertex -173.22868765636437 -51.17964873088346 34.00000000000006
    vertex -173.53934782814417 -51.418026664780285 32.00000000000006
    vertex -173.22868765636437 -51.17964873088346 32.00000000000006
  endloop
endfacet
facet normal 0.6087614290087131 -0.7933533402912409 1.9363997237712305e-29
  outer loop
    vertex -173.53934782814417 -51.418026664780285 32.00000000000006
    vertex -173.22868765636437 -51.17964873088346 34.00000000000006
    vertex -173.53934782814417 -51.418026664780285 34.00000000000006
  endloop
endfacet
facet normal -0.6087614290087131 0.7933533402912409 1.9363997237712305e-29
  outer loop
    vertex -171.72868765636437 -53.77772494223676 34.00000000000006
    vertex -171.4180274845845 -53.53934700833993 32.00000000000006
    vertex -171.72868765636437 -53.77772494223676 32.00000000000006
  endloop
endfacet
facet normal -0.6087614290087131 0.7933533402912409 1.9363997237712305e-29
  outer loop
    vertex -171.4180274845845 -53.53934700833993 32.00000000000006
    vertex -171.72868765636437 -53.77772494223676 34.00000000000006
    vertex -171.4180274845845 -53.53934700833993 34.00000000000006
  endloop
endfacet
facet normal -0.6087614290087032 -0.7933533402912485 1.2617826259907218e-29
  outer loop
    vertex -171.4180274845845 -51.418026664780285 34.00000000000006
    vertex -171.72868765636437 -51.17964873088345 32.00000000000006
    vertex -171.4180274845845 -51.418026664780285 32.00000000000006
  endloop
endfacet
facet normal -0.6087614290087032 -0.7933533402912485 1.2617826259907218e-29
  outer loop
    vertex -171.72868765636437 -51.17964873088345 32.00000000000006
    vertex -171.4180274845845 -51.418026664780285 34.00000000000006
    vertex -171.72868765636437 -51.17964873088345 34.00000000000006
  endloop
endfacet
facet normal -0.3826834323650952 0.9238795325112846 1.2172717544379618e-29
  outer loop
    vertex -172.09045908871056 -53.927575575993714 34.00000000000006
    vertex -171.72868765636437 -53.77772494223676 32.00000000000006
    vertex -172.09045908871056 -53.927575575993714 32.00000000000006
  endloop
endfacet
facet normal -0.3826834323650952 0.9238795325112846 1.2172717544379618e-29
  outer loop
    vertex -171.72868765636437 -53.77772494223676 32.00000000000006
    vertex -172.09045908871056 -53.927575575993714 34.00000000000006
    vertex -171.72868765636437 -53.77772494223676 34.00000000000006
  endloop
endfacet
facet normal -0.7238389884772736 0.2998239260016944 0.6214199322174402
  outer loop
    vertex -170.2570582558995 -3.073970640331673 35.000000000000036
    vertex -171.17964955068769 -3.228686836595877 34.00000000000004
    vertex -170.48682922766014 -3.628686836595865 35.000000000000036
  endloop
endfacet
facet normal -0.7238389884772736 0.2998239260016944 0.6214199322174402
  outer loop
    vertex -171.17964955068769 -3.228686836595877 34.00000000000004
    vertex -170.2570582558995 -3.073970640331673 35.000000000000036
    vertex -171.02979891693076 -2.866915404249657 34.00000000000004
  endloop
endfacet
facet normal -0.7767749152718012 0.10226435765877898 0.6214199322174366
  outer loop
    vertex -170.17868765636436 -2.4786868365958674 35.000000000000036
    vertex -171.02979891693076 -2.866915404249657 34.00000000000004
    vertex -170.2570582558995 -3.073970640331673 35.000000000000036
  endloop
endfacet
facet normal -0.7767749152718012 0.10226435765877898 0.6214199322174366
  outer loop
    vertex -171.02979891693076 -2.866915404249657 34.00000000000004
    vertex -170.17868765636436 -2.4786868365958674 35.000000000000036
    vertex -170.97868765636434 -2.4786868365958674 34.00000000000004
  endloop
endfacet
facet normal -0.7767749152718012 -0.10226435765877848 0.6214199322174365
  outer loop
    vertex -170.2570582558995 -1.8834030328600728 35.000000000000036
    vertex -170.97868765636434 -2.4786868365958674 34.00000000000004
    vertex -170.17868765636436 -2.4786868365958674 35.000000000000036
  endloop
endfacet
facet normal -0.7767749152718012 -0.10226435765877848 0.6214199322174365
  outer loop
    vertex -170.97868765636434 -2.4786868365958674 34.00000000000004
    vertex -170.2570582558995 -1.8834030328600728 35.000000000000036
    vertex -171.02979891693076 -2.090458268942089 34.00000000000004
  endloop
endfacet
facet normal -0.7238389884772732 -0.2998239260016951 0.6214199322174403
  outer loop
    vertex -170.2570582558995 -1.8834030328600728 35.000000000000036
    vertex -171.17964955068769 -1.7286868365958687 34.00000000000004
    vertex -171.02979891693076 -2.090458268942089 34.00000000000004
  endloop
endfacet
facet normal -0.7238389884772732 -0.2998239260016951 0.6214199322174403
  outer loop
    vertex -171.17964955068769 -1.7286868365958687 34.00000000000004
    vertex -170.2570582558995 -1.8834030328600728 35.000000000000036
    vertex -170.48682922766014 -1.3286868365958695 35.000000000000036
  endloop
endfacet
facet normal -0.6215746308184961 -0.4769509892700924 0.6214199322174424
  outer loop
    vertex -170.48682922766014 -1.3286868365958695 35.000000000000036
    vertex -171.4180274845845 -1.4180266648160547 34.00000000000004
    vertex -171.17964955068769 -1.7286868365958687 34.00000000000004
  endloop
endfacet
facet normal -0.6215746308184961 -0.4769509892700924 0.6214199322174424
  outer loop
    vertex -171.4180274845845 -1.4180266648160547 34.00000000000004
    vertex -170.48682922766014 -1.3286868365958695 35.000000000000036
    vertex -170.8523420596353 -0.8523412398668198 35.000000000000036
  endloop
endfacet
facet normal -0.47695098927008267 -0.6215746308185062 0.6214199322174396
  outer loop
    vertex -170.8523420596353 -0.8523412398668198 35.000000000000036
    vertex -171.72868765636437 -1.1796487309192172 34.00000000000004
    vertex -171.4180274845845 -1.4180266648160547 34.00000000000004
  endloop
endfacet
facet normal -0.47695098927008267 -0.6215746308185062 0.6214199322174396
  outer loop
    vertex -171.72868765636437 -1.1796487309192172 34.00000000000004
    vertex -170.8523420596353 -0.8523412398668198 35.000000000000036
    vertex -171.32868765636437 -0.4868284078916635 35.000000000000036
  endloop
endfacet
facet normal -0.29982392600170865 -0.7238389884772671 0.6214199322174409
  outer loop
    vertex -171.32868765636437 -0.4868284078916635 35.000000000000036
    vertex -172.09045908871056 -1.0297980971622762 34.00000000000004
    vertex -171.72868765636437 -1.1796487309192172 34.00000000000004
  endloop
endfacet
facet normal -0.29982392600170865 -0.7238389884772671 0.6214199322174409
  outer loop
    vertex -172.09045908871056 -1.0297980971622762 34.00000000000004
    vertex -171.32868765636437 -0.4868284078916635 35.000000000000036
    vertex -171.88340385262853 -0.25705743613101406 35.00000000000004
  endloop
endfacet
facet normal -0.10226435765876882 -0.7767749152717996 0.6214199322174403
  outer loop
    vertex -171.88340385262853 -0.25705743613101406 35.00000000000004
    vertex -172.47868765636437 -0.9786868365958701 34.00000000000004
    vertex -172.09045908871056 -1.0297980971622762 34.00000000000004
  endloop
endfacet
facet normal -0.10226435765876882 -0.7767749152717996 0.6214199322174403
  outer loop
    vertex -172.47868765636437 -0.9786868365958701 34.00000000000004
    vertex -171.88340385262853 -0.25705743613101406 35.00000000000004
    vertex -172.47868765636437 -0.1786868365958716 35.00000000000004
  endloop
endfacet
facet normal 0.10226435765876998 -0.7767749152717995 0.6214199322174403
  outer loop
    vertex -172.47868765636437 -0.1786868365958716 35.00000000000004
    vertex -172.86691622401813 -1.0297980971622762 34.00000000000004
    vertex -172.47868765636437 -0.9786868365958701 34.00000000000004
  endloop
endfacet
facet normal 0.10226435765876998 -0.7767749152717995 0.6214199322174403
  outer loop
    vertex -172.86691622401813 -1.0297980971622762 34.00000000000004
    vertex -172.47868765636437 -0.1786868365958716 35.00000000000004
    vertex -173.07397146010015 -0.25705743613102533 35.00000000000004
  endloop
endfacet
facet normal 0.29982392600170366 -0.7238389884772692 0.6214199322174409
  outer loop
    vertex -173.07397146010015 -0.25705743613102533 35.00000000000004
    vertex -173.22868765636437 -1.1796487309192172 34.00000000000004
    vertex -172.86691622401813 -1.0297980971622762 34.00000000000004
  endloop
endfacet
facet normal 0.29982392600170366 -0.7238389884772692 0.6214199322174409
  outer loop
    vertex -173.22868765636437 -1.1796487309192172 34.00000000000004
    vertex -173.07397146010015 -0.25705743613102533 35.00000000000004
    vertex -173.62868765636438 -0.4868284078916635 35.00000000000004
  endloop
endfacet
facet normal 0.4769509892701046 -0.6215746308184896 0.6214199322174393
  outer loop
    vertex -173.62868765636438 -0.4868284078916635 35.00000000000004
    vertex -173.53934782814417 -1.4180266648160547 34.00000000000005
    vertex -173.22868765636437 -1.1796487309192172 34.00000000000004
  endloop
endfacet
facet normal 0.4769509892701046 -0.6215746308184896 0.6214199322174393
  outer loop
    vertex -173.53934782814417 -1.4180266648160547 34.00000000000005
    vertex -173.62868765636438 -0.4868284078916635 35.00000000000004
    vertex -174.10503325309344 -0.8523412398668198 35.00000000000005
  endloop
endfacet
facet normal 0.6215746308184962 -0.47695098927009233 0.6214199322174422
  outer loop
    vertex -173.53934782814417 -1.4180266648160547 34.00000000000005
    vertex -174.47054608506855 -1.3286868365958808 35.00000000000005
    vertex -173.777725762041 -1.7286868365958687 34.00000000000005
  endloop
endfacet
facet normal 0.6215746308184962 -0.47695098927009233 0.6214199322174422
  outer loop
    vertex -174.47054608506855 -1.3286868365958808 35.00000000000005
    vertex -173.53934782814417 -1.4180266648160547 34.00000000000005
    vertex -174.10503325309344 -0.8523412398668198 35.00000000000005
  endloop
endfacet
facet normal 0.7238389884772735 -0.2998239260016948 0.6214199322174402
  outer loop
    vertex -173.777725762041 -1.7286868365958687 34.00000000000005
    vertex -174.70031705682916 -1.8834030328600728 35.00000000000005
    vertex -173.92757639579798 -2.090458268942089 34.00000000000005
  endloop
endfacet
facet normal 0.7238389884772735 -0.2998239260016948 0.6214199322174402
  outer loop
    vertex -174.70031705682916 -1.8834030328600728 35.00000000000005
    vertex -173.777725762041 -1.7286868365958687 34.00000000000005
    vertex -174.47054608506855 -1.3286868365958808 35.00000000000005
  endloop
endfacet
facet normal 0.7767749152718012 -0.10226435765877895 0.6214199322174366
  outer loop
    vertex -173.92757639579798 -2.090458268942089 34.00000000000005
    vertex -174.77868765636435 -2.4786868365958674 35.00000000000005
    vertex -173.97868765636434 -2.4786868365958674 34.00000000000005
  endloop
endfacet
facet normal 0.7767749152718012 -0.10226435765877895 0.6214199322174366
  outer loop
    vertex -174.77868765636435 -2.4786868365958674 35.00000000000005
    vertex -173.92757639579798 -2.090458268942089 34.00000000000005
    vertex -174.70031705682916 -1.8834030328600728 35.00000000000005
  endloop
endfacet
facet normal 0.7767749152718011 0.10226435765877885 0.6214199322174366
  outer loop
    vertex -173.92757639579798 -2.866915404249657 34.00000000000005
    vertex -174.77868765636435 -2.4786868365958674 35.00000000000005
    vertex -174.70031705682916 -3.073970640331673 35.00000000000005
  endloop
endfacet
facet normal 0.7767749152718011 0.10226435765877885 0.6214199322174366
  outer loop
    vertex -174.77868765636435 -2.4786868365958674 35.00000000000005
    vertex -173.92757639579798 -2.866915404249657 34.00000000000005
    vertex -173.97868765636434 -2.4786868365958674 34.00000000000005
  endloop
endfacet
facet normal 0.7238389884772735 0.2998239260016944 0.6214199322174403
  outer loop
    vertex -173.777725762041 -3.228686836595877 34.00000000000005
    vertex -174.70031705682916 -3.073970640331673 35.00000000000005
    vertex -174.47054608506855 -3.6286868365958767 35.00000000000005
  endloop
endfacet
facet normal 0.7238389884772735 0.2998239260016944 0.6214199322174403
  outer loop
    vertex -174.70031705682916 -3.073970640331673 35.00000000000005
    vertex -173.777725762041 -3.228686836595877 34.00000000000005
    vertex -173.92757639579798 -2.866915404249657 34.00000000000005
  endloop
endfacet
facet normal 0.6215746308184961 0.4769509892700924 0.6214199322174424
  outer loop
    vertex -173.53934782814417 -3.5393470083756915 34.00000000000005
    vertex -174.47054608506855 -3.6286868365958767 35.00000000000005
    vertex -174.10503325309344 -4.105032433324927 35.00000000000005
  endloop
endfacet
facet normal 0.6215746308184961 0.4769509892700924 0.6214199322174424
  outer loop
    vertex -174.47054608506855 -3.6286868365958767 35.00000000000005
    vertex -173.53934782814417 -3.5393470083756915 34.00000000000005
    vertex -173.777725762041 -3.228686836595877 34.00000000000005
  endloop
endfacet
facet normal 0.47695098927008256 0.6215746308185064 0.6214199322174394
  outer loop
    vertex -174.10503325309344 -4.105032433324927 35.00000000000005
    vertex -173.22868765636434 -3.777724942272529 34.00000000000005
    vertex -173.53934782814417 -3.5393470083756915 34.00000000000005
  endloop
endfacet
facet normal 0.47695098927008256 0.6215746308185064 0.6214199322174394
  outer loop
    vertex -173.22868765636434 -3.777724942272529 34.00000000000005
    vertex -174.10503325309344 -4.105032433324927 35.00000000000005
    vertex -173.62868765636432 -4.470545265300083 35.00000000000005
  endloop
endfacet
facet normal 0.2998239260017212 0.7238389884772622 0.6214199322174405
  outer loop
    vertex -173.22868765636434 -3.777724942272529 34.00000000000005
    vertex -173.07397146010015 -4.700316237060732 35.00000000000004
    vertex -172.86691622401813 -3.92757557602947 34.00000000000004
  endloop
endfacet
facet normal 0.2998239260017212 0.7238389884772622 0.6214199322174405
  outer loop
    vertex -173.07397146010015 -4.700316237060732 35.00000000000004
    vertex -173.22868765636434 -3.777724942272529 34.00000000000005
    vertex -173.62868765636432 -4.470545265300083 35.00000000000005
  endloop
endfacet
facet normal 0.10226435765876983 0.7767749152717998 0.6214199322174399
  outer loop
    vertex -173.07397146010015 -4.700316237060732 35.00000000000004
    vertex -172.47868765636437 -3.9786868365958648 34.00000000000004
    vertex -172.86691622401813 -3.92757557602947 34.00000000000004
  endloop
endfacet
facet normal 0.10226435765876983 0.7767749152717998 0.6214199322174399
  outer loop
    vertex -172.47868765636437 -3.9786868365958648 34.00000000000004
    vertex -173.07397146010015 -4.700316237060732 35.00000000000004
    vertex -172.47868765636437 -4.778686836595863 35.00000000000004
  endloop
endfacet
facet normal -0.10226435765876983 0.7767749152717998 0.6214199322174399
  outer loop
    vertex -172.47868765636437 -4.778686836595863 35.00000000000004
    vertex -172.09045908871056 -3.92757557602947 34.00000000000004
    vertex -172.47868765636437 -3.9786868365958648 34.00000000000004
  endloop
endfacet
facet normal -0.10226435765876983 0.7767749152717998 0.6214199322174399
  outer loop
    vertex -172.09045908871056 -3.92757557602947 34.00000000000004
    vertex -172.47868765636437 -4.778686836595863 35.00000000000004
    vertex -171.88340385262853 -4.700316237060732 35.00000000000004
  endloop
endfacet
facet normal -0.29982392600170354 0.7238389884772694 0.6214199322174409
  outer loop
    vertex -171.88340385262853 -4.700316237060732 35.00000000000004
    vertex -171.72868765636437 -3.777724942272529 34.00000000000004
    vertex -172.09045908871056 -3.92757557602947 34.00000000000004
  endloop
endfacet
facet normal -0.29982392600170354 0.7238389884772694 0.6214199322174409
  outer loop
    vertex -171.72868765636437 -3.777724942272529 34.00000000000004
    vertex -171.88340385262853 -4.700316237060732 35.00000000000004
    vertex -171.32868765636437 -4.470545265300083 35.00000000000004
  endloop
endfacet
facet normal -0.4769509892700935 0.6215746308184981 0.6214199322174395
  outer loop
    vertex -171.72868765636437 -3.777724942272529 34.00000000000004
    vertex -170.8523420596353 -4.105032433324927 35.000000000000036
    vertex -171.4180274845845 -3.5393470083756915 34.00000000000004
  endloop
endfacet
facet normal -0.4769509892700935 0.6215746308184981 0.6214199322174395
  outer loop
    vertex -170.8523420596353 -4.105032433324927 35.000000000000036
    vertex -171.72868765636437 -3.777724942272529 34.00000000000004
    vertex -171.32868765636437 -4.470545265300083 35.00000000000004
  endloop
endfacet
facet normal -0.6215746308184962 0.4769509892700924 0.6214199322174423
  outer loop
    vertex -170.48682922766014 -3.628686836595865 35.000000000000036
    vertex -171.4180274845845 -3.5393470083756915 34.00000000000004
    vertex -170.8523420596353 -4.105032433324927 35.000000000000036
  endloop
endfacet
facet normal -0.6215746308184962 0.4769509892700924 0.6214199322174423
  outer loop
    vertex -171.4180274845845 -3.5393470083756915 34.00000000000004
    vertex -170.48682922766014 -3.628686836595865 35.000000000000036
    vertex -171.17964955068769 -3.228686836595877 34.00000000000004
  endloop
endfacet
facet normal -0.7933533402912467 0.6087614290087058 8.62900901322005e-15
  outer loop
    vertex -171.17964955068769 -3.228686836595877 34.00000000000004
    vertex -171.41802748458457 -3.5393470083756915 32.000000000000036
    vertex -171.4180274845845 -3.5393470083756915 34.00000000000004
  endloop
endfacet
facet normal -0.7933533402912467 0.6087614290087058 8.62900901322005e-15
  outer loop
    vertex -171.41802748458457 -3.5393470083756915 32.000000000000036
    vertex -171.17964955068769 -3.228686836595877 34.00000000000004
    vertex -171.17964955068769 -3.228686836595877 32.000000000000036
  endloop
endfacet
facet normal -0.9238795325112793 -0.38268343236510766 1.0755202312572632e-14
  outer loop
    vertex -171.17964955068769 -1.7286868365958687 34.00000000000004
    vertex -171.02979891693076 -2.090458268942089 32.000000000000036
    vertex -171.02979891693076 -2.090458268942089 34.00000000000004
  endloop
endfacet
facet normal -0.9238795325112793 -0.38268343236510766 1.0755202312572632e-14
  outer loop
    vertex -171.02979891693076 -2.090458268942089 32.000000000000036
    vertex -171.17964955068769 -1.7286868365958687 34.00000000000004
    vertex -171.17964955068769 -1.72868683659588 32.000000000000036
  endloop
endfacet
facet normal -0.1305261922200526 0.9914448613738103 1.1233110528791105e-15
  outer loop
    vertex -172.47868765636437 -3.9786868365958648 34.00000000000004
    vertex -172.09045908871056 -3.92757557602947 32.00000000000004
    vertex -172.47868765636437 -3.978686836595876 32.00000000000004
  endloop
endfacet
facet normal -0.1305261922200526 0.9914448613738103 1.1233110528791105e-15
  outer loop
    vertex -172.09045908871056 -3.92757557602947 32.00000000000004
    vertex -172.47868765636437 -3.9786868365958648 34.00000000000004
    vertex -172.09045908871056 -3.92757557602947 34.00000000000004
  endloop
endfacet
facet normal 0.38268343236509716 0.9238795325112836 -4.643315760383474e-15
  outer loop
    vertex -173.22868765636437 -3.777724942272529 32.00000000000005
    vertex -172.86691622401813 -3.92757557602947 34.00000000000004
    vertex -172.86691622401818 -3.92757557602947 32.00000000000004
  endloop
endfacet
facet normal 0.38268343236509716 0.9238795325112836 -4.643315760383474e-15
  outer loop
    vertex -172.86691622401813 -3.92757557602947 34.00000000000004
    vertex -173.22868765636437 -3.777724942272529 32.00000000000005
    vertex -173.22868765636434 -3.777724942272529 34.00000000000005
  endloop
endfacet
facet normal 0.38268343236507774 -0.9238795325112918 -3.623667094995694e-15
  outer loop
    vertex -172.86691622401813 -1.0297980971622762 34.00000000000004
    vertex -173.22868765636437 -1.1796487309192172 32.00000000000004
    vertex -172.86691622401818 -1.0297980971622762 32.00000000000004
  endloop
endfacet
facet normal 0.38268343236507774 -0.9238795325112918 -3.623667094995694e-15
  outer loop
    vertex -173.22868765636437 -1.1796487309192172 32.00000000000004
    vertex -172.86691622401813 -1.0297980971622762 34.00000000000004
    vertex -173.22868765636437 -1.1796487309192172 34.00000000000004
  endloop
endfacet
facet normal 0.9238795325112797 0.38268343236510666 -1.0755202312572635e-14
  outer loop
    vertex -173.92757639579798 -2.866915404249657 32.00000000000005
    vertex -173.777725762041 -3.228686836595877 34.00000000000005
    vertex -173.77772576204103 -3.228686836595877 32.00000000000005
  endloop
endfacet
facet normal 0.9238795325112797 0.38268343236510666 -1.0755202312572635e-14
  outer loop
    vertex -173.777725762041 -3.228686836595877 34.00000000000005
    vertex -173.92757639579798 -2.866915404249657 32.00000000000005
    vertex -173.92757639579798 -2.866915404249657 34.00000000000005
  endloop
endfacet
facet normal -0.1305261922200517 -0.9914448613738105 2.2589167986851608e-15
  outer loop
    vertex -172.09045908871056 -1.0297980971622762 34.00000000000004
    vertex -172.47868765636437 -0.9786868365958814 32.00000000000004
    vertex -172.09045908871056 -1.0297980971622762 32.00000000000004
  endloop
endfacet
facet normal -0.1305261922200517 -0.9914448613738105 2.2589167986851608e-15
  outer loop
    vertex -172.47868765636437 -0.9786868365958814 32.00000000000004
    vertex -172.09045908871056 -1.0297980971622762 34.00000000000004
    vertex -172.47868765636437 -0.9786868365958701 34.00000000000004
  endloop
endfacet
facet normal 0.9238795325112797 -0.382683432365107 -1.0086000088488699e-14
  outer loop
    vertex -173.77772576204103 -1.72868683659588 32.00000000000005
    vertex -173.92757639579798 -2.090458268942089 34.00000000000005
    vertex -173.92757639579798 -2.090458268942089 32.00000000000005
  endloop
endfacet
facet normal 0.9238795325112797 -0.382683432365107 -1.0086000088488699e-14
  outer loop
    vertex -173.92757639579798 -2.090458268942089 34.00000000000005
    vertex -173.77772576204103 -1.72868683659588 32.00000000000005
    vertex -173.777725762041 -1.7286868365958687 34.00000000000005
  endloop
endfacet
facet normal -0.9238795325112797 0.3826834323651069 1.0186380422101292e-14
  outer loop
    vertex -171.02979891693076 -2.866915404249657 34.00000000000004
    vertex -171.17964955068769 -3.228686836595877 32.000000000000036
    vertex -171.17964955068769 -3.228686836595877 34.00000000000004
  endloop
endfacet
facet normal -0.9238795325112797 0.3826834323651069 1.0186380422101292e-14
  outer loop
    vertex -171.17964955068769 -3.228686836595877 32.000000000000036
    vertex -171.02979891693076 -2.866915404249657 34.00000000000004
    vertex -171.02979891693076 -2.866915404249657 32.000000000000036
  endloop
endfacet
facet normal 0.1305261922200533 -0.9914448613738103 -7.299666962688113e-16
  outer loop
    vertex -172.47868765636437 -0.9786868365958701 34.00000000000004
    vertex -172.86691622401818 -1.0297980971622762 32.00000000000004
    vertex -172.47868765636437 -0.9786868365958814 32.00000000000004
  endloop
endfacet
facet normal 0.1305261922200533 -0.9914448613738103 -7.299666962688113e-16
  outer loop
    vertex -172.86691622401818 -1.0297980971622762 32.00000000000004
    vertex -172.47868765636437 -0.9786868365958701 34.00000000000004
    vertex -172.86691622401813 -1.0297980971622762 34.00000000000004
  endloop
endfacet
facet normal -0.9914448613738114 -0.13052619222004444 1.1288704571014393e-14
  outer loop
    vertex -170.97868765636434 -2.4786868365958674 34.00000000000004
    vertex -171.02979891693076 -2.090458268942089 32.000000000000036
    vertex -170.97868765636434 -2.4786868365958785 32.000000000000036
  endloop
endfacet
facet normal -0.9914448613738114 -0.13052619222004444 1.1288704571014393e-14
  outer loop
    vertex -171.02979891693076 -2.090458268942089 32.000000000000036
    vertex -170.97868765636434 -2.4786868365958674 34.00000000000004
    vertex -171.02979891693076 -2.090458268942089 34.00000000000004
  endloop
endfacet
facet normal -0.6087614290087019 -0.7933533402912495 7.494101652419106e-15
  outer loop
    vertex -171.4180274845845 -1.4180266648160547 34.00000000000004
    vertex -171.72868765636437 -1.1796487309192172 32.000000000000036
    vertex -171.41802748458457 -1.4180266648160547 32.000000000000036
  endloop
endfacet
facet normal -0.6087614290087019 -0.7933533402912495 7.494101652419106e-15
  outer loop
    vertex -171.72868765636437 -1.1796487309192172 32.000000000000036
    vertex -171.4180274845845 -1.4180266648160547 34.00000000000004
    vertex -171.72868765636437 -1.1796487309192172 34.00000000000004
  endloop
endfacet
facet normal 0.6087614290087293 -0.7933533402912285 -6.274165440941566e-15
  outer loop
    vertex -173.22868765636437 -1.1796487309192172 34.00000000000004
    vertex -173.53934782814417 -1.4180266648160547 32.00000000000005
    vertex -173.22868765636437 -1.1796487309192172 32.00000000000004
  endloop
endfacet
facet normal 0.6087614290087293 -0.7933533402912285 -6.274165440941566e-15
  outer loop
    vertex -173.53934782814417 -1.4180266648160547 32.00000000000005
    vertex -173.22868765636437 -1.1796487309192172 34.00000000000004
    vertex -173.53934782814417 -1.4180266648160547 34.00000000000005
  endloop
endfacet
facet normal -0.7933533402912468 -0.6087614290087054 9.427419267835755e-15
  outer loop
    vertex -171.17964955068769 -1.7286868365958687 34.00000000000004
    vertex -171.41802748458457 -1.4180266648160547 32.000000000000036
    vertex -171.17964955068769 -1.72868683659588 32.000000000000036
  endloop
endfacet
facet normal -0.7933533402912468 -0.6087614290087054 9.427419267835755e-15
  outer loop
    vertex -171.41802748458457 -1.4180266648160547 32.000000000000036
    vertex -171.17964955068769 -1.7286868365958687 34.00000000000004
    vertex -171.4180274845845 -1.4180266648160547 34.00000000000004
  endloop
endfacet
facet normal -0.3826834323650792 0.9238795325112913 3.829655723378272e-15
  outer loop
    vertex -172.09045908871056 -3.92757557602947 34.00000000000004
    vertex -171.72868765636437 -3.777724942272529 32.00000000000004
    vertex -172.09045908871056 -3.92757557602947 32.00000000000004
  endloop
endfacet
facet normal -0.3826834323650792 0.9238795325112913 3.829655723378272e-15
  outer loop
    vertex -171.72868765636437 -3.777724942272529 32.00000000000004
    vertex -172.09045908871056 -3.92757557602947 34.00000000000004
    vertex -171.72868765636437 -3.777724942272529 34.00000000000004
  endloop
endfacet
facet normal 0.7933533402912473 -0.608761429008705 -8.46666559478147e-15
  outer loop
    vertex -173.53934782814417 -1.4180266648160547 32.00000000000005
    vertex -173.777725762041 -1.7286868365958687 34.00000000000005
    vertex -173.77772576204103 -1.72868683659588 32.00000000000005
  endloop
endfacet
facet normal 0.7933533402912473 -0.608761429008705 -8.46666559478147e-15
  outer loop
    vertex -173.777725762041 -1.7286868365958687 34.00000000000005
    vertex -173.53934782814417 -1.4180266648160547 32.00000000000005
    vertex -173.53934782814417 -1.4180266648160547 34.00000000000005
  endloop
endfacet
facet normal 0.7933533402912464 0.608761429008706 -9.374191917528085e-15
  outer loop
    vertex -173.77772576204103 -3.228686836595877 32.00000000000005
    vertex -173.53934782814417 -3.5393470083756915 34.00000000000005
    vertex -173.53934782814417 -3.5393470083756915 32.00000000000005
  endloop
endfacet
facet normal 0.7933533402912464 0.608761429008706 -9.374191917528085e-15
  outer loop
    vertex -173.53934782814417 -3.5393470083756915 34.00000000000005
    vertex -173.77772576204103 -3.228686836595877 32.00000000000005
    vertex -173.777725762041 -3.228686836595877 34.00000000000005
  endloop
endfacet
facet normal 0.9914448613738114 0.13052619222004505 -1.1311529812649503e-14
  outer loop
    vertex -173.9786876563644 -2.4786868365958785 32.00000000000005
    vertex -173.92757639579798 -2.866915404249657 34.00000000000005
    vertex -173.92757639579798 -2.866915404249657 32.00000000000005
  endloop
endfacet
facet normal 0.9914448613738114 0.13052619222004505 -1.1311529812649503e-14
  outer loop
    vertex -173.92757639579798 -2.866915404249657 34.00000000000005
    vertex -173.9786876563644 -2.4786868365958785 32.00000000000005
    vertex -173.97868765636434 -2.4786868365958674 34.00000000000005
  endloop
endfacet
facet normal 0.13052619222005257 0.9914448613738103 -1.8211451180500156e-15
  outer loop
    vertex -172.86691622401813 -3.92757557602947 34.00000000000004
    vertex -172.47868765636437 -3.978686836595876 32.00000000000004
    vertex -172.86691622401818 -3.92757557602947 32.00000000000004
  endloop
endfacet
facet normal 0.13052619222005257 0.9914448613738103 -1.8211451180500156e-15
  outer loop
    vertex -172.47868765636437 -3.978686836595876 32.00000000000004
    vertex -172.86691622401813 -3.92757557602947 34.00000000000004
    vertex -172.47868765636437 -3.9786868365958648 34.00000000000004
  endloop
endfacet
facet normal 0.9914448613738114 -0.13052619222004494 -1.1067415064779494e-14
  outer loop
    vertex -173.92757639579798 -2.090458268942089 32.00000000000005
    vertex -173.97868765636434 -2.4786868365958674 34.00000000000005
    vertex -173.9786876563644 -2.4786868365958785 32.00000000000005
  endloop
endfacet
facet normal 0.9914448613738114 -0.13052619222004494 -1.1067415064779494e-14
  outer loop
    vertex -173.97868765636434 -2.4786868365958674 34.00000000000005
    vertex -173.92757639579798 -2.090458268942089 32.00000000000005
    vertex -173.92757639579798 -2.090458268942089 34.00000000000005
  endloop
endfacet
facet normal 0.6087614290087027 0.7933533402912489 -7.285999952068695e-15
  outer loop
    vertex -173.53934782814417 -3.5393470083756915 34.00000000000005
    vertex -173.22868765636437 -3.777724942272529 32.00000000000005
    vertex -173.53934782814417 -3.5393470083756915 32.00000000000005
  endloop
endfacet
facet normal 0.6087614290087027 0.7933533402912489 -7.285999952068695e-15
  outer loop
    vertex -173.22868765636437 -3.777724942272529 32.00000000000005
    vertex -173.53934782814417 -3.5393470083756915 34.00000000000005
    vertex -173.22868765636434 -3.777724942272529 34.00000000000005
  endloop
endfacet
facet normal -0.9914448613738114 0.13052619222004502 1.1080994872134911e-14
  outer loop
    vertex -170.97868765636434 -2.4786868365958674 34.00000000000004
    vertex -171.02979891693076 -2.866915404249657 32.000000000000036
    vertex -171.02979891693076 -2.866915404249657 34.00000000000004
  endloop
endfacet
facet normal -0.9914448613738114 0.13052619222004502 1.1080994872134911e-14
  outer loop
    vertex -171.02979891693076 -2.866915404249657 32.000000000000036
    vertex -170.97868765636434 -2.4786868365958674 34.00000000000004
    vertex -170.97868765636434 -2.4786868365958785 32.000000000000036
  endloop
endfacet
facet normal -0.38268343236509733 -0.9238795325112836 5.0916439515691005e-15
  outer loop
    vertex -171.72868765636437 -1.1796487309192172 34.00000000000004
    vertex -172.09045908871056 -1.0297980971622762 32.00000000000004
    vertex -171.72868765636437 -1.1796487309192172 32.000000000000036
  endloop
endfacet
facet normal -0.38268343236509733 -0.9238795325112836 5.0916439515691005e-15
  outer loop
    vertex -172.09045908871056 -1.0297980971622762 32.00000000000004
    vertex -171.72868765636437 -1.1796487309192172 34.00000000000004
    vertex -172.09045908871056 -1.0297980971622762 34.00000000000004
  endloop
endfacet
facet normal -0.6087614290087289 0.7933533402912288 6.308849057666625e-15
  outer loop
    vertex -171.72868765636437 -3.777724942272529 32.00000000000004
    vertex -171.4180274845845 -3.5393470083756915 34.00000000000004
    vertex -171.41802748458457 -3.5393470083756915 32.000000000000036
  endloop
endfacet
facet normal -0.6087614290087289 0.7933533402912288 6.308849057666625e-15
  outer loop
    vertex -171.4180274845845 -3.5393470083756915 34.00000000000004
    vertex -171.72868765636437 -3.777724942272529 32.00000000000004
    vertex -171.72868765636437 -3.777724942272529 34.00000000000004
  endloop
endfacet
facet normal 4.614490607794954e-16 4.614490607808651e-16 1.0
  outer loop
    vertex -199.9786876564281 -54.9786868365601 35.00000000000006
    vertex -174.47054608506855 -53.62868683656011 35.00000000000006
    vertex -199.9786876564281 0.021313163404128053 35.00000000000006
  endloop
endfacet
facet normal 4.614490607794954e-16 4.614490607808651e-16 1.0
  outer loop
    vertex -174.47054608506855 -53.62868683656011 35.00000000000006
    vertex -199.9786876564281 -54.9786868365601 35.00000000000006
    vertex -174.10503325309344 -54.10503243328917 35.00000000000006
  endloop
endfacet
facet normal 4.614490607794954e-16 4.614490607808651e-16 1.0
  outer loop
    vertex -174.10503325309344 -54.10503243328917 35.00000000000006
    vertex -199.9786876564281 -54.9786868365601 35.00000000000006
    vertex -173.62868765636432 -54.47054526526431 35.00000000000006
  endloop
endfacet
facet normal 4.614490607794954e-16 4.614490607808651e-16 1.0
  outer loop
    vertex -173.62868765636432 -54.47054526526431 35.00000000000006
    vertex -199.9786876564281 -54.9786868365601 35.00000000000006
    vertex -173.07397146010015 -54.700316237024964 35.00000000000006
  endloop
endfacet
facet normal 4.614490607794954e-16 4.614490607808651e-16 1.0
  outer loop
    vertex -173.07397146010015 -54.700316237024964 35.00000000000006
    vertex -199.9786876564281 -54.9786868365601 35.00000000000006
    vertex -172.47868765636437 -54.778686836560105 35.00000000000006
  endloop
endfacet
facet normal 4.614490607794954e-16 4.614490607808651e-16 1.0
  outer loop
    vertex -172.47868765636437 -54.778686836560105 35.00000000000006
    vertex -199.9786876564281 -54.9786868365601 35.00000000000006
    vertex -144.9786876563006 -54.9786868365601 35.00000000000006
  endloop
endfacet
facet normal 4.614490607794954e-16 4.614490607808651e-16 1.0
  outer loop
    vertex -199.9786876564281 0.021313163404128053 35.00000000000006
    vertex -174.47054608506855 -53.62868683656011 35.00000000000006
    vertex -174.70031705682916 -53.073970640295904 35.00000000000006
  endloop
endfacet
facet normal 4.614490607794954e-16 4.614490607808651e-16 1.0
  outer loop
    vertex -199.9786876564281 0.021313163404128053 35.00000000000006
    vertex -174.70031705682916 -53.073970640295904 35.00000000000006
    vertex -174.77868765636435 -52.47868683656011 35.00000000000006
  endloop
endfacet
facet normal 4.614490607794954e-16 4.614490607808651e-16 1.0
  outer loop
    vertex -172.47868765636437 -54.778686836560105 35.00000000000006
    vertex -144.9786876563006 -54.9786868365601 35.00000000000006
    vertex -171.88340385262853 -54.700316237024964 35.00000000000006
  endloop
endfacet
facet normal 4.614490607794954e-16 4.614490607808651e-16 1.0
  outer loop
    vertex -171.88340385262853 -54.700316237024964 35.00000000000006
    vertex -144.9786876563006 -54.9786868365601 35.00000000000006
    vertex -171.32868765636437 -54.47054526526431 35.00000000000006
  endloop
endfacet
facet normal 4.614490607794954e-16 4.614490607808651e-16 1.0
  outer loop
    vertex -171.32868765636437 -54.47054526526431 35.00000000000006
    vertex -144.9786876563006 -54.9786868365601 35.00000000000006
    vertex -170.8523420596353 -54.10503243328917 35.00000000000006
  endloop
endfacet
facet normal 4.614490607794954e-16 4.614490607808651e-16 1.0
  outer loop
    vertex -170.8523420596353 -54.10503243328917 35.00000000000006
    vertex -144.9786876563006 -54.9786868365601 35.00000000000006
    vertex -170.48682922766014 -53.62868683656011 35.00000000000006
  endloop
endfacet
facet normal 4.614490607794954e-16 4.614490607808651e-16 1.0
  outer loop
    vertex -170.48682922766014 -53.62868683656011 35.00000000000006
    vertex -144.9786876563006 -54.9786868365601 35.00000000000006
    vertex -170.2570582558995 -53.073970640295904 35.00000000000006
  endloop
endfacet
facet normal 4.614490607794954e-16 4.614490607808651e-16 1.0
  outer loop
    vertex -170.2570582558995 -53.073970640295904 35.00000000000006
    vertex -144.9786876563006 -54.9786868365601 35.00000000000006
    vertex -170.17868765636436 -52.47868683656011 35.00000000000006
  endloop
endfacet
facet normal 4.614490607794954e-16 4.614490607808651e-16 1.0
  outer loop
    vertex -170.17868765636436 -52.47868683656011 35.00000000000006
    vertex -144.9786876563006 -54.9786868365601 35.00000000000006
    vertex -170.17868765636436 -2.4786868365958674 35.000000000000036
  endloop
endfacet
facet normal 4.614490607794954e-16 4.614490607808651e-16 1.0
  outer loop
    vertex -199.9786876564281 0.021313163404128053 35.00000000000006
    vertex -172.47868765636437 -0.1786868365958716 35.00000000000004
    vertex -144.9786876563006 0.021313163404128053 35.0
  endloop
endfacet
facet normal 4.614490607794954e-16 4.614490607808651e-16 1.0
  outer loop
    vertex -172.47868765636437 -0.1786868365958716 35.00000000000004
    vertex -199.9786876564281 0.021313163404128053 35.00000000000006
    vertex -173.07397146010015 -0.25705743613102533 35.00000000000004
  endloop
endfacet
facet normal 4.614490607794954e-16 4.614490607808651e-16 1.0
  outer loop
    vertex -173.07397146010015 -0.25705743613102533 35.00000000000004
    vertex -199.9786876564281 0.021313163404128053 35.00000000000006
    vertex -173.62868765636438 -0.4868284078916635 35.00000000000004
  endloop
endfacet
facet normal 4.614490607794954e-16 4.614490607808651e-16 1.0
  outer loop
    vertex -173.62868765636438 -0.4868284078916635 35.00000000000004
    vertex -199.9786876564281 0.021313163404128053 35.00000000000006
    vertex -174.10503325309344 -0.8523412398668198 35.00000000000005
  endloop
endfacet
facet normal 4.614490607794954e-16 4.614490607808651e-16 1.0
  outer loop
    vertex -174.10503325309344 -0.8523412398668198 35.00000000000005
    vertex -199.9786876564281 0.021313163404128053 35.00000000000006
    vertex -174.47054608506855 -1.3286868365958808 35.00000000000005
  endloop
endfacet
facet normal 4.614490607794954e-16 4.614490607808651e-16 1.0
  outer loop
    vertex -174.47054608506855 -1.3286868365958808 35.00000000000005
    vertex -199.9786876564281 0.021313163404128053 35.00000000000006
    vertex -174.70031705682916 -1.8834030328600728 35.00000000000005
  endloop
endfacet
facet normal 4.614490607794954e-16 4.614490607808651e-16 1.0
  outer loop
    vertex -174.70031705682916 -1.8834030328600728 35.00000000000005
    vertex -199.9786876564281 0.021313163404128053 35.00000000000006
    vertex -174.77868765636435 -2.4786868365958674 35.00000000000005
  endloop
endfacet
facet normal 4.614490607794954e-16 4.614490607808651e-16 1.0
  outer loop
    vertex -174.77868765636435 -2.4786868365958674 35.00000000000005
    vertex -199.9786876564281 0.021313163404128053 35.00000000000006
    vertex -174.77868765636435 -52.47868683656011 35.00000000000006
  endloop
endfacet
facet normal 4.614490607794954e-16 4.614490607808651e-16 1.0
  outer loop
    vertex -144.9786876563006 0.021313163404128053 35.0
    vertex -172.47868765636437 -0.1786868365958716 35.00000000000004
    vertex -171.88340385262853 -0.25705743613101406 35.00000000000004
  endloop
endfacet
facet normal 4.614490607794954e-16 4.614490607808651e-16 1.0
  outer loop
    vertex -144.9786876563006 0.021313163404128053 35.0
    vertex -171.88340385262853 -0.25705743613101406 35.00000000000004
    vertex -171.32868765636437 -0.4868284078916635 35.000000000000036
  endloop
endfacet
facet normal 4.614490607794954e-16 4.614490607808651e-16 1.0
  outer loop
    vertex -144.9786876563006 0.021313163404128053 35.0
    vertex -171.32868765636437 -0.4868284078916635 35.000000000000036
    vertex -170.8523420596353 -0.8523412398668198 35.000000000000036
  endloop
endfacet
facet normal 4.614490607794954e-16 4.614490607808651e-16 1.0
  outer loop
    vertex -144.9786876563006 0.021313163404128053 35.0
    vertex -170.8523420596353 -0.8523412398668198 35.000000000000036
    vertex -170.48682922766014 -1.3286868365958695 35.000000000000036
  endloop
endfacet
facet normal 4.614490607794954e-16 4.614490607808651e-16 1.0
  outer loop
    vertex -144.9786876563006 0.021313163404128053 35.0
    vertex -170.48682922766014 -1.3286868365958695 35.000000000000036
    vertex -170.2570582558995 -1.8834030328600728 35.000000000000036
  endloop
endfacet
facet normal 4.614490607794954e-16 4.614490607808651e-16 1.0
  outer loop
    vertex -144.9786876563006 0.021313163404128053 35.0
    vertex -170.2570582558995 -1.8834030328600728 35.000000000000036
    vertex -170.17868765636436 -2.4786868365958674 35.000000000000036
  endloop
endfacet
facet normal 4.614490607794954e-16 4.614490607808651e-16 1.0
  outer loop
    vertex -144.9786876563006 0.021313163404128053 35.0
    vertex -170.17868765636436 -2.4786868365958674 35.000000000000036
    vertex -144.9786876563006 -54.9786868365601 35.00000000000006
  endloop
endfacet
facet normal 4.614490607794954e-16 4.614490607808651e-16 1.0
  outer loop
    vertex -174.70031705682916 -51.88340303282431 35.00000000000006
    vertex -174.77868765636435 -2.4786868365958674 35.00000000000005
    vertex -174.77868765636435 -52.47868683656011 35.00000000000006
  endloop
endfacet
facet normal 4.614490607794954e-16 4.614490607808651e-16 1.0
  outer loop
    vertex -174.77868765636435 -2.4786868365958674 35.00000000000005
    vertex -174.70031705682916 -51.88340303282431 35.00000000000006
    vertex -174.70031705682916 -3.073970640331673 35.00000000000005
  endloop
endfacet
facet normal 4.614490607794954e-16 4.614490607808651e-16 1.0
  outer loop
    vertex -174.70031705682916 -3.073970640331673 35.00000000000005
    vertex -174.70031705682916 -51.88340303282431 35.00000000000006
    vertex -174.47054608506855 -51.32868683656011 35.00000000000006
  endloop
endfacet
facet normal 4.614490607794954e-16 4.614490607808651e-16 1.0
  outer loop
    vertex -174.70031705682916 -3.073970640331673 35.00000000000005
    vertex -174.47054608506855 -51.32868683656011 35.00000000000006
    vertex -174.47054608506855 -3.6286868365958767 35.00000000000005
  endloop
endfacet
facet normal 4.614490607794954e-16 4.614490607808651e-16 1.0
  outer loop
    vertex -174.47054608506855 -3.6286868365958767 35.00000000000005
    vertex -174.47054608506855 -51.32868683656011 35.00000000000006
    vertex -174.10503325309344 -50.85234123983105 35.00000000000006
  endloop
endfacet
facet normal 4.614490607794954e-16 4.614490607808651e-16 1.0
  outer loop
    vertex -174.47054608506855 -3.6286868365958767 35.00000000000005
    vertex -174.10503325309344 -50.85234123983105 35.00000000000006
    vertex -174.10503325309344 -4.105032433324927 35.00000000000005
  endloop
endfacet
facet normal 4.614490607794954e-16 4.614490607808651e-16 1.0
  outer loop
    vertex -174.10503325309344 -4.105032433324927 35.00000000000005
    vertex -174.10503325309344 -50.85234123983105 35.00000000000006
    vertex -173.62868765636438 -50.4868284078559 35.00000000000006
  endloop
endfacet
facet normal 4.614490607794954e-16 4.614490607808651e-16 1.0
  outer loop
    vertex -174.10503325309344 -4.105032433324927 35.00000000000005
    vertex -173.62868765636438 -50.4868284078559 35.00000000000006
    vertex -173.62868765636432 -4.470545265300083 35.00000000000005
  endloop
endfacet
facet normal 4.614490607794954e-16 4.614490607808651e-16 1.0
  outer loop
    vertex -173.62868765636432 -4.470545265300083 35.00000000000005
    vertex -173.62868765636438 -50.4868284078559 35.00000000000006
    vertex -173.07397146010015 -50.25705743609525 35.00000000000006
  endloop
endfacet
facet normal 4.614490607794954e-16 4.614490607808651e-16 1.0
  outer loop
    vertex -173.62868765636432 -4.470545265300083 35.00000000000005
    vertex -173.07397146010015 -50.25705743609525 35.00000000000006
    vertex -173.07397146010015 -4.700316237060732 35.00000000000004
  endloop
endfacet
facet normal 4.614490607794954e-16 4.614490607808651e-16 1.0
  outer loop
    vertex -173.07397146010015 -4.700316237060732 35.00000000000004
    vertex -173.07397146010015 -50.25705743609525 35.00000000000006
    vertex -172.47868765636437 -50.17868683656011 35.00000000000006
  endloop
endfacet
facet normal 4.614490607794954e-16 4.614490607808651e-16 1.0
  outer loop
    vertex -173.07397146010015 -4.700316237060732 35.00000000000004
    vertex -172.47868765636437 -50.17868683656011 35.00000000000006
    vertex -172.47868765636437 -4.778686836595863 35.00000000000004
  endloop
endfacet
facet normal 4.614490607794954e-16 4.614490607808651e-16 1.0
  outer loop
    vertex -172.47868765636437 -4.778686836595863 35.00000000000004
    vertex -172.47868765636437 -50.17868683656011 35.00000000000006
    vertex -171.88340385262853 -50.25705743609525 35.00000000000006
  endloop
endfacet
facet normal 4.614490607794954e-16 4.614490607808651e-16 1.0
  outer loop
    vertex -172.47868765636437 -4.778686836595863 35.00000000000004
    vertex -171.88340385262853 -50.25705743609525 35.00000000000006
    vertex -171.88340385262853 -4.700316237060732 35.00000000000004
  endloop
endfacet
facet normal 4.614490607794954e-16 4.614490607808651e-16 1.0
  outer loop
    vertex -171.88340385262853 -4.700316237060732 35.00000000000004
    vertex -171.88340385262853 -50.25705743609525 35.00000000000006
    vertex -171.32868765636437 -50.4868284078559 35.00000000000006
  endloop
endfacet
facet normal 4.614490607794954e-16 4.614490607808651e-16 1.0
  outer loop
    vertex -171.88340385262853 -4.700316237060732 35.00000000000004
    vertex -171.32868765636437 -50.4868284078559 35.00000000000006
    vertex -171.32868765636437 -4.470545265300083 35.00000000000004
  endloop
endfacet
facet normal 4.614490607794954e-16 4.614490607808651e-16 1.0
  outer loop
    vertex -171.32868765636437 -4.470545265300083 35.00000000000004
    vertex -171.32868765636437 -50.4868284078559 35.00000000000006
    vertex -170.8523420596353 -50.85234123983105 35.00000000000006
  endloop
endfacet
facet normal 4.614490607794954e-16 4.614490607808651e-16 1.0
  outer loop
    vertex -171.32868765636437 -4.470545265300083 35.00000000000004
    vertex -170.8523420596353 -50.85234123983105 35.00000000000006
    vertex -170.8523420596353 -4.105032433324927 35.000000000000036
  endloop
endfacet
facet normal 4.614490607794954e-16 4.614490607808651e-16 1.0
  outer loop
    vertex -170.8523420596353 -4.105032433324927 35.000000000000036
    vertex -170.8523420596353 -50.85234123983105 35.00000000000006
    vertex -170.48682922766014 -51.32868683656011 35.00000000000006
  endloop
endfacet
facet normal 4.614490607794954e-16 4.614490607808651e-16 1.0
  outer loop
    vertex -170.8523420596353 -4.105032433324927 35.000000000000036
    vertex -170.48682922766014 -51.32868683656011 35.00000000000006
    vertex -170.48682922766014 -3.628686836595865 35.000000000000036
  endloop
endfacet
facet normal 4.614490607794954e-16 4.614490607808651e-16 1.0
  outer loop
    vertex -170.48682922766014 -3.628686836595865 35.000000000000036
    vertex -170.48682922766014 -51.32868683656011 35.00000000000006
    vertex -170.2570582558995 -51.88340303282431 35.00000000000006
  endloop
endfacet
facet normal 4.614490607794954e-16 4.614490607808651e-16 1.0
  outer loop
    vertex -170.48682922766014 -3.628686836595865 35.000000000000036
    vertex -170.2570582558995 -51.88340303282431 35.00000000000006
    vertex -170.2570582558995 -3.073970640331673 35.000000000000036
  endloop
endfacet
facet normal 4.614490607794954e-16 4.614490607808651e-16 1.0
  outer loop
    vertex -170.2570582558995 -3.073970640331673 35.000000000000036
    vertex -170.2570582558995 -51.88340303282431 35.00000000000006
    vertex -170.17868765636436 -52.47868683656011 35.00000000000006
  endloop
endfacet
facet normal 4.614490607794954e-16 4.614490607808651e-16 1.0
  outer loop
    vertex -170.2570582558995 -3.073970640331673 35.000000000000036
    vertex -170.17868765636436 -52.47868683656011 35.00000000000006
    vertex -170.17868765636436 -2.4786868365958674 35.000000000000036
  endloop
endfacet
facet normal -3.7986594515943887e-31 1.0 -4.3581300184859483e-16
  outer loop
    vertex -199.9786876564281 0.021313163404128053 32.00000000000006
    vertex -144.9786876563006 0.021313163404128053 35.0
    vertex -144.9786876563006 0.021313163404128053 32.00000000000001
  endloop
endfacet
facet normal -3.7986594515943887e-31 1.0 -4.3581300184859483e-16
  outer loop
    vertex -144.9786876563006 0.021313163404128053 35.0
    vertex -199.9786876564281 0.021313163404128053 32.00000000000006
    vertex -199.9786876564281 0.021313163404128053 35.00000000000006
  endloop
endfacet
facet normal 1.0 -3.7986594515943887e-31 -4.35813001847301e-16
  outer loop
    vertex -144.9786876563006 0.021313163404128053 32.00000000000001
    vertex -144.9786876563006 -54.9786868365601 35.00000000000006
    vertex -144.9786876563006 -54.9786868365601 32.00000000000006
  endloop
endfacet
facet normal 1.0 -3.7986594515943887e-31 -4.35813001847301e-16
  outer loop
    vertex -144.9786876563006 -54.9786868365601 35.00000000000006
    vertex -144.9786876563006 0.021313163404128053 32.00000000000001
    vertex -144.9786876563006 0.021313163404128053 35.0
  endloop
endfacet
facet normal 0.0 -1.0 4.3581300184859483e-16
  outer loop
    vertex -144.9786876563006 -54.9786868365601 35.00000000000006
    vertex -199.9786876564281 -54.9786868365601 32.00000000000006
    vertex -144.9786876563006 -54.9786868365601 32.00000000000006
  endloop
endfacet
facet normal 0.0 -1.0 4.3581300184859483e-16
  outer loop
    vertex -199.9786876564281 -54.9786868365601 32.00000000000006
    vertex -144.9786876563006 -54.9786868365601 35.00000000000006
    vertex -199.9786876564281 -54.9786868365601 35.00000000000006
  endloop
endfacet
facet normal -1.0 0.0 4.35813001847301e-16
  outer loop
    vertex -199.9786876564281 0.021313163404128053 35.00000000000006
    vertex -199.9786876564281 -54.9786868365601 32.00000000000006
    vertex -199.9786876564281 -54.9786868365601 35.00000000000006
  endloop
endfacet
facet normal -1.0 0.0 4.35813001847301e-16
  outer loop
    vertex -199.9786876564281 -54.9786868365601 32.00000000000006
    vertex -199.9786876564281 0.021313163404128053 35.00000000000006
    vertex -199.9786876564281 0.021313163404128053 32.00000000000006
  endloop
endfacet
facet normal -4.3581300184730095e-16 -4.3581300184859483e-16 -1.0
  outer loop
    vertex -199.9786876564281 0.021313163404128053 32.00000000000006
    vertex -173.77772576204103 -1.72868683659588 32.00000000000005
    vertex -199.9786876564281 -54.9786868365601 32.00000000000006
  endloop
endfacet
facet normal -4.3581300184730095e-16 -4.3581300184859483e-16 -1.0
  outer loop
    vertex -173.77772576204103 -1.72868683659588 32.00000000000005
    vertex -199.9786876564281 0.021313163404128053 32.00000000000006
    vertex -173.53934782814417 -1.4180266648160547 32.00000000000005
  endloop
endfacet
facet normal -4.3581300184730095e-16 -4.3581300184859483e-16 -1.0
  outer loop
    vertex -173.53934782814417 -1.4180266648160547 32.00000000000005
    vertex -199.9786876564281 0.021313163404128053 32.00000000000006
    vertex -173.22868765636437 -1.1796487309192172 32.00000000000004
  endloop
endfacet
facet normal -4.3581300184730095e-16 -4.3581300184859483e-16 -1.0
  outer loop
    vertex -173.22868765636437 -1.1796487309192172 32.00000000000004
    vertex -199.9786876564281 0.021313163404128053 32.00000000000006
    vertex -172.86691622401818 -1.0297980971622762 32.00000000000004
  endloop
endfacet
facet normal -4.3581300184730095e-16 -4.3581300184859483e-16 -1.0
  outer loop
    vertex -172.86691622401818 -1.0297980971622762 32.00000000000004
    vertex -199.9786876564281 0.021313163404128053 32.00000000000006
    vertex -172.47868765636437 -0.9786868365958814 32.00000000000004
  endloop
endfacet
facet normal -4.3581300184730095e-16 -4.3581300184859483e-16 -1.0
  outer loop
    vertex -172.47868765636437 -0.9786868365958814 32.00000000000004
    vertex -199.9786876564281 0.021313163404128053 32.00000000000006
    vertex -144.9786876563006 0.021313163404128053 32.00000000000001
  endloop
endfacet
facet normal -4.3581300184730095e-16 -4.3581300184859483e-16 -1.0
  outer loop
    vertex -199.9786876564281 -54.9786868365601 32.00000000000006
    vertex -173.77772576204103 -1.72868683659588 32.00000000000005
    vertex -173.92757639579798 -2.090458268942089 32.00000000000005
  endloop
endfacet
facet normal -4.3581300184730095e-16 -4.3581300184859483e-16 -1.0
  outer loop
    vertex -199.9786876564281 -54.9786868365601 32.00000000000006
    vertex -173.92757639579798 -2.090458268942089 32.00000000000005
    vertex -173.9786876563644 -2.4786868365958785 32.00000000000005
  endloop
endfacet
facet normal -4.3581300184730095e-16 -4.3581300184859483e-16 -1.0
  outer loop
    vertex -172.47868765636437 -0.9786868365958814 32.00000000000004
    vertex -144.9786876563006 0.021313163404128053 32.00000000000001
    vertex -172.09045908871056 -1.0297980971622762 32.00000000000004
  endloop
endfacet
facet normal -4.3581300184730095e-16 -4.3581300184859483e-16 -1.0
  outer loop
    vertex -172.09045908871056 -1.0297980971622762 32.00000000000004
    vertex -144.9786876563006 0.021313163404128053 32.00000000000001
    vertex -171.72868765636437 -1.1796487309192172 32.000000000000036
  endloop
endfacet
facet normal -4.3581300184730095e-16 -4.3581300184859483e-16 -1.0
  outer loop
    vertex -171.72868765636437 -1.1796487309192172 32.000000000000036
    vertex -144.9786876563006 0.021313163404128053 32.00000000000001
    vertex -171.41802748458457 -1.4180266648160547 32.000000000000036
  endloop
endfacet
facet normal -4.3581300184730095e-16 -4.3581300184859483e-16 -1.0
  outer loop
    vertex -171.41802748458457 -1.4180266648160547 32.000000000000036
    vertex -144.9786876563006 0.021313163404128053 32.00000000000001
    vertex -171.17964955068769 -1.72868683659588 32.000000000000036
  endloop
endfacet
facet normal -4.3581300184730095e-16 -4.3581300184859483e-16 -1.0
  outer loop
    vertex -171.17964955068769 -1.72868683659588 32.000000000000036
    vertex -144.9786876563006 0.021313163404128053 32.00000000000001
    vertex -171.02979891693076 -2.090458268942089 32.000000000000036
  endloop
endfacet
facet normal -4.3581300184730095e-16 -4.3581300184859483e-16 -1.0
  outer loop
    vertex -171.02979891693076 -2.090458268942089 32.000000000000036
    vertex -144.9786876563006 0.021313163404128053 32.00000000000001
    vertex -170.97868765636434 -2.4786868365958785 32.000000000000036
  endloop
endfacet
facet normal -4.3581300184730095e-16 -4.3581300184859483e-16 -1.0
  outer loop
    vertex -170.97868765636434 -2.4786868365958785 32.000000000000036
    vertex -144.9786876563006 0.021313163404128053 32.00000000000001
    vertex -170.97868765636434 -52.47868683656011 32.00000000000006
  endloop
endfacet
facet normal -4.3581300184730095e-16 -4.3581300184859483e-16 -1.0
  outer loop
    vertex -199.9786876564281 -54.9786868365601 32.00000000000006
    vertex -172.47868765636437 -53.97868683656011 32.00000000000006
    vertex -144.9786876563006 -54.9786868365601 32.00000000000006
  endloop
endfacet
facet normal -4.3581300184730095e-16 -4.3581300184859483e-16 -1.0
  outer loop
    vertex -172.47868765636437 -53.97868683656011 32.00000000000006
    vertex -199.9786876564281 -54.9786868365601 32.00000000000006
    vertex -172.86691622401813 -53.927575575993714 32.00000000000006
  endloop
endfacet
facet normal -4.3581300184730095e-16 -4.3581300184859483e-16 -1.0
  outer loop
    vertex -172.86691622401813 -53.927575575993714 32.00000000000006
    vertex -199.9786876564281 -54.9786868365601 32.00000000000006
    vertex -173.22868765636434 -53.77772494223676 32.00000000000006
  endloop
endfacet
facet normal -4.3581300184730095e-16 -4.3581300184859483e-16 -1.0
  outer loop
    vertex -173.22868765636434 -53.77772494223676 32.00000000000006
    vertex -199.9786876564281 -54.9786868365601 32.00000000000006
    vertex -173.53934782814417 -53.53934700833993 32.00000000000006
  endloop
endfacet
facet normal -4.3581300184730095e-16 -4.3581300184859483e-16 -1.0
  outer loop
    vertex -173.53934782814417 -53.53934700833993 32.00000000000006
    vertex -199.9786876564281 -54.9786868365601 32.00000000000006
    vertex -173.777725762041 -53.22868683656011 32.00000000000006
  endloop
endfacet
facet normal -4.3581300184730095e-16 -4.3581300184859483e-16 -1.0
  outer loop
    vertex -173.777725762041 -53.22868683656011 32.00000000000006
    vertex -199.9786876564281 -54.9786868365601 32.00000000000006
    vertex -173.92757639579798 -52.866915404213884 32.00000000000006
  endloop
endfacet
facet normal -4.3581300184730095e-16 -4.3581300184859483e-16 -1.0
  outer loop
    vertex -173.92757639579798 -52.866915404213884 32.00000000000006
    vertex -199.9786876564281 -54.9786868365601 32.00000000000006
    vertex -173.97868765636434 -52.47868683656011 32.00000000000006
  endloop
endfacet
facet normal -4.3581300184730095e-16 -4.3581300184859483e-16 -1.0
  outer loop
    vertex -173.97868765636434 -52.47868683656011 32.00000000000006
    vertex -199.9786876564281 -54.9786868365601 32.00000000000006
    vertex -173.9786876563644 -2.4786868365958785 32.00000000000005
  endloop
endfacet
facet normal -4.3581300184730095e-16 -4.3581300184859483e-16 -1.0
  outer loop
    vertex -144.9786876563006 -54.9786868365601 32.00000000000006
    vertex -172.47868765636437 -53.97868683656011 32.00000000000006
    vertex -172.09045908871056 -53.927575575993714 32.00000000000006
  endloop
endfacet
facet normal -4.3581300184730095e-16 -4.3581300184859483e-16 -1.0
  outer loop
    vertex -144.9786876563006 -54.9786868365601 32.00000000000006
    vertex -172.09045908871056 -53.927575575993714 32.00000000000006
    vertex -171.72868765636437 -53.77772494223676 32.00000000000006
  endloop
endfacet
facet normal -4.3581300184730095e-16 -4.3581300184859483e-16 -1.0
  outer loop
    vertex -144.9786876563006 -54.9786868365601 32.00000000000006
    vertex -171.72868765636437 -53.77772494223676 32.00000000000006
    vertex -171.4180274845845 -53.53934700833993 32.00000000000006
  endloop
endfacet
facet normal -4.3581300184730095e-16 -4.3581300184859483e-16 -1.0
  outer loop
    vertex -144.9786876563006 -54.9786868365601 32.00000000000006
    vertex -171.4180274845845 -53.53934700833993 32.00000000000006
    vertex -171.17964955068769 -53.22868683656011 32.00000000000006
  endloop
endfacet
facet normal -4.3581300184730095e-16 -4.3581300184859483e-16 -1.0
  outer loop
    vertex -144.9786876563006 -54.9786868365601 32.00000000000006
    vertex -171.17964955068769 -53.22868683656011 32.00000000000006
    vertex -171.02979891693076 -52.866915404213884 32.00000000000006
  endloop
endfacet
facet normal -4.3581300184730095e-16 -4.3581300184859483e-16 -1.0
  outer loop
    vertex -144.9786876563006 -54.9786868365601 32.00000000000006
    vertex -171.02979891693076 -52.866915404213884 32.00000000000006
    vertex -170.97868765636434 -52.47868683656011 32.00000000000006
  endloop
endfacet
facet normal -4.3581300184730095e-16 -4.3581300184859483e-16 -1.0
  outer loop
    vertex -144.9786876563006 -54.9786868365601 32.00000000000006
    vertex -170.97868765636434 -52.47868683656011 32.00000000000006
    vertex -144.9786876563006 0.021313163404128053 32.00000000000001
  endloop
endfacet
facet normal -4.3581300184730095e-16 -4.3581300184859483e-16 -1.0
  outer loop
    vertex -173.92757639579798 -2.866915404249657 32.00000000000005
    vertex -173.97868765636434 -52.47868683656011 32.00000000000006
    vertex -173.9786876563644 -2.4786868365958785 32.00000000000005
  endloop
endfacet
facet normal -4.3581300184730095e-16 -4.3581300184859483e-16 -1.0
  outer loop
    vertex -173.97868765636434 -52.47868683656011 32.00000000000006
    vertex -173.92757639579798 -2.866915404249657 32.00000000000005
    vertex -173.92757639579798 -52.09045826890633 32.00000000000006
  endloop
endfacet
facet normal -4.3581300184730095e-16 -4.3581300184859483e-16 -1.0
  outer loop
    vertex -173.92757639579798 -52.09045826890633 32.00000000000006
    vertex -173.92757639579798 -2.866915404249657 32.00000000000005
    vertex -173.77772576204103 -3.228686836595877 32.00000000000005
  endloop
endfacet
facet normal -4.3581300184730095e-16 -4.3581300184859483e-16 -1.0
  outer loop
    vertex -173.92757639579798 -52.09045826890633 32.00000000000006
    vertex -173.77772576204103 -3.228686836595877 32.00000000000005
    vertex -173.777725762041 -51.72868683656011 32.00000000000006
  endloop
endfacet
facet normal -4.3581300184730095e-16 -4.3581300184859483e-16 -1.0
  outer loop
    vertex -173.777725762041 -51.72868683656011 32.00000000000006
    vertex -173.77772576204103 -3.228686836595877 32.00000000000005
    vertex -173.53934782814417 -3.5393470083756915 32.00000000000005
  endloop
endfacet
facet normal -4.3581300184730095e-16 -4.3581300184859483e-16 -1.0
  outer loop
    vertex -173.777725762041 -51.72868683656011 32.00000000000006
    vertex -173.53934782814417 -3.5393470083756915 32.00000000000005
    vertex -173.53934782814417 -51.418026664780285 32.00000000000006
  endloop
endfacet
facet normal -4.3581300184730095e-16 -4.3581300184859483e-16 -1.0
  outer loop
    vertex -173.53934782814417 -51.418026664780285 32.00000000000006
    vertex -173.53934782814417 -3.5393470083756915 32.00000000000005
    vertex -173.22868765636437 -3.777724942272529 32.00000000000005
  endloop
endfacet
facet normal -4.3581300184730095e-16 -4.3581300184859483e-16 -1.0
  outer loop
    vertex -173.53934782814417 -51.418026664780285 32.00000000000006
    vertex -173.22868765636437 -3.777724942272529 32.00000000000005
    vertex -173.22868765636437 -51.17964873088346 32.00000000000006
  endloop
endfacet
facet normal -4.3581300184730095e-16 -4.3581300184859483e-16 -1.0
  outer loop
    vertex -173.22868765636437 -51.17964873088346 32.00000000000006
    vertex -173.22868765636437 -3.777724942272529 32.00000000000005
    vertex -172.86691622401818 -3.92757557602947 32.00000000000004
  endloop
endfacet
facet normal -4.3581300184730095e-16 -4.3581300184859483e-16 -1.0
  outer loop
    vertex -173.22868765636437 -51.17964873088346 32.00000000000006
    vertex -172.86691622401818 -3.92757557602947 32.00000000000004
    vertex -172.86691622401813 -51.02979809712651 32.00000000000006
  endloop
endfacet
facet normal -4.3581300184730095e-16 -4.3581300184859483e-16 -1.0
  outer loop
    vertex -172.86691622401813 -51.02979809712651 32.00000000000006
    vertex -172.86691622401818 -3.92757557602947 32.00000000000004
    vertex -172.47868765636437 -3.978686836595876 32.00000000000004
  endloop
endfacet
facet normal -4.3581300184730095e-16 -4.3581300184859483e-16 -1.0
  outer loop
    vertex -172.86691622401813 -51.02979809712651 32.00000000000006
    vertex -172.47868765636437 -3.978686836595876 32.00000000000004
    vertex -172.47868765636437 -50.97868683656011 32.00000000000006
  endloop
endfacet
facet normal -4.3581300184730095e-16 -4.3581300184859483e-16 -1.0
  outer loop
    vertex -172.47868765636437 -50.97868683656011 32.00000000000006
    vertex -172.47868765636437 -3.978686836595876 32.00000000000004
    vertex -172.09045908871056 -3.92757557602947 32.00000000000004
  endloop
endfacet
facet normal -4.3581300184730095e-16 -4.3581300184859483e-16 -1.0
  outer loop
    vertex -172.47868765636437 -50.97868683656011 32.00000000000006
    vertex -172.09045908871056 -3.92757557602947 32.00000000000004
    vertex -172.09045908871056 -51.02979809712651 32.00000000000006
  endloop
endfacet
facet normal -4.3581300184730095e-16 -4.3581300184859483e-16 -1.0
  outer loop
    vertex -172.09045908871056 -51.02979809712651 32.00000000000006
    vertex -172.09045908871056 -3.92757557602947 32.00000000000004
    vertex -171.72868765636437 -3.777724942272529 32.00000000000004
  endloop
endfacet
facet normal -4.3581300184730095e-16 -4.3581300184859483e-16 -1.0
  outer loop
    vertex -172.09045908871056 -51.02979809712651 32.00000000000006
    vertex -171.72868765636437 -3.777724942272529 32.00000000000004
    vertex -171.72868765636437 -51.17964873088345 32.00000000000006
  endloop
endfacet
facet normal -4.3581300184730095e-16 -4.3581300184859483e-16 -1.0
  outer loop
    vertex -171.72868765636437 -51.17964873088345 32.00000000000006
    vertex -171.72868765636437 -3.777724942272529 32.00000000000004
    vertex -171.41802748458457 -3.5393470083756915 32.000000000000036
  endloop
endfacet
facet normal -4.3581300184730095e-16 -4.3581300184859483e-16 -1.0
  outer loop
    vertex -171.72868765636437 -51.17964873088345 32.00000000000006
    vertex -171.41802748458457 -3.5393470083756915 32.000000000000036
    vertex -171.4180274845845 -51.418026664780285 32.00000000000006
  endloop
endfacet
facet normal -4.3581300184730095e-16 -4.3581300184859483e-16 -1.0
  outer loop
    vertex -171.4180274845845 -51.418026664780285 32.00000000000006
    vertex -171.41802748458457 -3.5393470083756915 32.000000000000036
    vertex -171.17964955068769 -3.228686836595877 32.000000000000036
  endloop
endfacet
facet normal -4.3581300184730095e-16 -4.3581300184859483e-16 -1.0
  outer loop
    vertex -171.4180274845845 -51.418026664780285 32.00000000000006
    vertex -171.17964955068769 -3.228686836595877 32.000000000000036
    vertex -171.17964955068769 -51.72868683656011 32.00000000000006
  endloop
endfacet
facet normal -4.3581300184730095e-16 -4.3581300184859483e-16 -1.0
  outer loop
    vertex -171.17964955068769 -51.72868683656011 32.00000000000006
    vertex -171.17964955068769 -3.228686836595877 32.000000000000036
    vertex -171.02979891693076 -2.866915404249657 32.000000000000036
  endloop
endfacet
facet normal -4.3581300184730095e-16 -4.3581300184859483e-16 -1.0
  outer loop
    vertex -171.17964955068769 -51.72868683656011 32.00000000000006
    vertex -171.02979891693076 -2.866915404249657 32.000000000000036
    vertex -171.02979891693076 -52.09045826890633 32.00000000000006
  endloop
endfacet
facet normal -4.3581300184730095e-16 -4.3581300184859483e-16 -1.0
  outer loop
    vertex -171.02979891693076 -52.09045826890633 32.00000000000006
    vertex -171.02979891693076 -2.866915404249657 32.000000000000036
    vertex -170.97868765636434 -2.4786868365958785 32.000000000000036
  endloop
endfacet
facet normal -4.3581300184730095e-16 -4.3581300184859483e-16 -1.0
  outer loop
    vertex -171.02979891693076 -52.09045826890633 32.00000000000006
    vertex -170.97868765636434 -2.4786868365958785 32.000000000000036
    vertex -170.97868765636434 -52.47868683656011 32.00000000000006
  endloop
endfacet
endsolid crane
