solid crane
facet normal 0.6087614290087167 0.0 0.7933533402912383
  outer loop
    vertex -392.426361553416 42.25127817644887 306.2026524079472
    vertex -393.15123528756885 45.251278176448864 306.75886758703984
    vertex -393.15123528756885 42.25127817644887 306.75886758703984
  endloop
endfacet
facet normal 0.6087614290087167 0.0 0.7933533402912383
  outer loop
    vertex -393.15123528756885 45.251278176448864 306.75886758703984
    vertex -392.426361553416 42.25127817644887 306.2026524079472
    vertex -392.426361553416 45.251278176448864 306.2026524079472
  endloop
endfacet
facet normal -0.13052619222005155 0.0 0.9914448613738105
  outer loop
    vertex -394.90123528756885 42.25127817644887 307.22777867379426
    vertex -395.8071019454277 45.251278176448864 307.10851906580604
    vertex -395.8071019454277 42.25127817644887 307.10851906580604
  endloop
endfacet
facet normal -0.13052619222005155 0.0 0.9914448613738105
  outer loop
    vertex -395.8071019454277 45.251278176448864 307.10851906580604
    vertex -394.90123528756885 42.25127817644887 307.22777867379426
    vertex -394.90123528756885 45.251278176448864 307.22777867379426
  endloop
endfacet
facet normal -0.9914448613738108 -0.0 -0.13052619222004852
  outer loop
    vertex -398.40123528756885 45.251278176448864 303.72777867379426
    vertex -398.2819756795806 42.25127817644887 302.8219120159355
    vertex -398.40123528756885 42.25127817644887 303.72777867379426
  endloop
endfacet
facet normal -0.9914448613738108 -0.0 -0.13052619222004852
  outer loop
    vertex -398.2819756795806 42.25127817644887 302.8219120159355
    vertex -398.40123528756885 45.251278176448864 303.72777867379426
    vertex -398.2819756795806 45.251278176448864 302.8219120159355
  endloop
endfacet
facet normal 0.9914448613738108 0.0 -0.13052619222004852
  outer loop
    vertex -391.52049489555714 45.251278176448864 302.8219120159355
    vertex -391.4012352875689 42.25127817644887 303.72777867379426
    vertex -391.52049489555714 42.25127817644887 302.8219120159355
  endloop
endfacet
facet normal 0.9914448613738108 0.0 -0.13052619222004852
  outer loop
    vertex -391.4012352875689 42.25127817644887 303.72777867379426
    vertex -391.52049489555714 45.251278176448864 302.8219120159355
    vertex -391.4012352875689 45.251278176448864 303.72777867379426
  endloop
endfacet
facet normal 0.9238795325112859 0.0 -0.3826834323650921
  outer loop
    vertex -391.8701463743233 45.251278176448864 301.97777867379426
    vertex -391.52049489555714 42.25127817644887 302.8219120159355
    vertex -391.8701463743233 42.25127817644887 301.97777867379426
  endloop
endfacet
facet normal 0.9238795325112859 0.0 -0.3826834323650921
  outer loop
    vertex -391.52049489555714 42.25127817644887 302.8219120159355
    vertex -391.8701463743233 45.251278176448864 301.97777867379426
    vertex -391.52049489555714 45.251278176448864 302.8219120159355
  endloop
endfacet
facet normal -0.0 -1.0 -0.0
  outer loop
    vertex -393.99536862971 42.25127817644887 300.34703828178255
    vertex -395.8071019454277 42.25127817644887 300.34703828178255
    vertex -394.90123528756885 42.25127817644887 300.22777867379426
  endloop
endfacet
facet normal -0.0 -1.0 -0.0
  outer loop
    vertex -395.8071019454277 42.25127817644887 300.34703828178255
    vertex -393.99536862971 42.25127817644887 300.34703828178255
    vertex -393.15123528756885 42.25127817644887 300.69668976054874
  endloop
endfacet
facet normal -0.0 -1.0 -0.0
  outer loop
    vertex -395.8071019454277 42.25127817644887 300.34703828178255
    vertex -393.15123528756885 42.25127817644887 300.69668976054874
    vertex -396.65123528756885 42.25127817644887 300.69668976054874
  endloop
endfacet
facet normal -0.0 -1.0 -0.0
  outer loop
    vertex -396.65123528756885 42.25127817644887 300.69668976054874
    vertex -393.15123528756885 42.25127817644887 300.69668976054874
    vertex -392.426361553416 42.25127817644887 301.2529049396413
  endloop
endfacet
facet normal -0.0 -1.0 -0.0
  outer loop
    vertex -396.65123528756885 42.25127817644887 300.69668976054874
    vertex -392.426361553416 42.25127817644887 301.2529049396413
    vertex -397.3761090217218 42.25127817644887 301.2529049396413
  endloop
endfacet
facet normal -0.0 -1.0 -0.0
  outer loop
    vertex -397.3761090217218 42.25127817644887 301.2529049396413
    vertex -392.426361553416 42.25127817644887 301.2529049396413
    vertex -391.8701463743233 42.25127817644887 301.97777867379426
  endloop
endfacet
facet normal -0.0 -1.0 -0.0
  outer loop
    vertex -397.3761090217218 42.25127817644887 301.2529049396413
    vertex -391.8701463743233 42.25127817644887 301.97777867379426
    vertex -397.9323242008144 42.25127817644887 301.97777867379426
  endloop
endfacet
facet normal -0.0 -1.0 -0.0
  outer loop
    vertex -397.9323242008144 42.25127817644887 301.97777867379426
    vertex -391.8701463743233 42.25127817644887 301.97777867379426
    vertex -391.52049489555714 42.25127817644887 302.8219120159355
  endloop
endfacet
facet normal -0.0 -1.0 -0.0
  outer loop
    vertex -397.9323242008144 42.25127817644887 301.97777867379426
    vertex -391.52049489555714 42.25127817644887 302.8219120159355
    vertex -394.90123528756885 42.25127817644887 302.7277786737943
  endloop
endfacet
facet normal -0.0 -1.0 -0.0
  outer loop
    vertex -394.90123528756885 42.25127817644887 302.7277786737943
    vertex -391.52049489555714 42.25127817644887 302.8219120159355
    vertex -394.64241624246637 42.25127817644887 302.7618528475052
  endloop
endfacet
facet normal -0.0 -1.0 -0.0
  outer loop
    vertex -394.64241624246637 42.25127817644887 302.7618528475052
    vertex -391.52049489555714 42.25127817644887 302.8219120159355
    vertex -394.4012352875689 42.25127817644887 302.86175327000984
  endloop
endfacet
facet normal -0.0 -1.0 -0.0
  outer loop
    vertex -394.4012352875689 42.25127817644887 302.86175327000984
    vertex -391.52049489555714 42.25127817644887 302.8219120159355
    vertex -391.4012352875689 42.25127817644887 303.72777867379426
  endloop
endfacet
facet normal -0.0 -1.0 -0.0
  outer loop
    vertex -394.4012352875689 42.25127817644887 302.86175327000984
    vertex -391.4012352875689 42.25127817644887 303.72777867379426
    vertex -394.1941285063823 42.25127817644887 303.02067189260777
  endloop
endfacet
facet normal -0.0 -1.0 -0.0
  outer loop
    vertex -394.1941285063823 42.25127817644887 303.02067189260777
    vertex -391.4012352875689 42.25127817644887 303.72777867379426
    vertex -394.03520988378443 42.25127817644887 303.22777867379426
  endloop
endfacet
facet normal -0.0 -1.0 -0.0
  outer loop
    vertex -394.03520988378443 42.25127817644887 303.22777867379426
    vertex -391.4012352875689 42.25127817644887 303.72777867379426
    vertex -393.93530946127976 42.25127817644887 303.4689596286918
  endloop
endfacet
facet normal -0.0 -1.0 -0.0
  outer loop
    vertex -393.93530946127976 42.25127817644887 303.4689596286918
    vertex -391.4012352875689 42.25127817644887 303.72777867379426
    vertex -393.90123528756885 42.25127817644887 303.72777867379426
  endloop
endfacet
facet normal -0.0 -1.0 -0.0
  outer loop
    vertex -393.90123528756885 42.25127817644887 303.72777867379426
    vertex -391.4012352875689 42.25127817644887 303.72777867379426
    vertex -393.9353094612798 42.25127817644887 303.9865977188968
  endloop
endfacet
facet normal -0.0 -1.0 -0.0
  outer loop
    vertex -393.9353094612798 42.25127817644887 303.9865977188968
    vertex -391.4012352875689 42.25127817644887 303.72777867379426
    vertex -391.52049489555714 42.25127817644887 304.6336453316531
  endloop
endfacet
facet normal -0.0 -1.0 -0.0
  outer loop
    vertex -393.9353094612798 42.25127817644887 303.9865977188968
    vertex -391.52049489555714 42.25127817644887 304.6336453316531
    vertex -394.03520988378443 42.25127817644887 304.22777867379426
  endloop
endfacet
facet normal -0.0 -1.0 -0.0
  outer loop
    vertex -394.03520988378443 42.25127817644887 304.22777867379426
    vertex -391.52049489555714 42.25127817644887 304.6336453316531
    vertex -394.1941285063823 42.25127817644887 304.4348854549808
  endloop
endfacet
facet normal -0.0 -1.0 -0.0
  outer loop
    vertex -394.1941285063823 42.25127817644887 304.4348854549808
    vertex -391.52049489555714 42.25127817644887 304.6336453316531
    vertex -394.4012352875689 42.25127817644887 304.59380407757874
  endloop
endfacet
facet normal -0.0 -1.0 -0.0
  outer loop
    vertex -394.4012352875689 42.25127817644887 304.59380407757874
    vertex -391.52049489555714 42.25127817644887 304.6336453316531
    vertex -394.64241624246637 42.25127817644887 304.69370450008336
  endloop
endfacet
facet normal -0.0 -1.0 -0.0
  outer loop
    vertex -394.64241624246637 42.25127817644887 304.69370450008336
    vertex -391.52049489555714 42.25127817644887 304.6336453316531
    vertex -391.8701463743233 42.25127817644887 305.4777786737943
  endloop
endfacet
facet normal -0.0 -1.0 -0.0
  outer loop
    vertex -394.64241624246637 42.25127817644887 304.69370450008336
    vertex -391.8701463743233 42.25127817644887 305.4777786737943
    vertex -394.90123528756885 42.25127817644887 304.72777867379426
  endloop
endfacet
facet normal -0.0 -1.0 -0.0
  outer loop
    vertex -394.90123528756885 42.25127817644887 304.72777867379426
    vertex -391.8701463743233 42.25127817644887 305.4777786737943
    vertex -397.9323242008144 42.25127817644887 305.4777786737943
  endloop
endfacet
facet normal -0.0 -1.0 -0.0
  outer loop
    vertex -397.9323242008144 42.25127817644887 305.4777786737943
    vertex -391.8701463743233 42.25127817644887 305.4777786737943
    vertex -397.3761090217218 42.25127817644887 306.2026524079472
  endloop
endfacet
facet normal -0.0 -1.0 -0.0
  outer loop
    vertex -397.3761090217218 42.25127817644887 306.2026524079472
    vertex -391.8701463743233 42.25127817644887 305.4777786737943
    vertex -392.426361553416 42.25127817644887 306.2026524079472
  endloop
endfacet
facet normal -0.0 -1.0 -0.0
  outer loop
    vertex -397.3761090217218 42.25127817644887 306.2026524079472
    vertex -392.426361553416 42.25127817644887 306.2026524079472
    vertex -393.15123528756885 42.25127817644887 306.75886758703984
  endloop
endfacet
facet normal -0.0 -1.0 -0.0
  outer loop
    vertex -397.3761090217218 42.25127817644887 306.2026524079472
    vertex -393.15123528756885 42.25127817644887 306.75886758703984
    vertex -396.65123528756885 42.25127817644887 306.75886758703984
  endloop
endfacet
facet normal -0.0 -1.0 -0.0
  outer loop
    vertex -396.65123528756885 42.25127817644887 306.75886758703984
    vertex -393.15123528756885 42.25127817644887 306.75886758703984
    vertex -395.8071019454277 42.25127817644887 307.10851906580604
  endloop
endfacet
facet normal -0.0 -1.0 -0.0
  outer loop
    vertex -395.8071019454277 42.25127817644887 307.10851906580604
    vertex -393.15123528756885 42.25127817644887 306.75886758703984
    vertex -393.99536862971 42.25127817644887 307.10851906580604
  endloop
endfacet
facet normal -0.0 -1.0 -0.0
  outer loop
    vertex -395.8071019454277 42.25127817644887 307.10851906580604
    vertex -393.99536862971 42.25127817644887 307.10851906580604
    vertex -394.90123528756885 42.25127817644887 307.22777867379426
  endloop
endfacet
facet normal -0.0 -1.0 -0.0
  outer loop
    vertex -394.90123528756885 42.25127817644887 302.7277786737943
    vertex -398.2819756795806 42.25127817644887 302.8219120159355
    vertex -397.9323242008144 42.25127817644887 301.97777867379426
  endloop
endfacet
facet normal -0.0 -1.0 -0.0
  outer loop
    vertex -398.2819756795806 42.25127817644887 302.8219120159355
    vertex -394.90123528756885 42.25127817644887 302.7277786737943
    vertex -395.1600543326714 42.25127817644887 302.7618528475052
  endloop
endfacet
facet normal -0.0 -1.0 -0.0
  outer loop
    vertex -398.2819756795806 42.25127817644887 302.8219120159355
    vertex -395.1600543326714 42.25127817644887 302.7618528475052
    vertex -395.4012352875689 42.25127817644887 302.86175327000984
  endloop
endfacet
facet normal -0.0 -1.0 -0.0
  outer loop
    vertex -398.2819756795806 42.25127817644887 302.8219120159355
    vertex -395.4012352875689 42.25127817644887 302.86175327000984
    vertex -398.40123528756885 42.25127817644887 303.72777867379426
  endloop
endfacet
facet normal -0.0 -1.0 -0.0
  outer loop
    vertex -398.40123528756885 42.25127817644887 303.72777867379426
    vertex -395.4012352875689 42.25127817644887 302.86175327000984
    vertex -395.6083420687554 42.25127817644887 303.02067189260777
  endloop
endfacet
facet normal -0.0 -1.0 -0.0
  outer loop
    vertex -398.40123528756885 42.25127817644887 303.72777867379426
    vertex -395.6083420687554 42.25127817644887 303.02067189260777
    vertex -395.7672606913533 42.25127817644887 303.22777867379426
  endloop
endfacet
facet normal -0.0 -1.0 -0.0
  outer loop
    vertex -398.40123528756885 42.25127817644887 303.72777867379426
    vertex -395.7672606913533 42.25127817644887 303.22777867379426
    vertex -395.86716111385795 42.25127817644887 303.4689596286918
  endloop
endfacet
facet normal -0.0 -1.0 -0.0
  outer loop
    vertex -398.40123528756885 42.25127817644887 303.72777867379426
    vertex -395.86716111385795 42.25127817644887 303.4689596286918
    vertex -395.90123528756885 42.25127817644887 303.72777867379426
  endloop
endfacet
facet normal -0.0 -1.0 -0.0
  outer loop
    vertex -398.40123528756885 42.25127817644887 303.72777867379426
    vertex -395.90123528756885 42.25127817644887 303.72777867379426
    vertex -395.86716111385795 42.25127817644887 303.9865977188968
  endloop
endfacet
facet normal -0.0 -1.0 -0.0
  outer loop
    vertex -398.40123528756885 42.25127817644887 303.72777867379426
    vertex -395.86716111385795 42.25127817644887 303.9865977188968
    vertex -398.2819756795806 42.25127817644887 304.6336453316531
  endloop
endfacet
facet normal -0.0 -1.0 -0.0
  outer loop
    vertex -398.2819756795806 42.25127817644887 304.6336453316531
    vertex -395.86716111385795 42.25127817644887 303.9865977188968
    vertex -395.7672606913533 42.25127817644887 304.22777867379426
  endloop
endfacet
facet normal -0.0 -1.0 -0.0
  outer loop
    vertex -398.2819756795806 42.25127817644887 304.6336453316531
    vertex -395.7672606913533 42.25127817644887 304.22777867379426
    vertex -395.6083420687554 42.25127817644887 304.4348854549808
  endloop
endfacet
facet normal -0.0 -1.0 -0.0
  outer loop
    vertex -398.2819756795806 42.25127817644887 304.6336453316531
    vertex -395.6083420687554 42.25127817644887 304.4348854549808
    vertex -395.4012352875689 42.25127817644887 304.59380407757874
  endloop
endfacet
facet normal -0.0 -1.0 -0.0
  outer loop
    vertex -398.2819756795806 42.25127817644887 304.6336453316531
    vertex -395.4012352875689 42.25127817644887 304.59380407757874
    vertex -395.1600543326714 42.25127817644887 304.69370450008336
  endloop
endfacet
facet normal -0.0 -1.0 -0.0
  outer loop
    vertex -398.2819756795806 42.25127817644887 304.6336453316531
    vertex -395.1600543326714 42.25127817644887 304.69370450008336
    vertex -397.9323242008144 42.25127817644887 305.4777786737943
  endloop
endfacet
facet normal -0.0 -1.0 -0.0
  outer loop
    vertex -397.9323242008144 42.25127817644887 305.4777786737943
    vertex -395.1600543326714 42.25127817644887 304.69370450008336
    vertex -394.90123528756885 42.25127817644887 304.72777867379426
  endloop
endfacet
facet normal 0.7933533402912353 0.0 0.6087614290087207
  outer loop
    vertex -391.8701463743233 45.251278176448864 305.4777786737943
    vertex -392.426361553416 42.25127817644887 306.2026524079472
    vertex -391.8701463743233 42.25127817644887 305.4777786737943
  endloop
endfacet
facet normal 0.7933533402912353 0.0 0.6087614290087207
  outer loop
    vertex -392.426361553416 42.25127817644887 306.2026524079472
    vertex -391.8701463743233 45.251278176448864 305.4777786737943
    vertex -392.426361553416 45.251278176448864 306.2026524079472
  endloop
endfacet
facet normal -0.13052619222005155 -0.0 -0.9914448613738105
  outer loop
    vertex -394.90123528756885 45.251278176448864 300.22777867379426
    vertex -395.8071019454277 42.25127817644887 300.34703828178255
    vertex -395.8071019454277 45.251278176448864 300.34703828178255
  endloop
endfacet
facet normal -0.13052619222005155 -0.0 -0.9914448613738105
  outer loop
    vertex -395.8071019454277 42.25127817644887 300.34703828178255
    vertex -394.90123528756885 45.251278176448864 300.22777867379426
    vertex -394.90123528756885 42.25127817644887 300.22777867379426
  endloop
endfacet
facet normal -0.9914448613738108 0.0 0.1305261922200489
  outer loop
    vertex -398.2819756795806 45.251278176448864 304.6336453316531
    vertex -398.40123528756885 42.25127817644887 303.72777867379426
    vertex -398.2819756795806 42.25127817644887 304.6336453316531
  endloop
endfacet
facet normal -0.9914448613738108 0.0 0.1305261922200489
  outer loop
    vertex -398.40123528756885 42.25127817644887 303.72777867379426
    vertex -398.2819756795806 45.251278176448864 304.6336453316531
    vertex -398.40123528756885 45.251278176448864 303.72777867379426
  endloop
endfacet
facet normal 0.13052619222005155 0.0 0.9914448613738105
  outer loop
    vertex -393.99536862971 42.25127817644887 307.10851906580604
    vertex -394.90123528756885 45.251278176448864 307.22777867379426
    vertex -394.90123528756885 42.25127817644887 307.22777867379426
  endloop
endfacet
facet normal 0.13052619222005155 0.0 0.9914448613738105
  outer loop
    vertex -394.90123528756885 45.251278176448864 307.22777867379426
    vertex -393.99536862971 42.25127817644887 307.10851906580604
    vertex -393.99536862971 45.251278176448864 307.10851906580604
  endloop
endfacet
facet normal 0.9238795325112859 0.0 0.3826834323650921
  outer loop
    vertex -391.52049489555714 45.251278176448864 304.6336453316531
    vertex -391.8701463743233 42.25127817644887 305.4777786737943
    vertex -391.52049489555714 42.25127817644887 304.6336453316531
  endloop
endfacet
facet normal 0.9238795325112859 0.0 0.3826834323650921
  outer loop
    vertex -391.8701463743233 42.25127817644887 305.4777786737943
    vertex -391.52049489555714 45.251278176448864 304.6336453316531
    vertex -391.8701463743233 45.251278176448864 305.4777786737943
  endloop
endfacet
facet normal -0.3826834323650916 -0.0 -0.923879532511286
  outer loop
    vertex -395.8071019454277 45.251278176448864 300.34703828178255
    vertex -396.65123528756885 42.25127817644887 300.69668976054874
    vertex -396.65123528756885 45.251278176448864 300.69668976054874
  endloop
endfacet
facet normal -0.3826834323650916 -0.0 -0.923879532511286
  outer loop
    vertex -396.65123528756885 42.25127817644887 300.69668976054874
    vertex -395.8071019454277 45.251278176448864 300.34703828178255
    vertex -395.8071019454277 42.25127817644887 300.34703828178255
  endloop
endfacet
facet normal 0.0 1.0 0.0
  outer loop
    vertex -395.8071019454277 45.251278176448864 300.34703828178255
    vertex -393.99536862971 45.251278176448864 300.34703828178255
    vertex -394.90123528756885 45.251278176448864 300.22777867379426
  endloop
endfacet
facet normal 0.0 1.0 0.0
  outer loop
    vertex -393.99536862971 45.251278176448864 300.34703828178255
    vertex -395.8071019454277 45.251278176448864 300.34703828178255
    vertex -396.65123528756885 45.251278176448864 300.69668976054874
  endloop
endfacet
facet normal 0.0 1.0 0.0
  outer loop
    vertex -393.99536862971 45.251278176448864 300.34703828178255
    vertex -396.65123528756885 45.251278176448864 300.69668976054874
    vertex -393.15123528756885 45.251278176448864 300.69668976054874
  endloop
endfacet
facet normal 0.0 1.0 0.0
  outer loop
    vertex -393.15123528756885 45.251278176448864 300.69668976054874
    vertex -396.65123528756885 45.251278176448864 300.69668976054874
    vertex -397.3761090217218 45.251278176448864 301.2529049396413
  endloop
endfacet
facet normal 0.0 1.0 0.0
  outer loop
    vertex -393.15123528756885 45.251278176448864 300.69668976054874
    vertex -397.3761090217218 45.251278176448864 301.2529049396413
    vertex -392.426361553416 45.251278176448864 301.2529049396413
  endloop
endfacet
facet normal 0.0 1.0 0.0
  outer loop
    vertex -392.426361553416 45.251278176448864 301.2529049396413
    vertex -397.3761090217218 45.251278176448864 301.2529049396413
    vertex -397.9323242008144 45.251278176448864 301.97777867379426
  endloop
endfacet
facet normal 0.0 1.0 0.0
  outer loop
    vertex -392.426361553416 45.251278176448864 301.2529049396413
    vertex -397.9323242008144 45.251278176448864 301.97777867379426
    vertex -391.8701463743233 45.251278176448864 301.97777867379426
  endloop
endfacet
facet normal 0.0 1.0 0.0
  outer loop
    vertex -391.8701463743233 45.251278176448864 301.97777867379426
    vertex -397.9323242008144 45.251278176448864 301.97777867379426
    vertex -398.2819756795806 45.251278176448864 302.8219120159355
  endloop
endfacet
facet normal 0.0 1.0 0.0
  outer loop
    vertex -391.8701463743233 45.251278176448864 301.97777867379426
    vertex -398.2819756795806 45.251278176448864 302.8219120159355
    vertex -394.90123528756885 45.25127817644887 302.7277786737943
  endloop
endfacet
facet normal 0.0 1.0 0.0
  outer loop
    vertex -394.90123528756885 45.25127817644887 302.7277786737943
    vertex -398.2819756795806 45.251278176448864 302.8219120159355
    vertex -395.1600543326714 45.25127817644887 302.7618528475052
  endloop
endfacet
facet normal 0.0 1.0 0.0
  outer loop
    vertex -395.1600543326714 45.25127817644887 302.7618528475052
    vertex -398.2819756795806 45.251278176448864 302.8219120159355
    vertex -395.4012352875689 45.25127817644887 302.86175327000984
  endloop
endfacet
facet normal 0.0 1.0 0.0
  outer loop
    vertex -395.4012352875689 45.25127817644887 302.86175327000984
    vertex -398.2819756795806 45.251278176448864 302.8219120159355
    vertex -398.40123528756885 45.251278176448864 303.72777867379426
  endloop
endfacet
facet normal 0.0 1.0 0.0
  outer loop
    vertex -395.4012352875689 45.25127817644887 302.86175327000984
    vertex -398.40123528756885 45.251278176448864 303.72777867379426
    vertex -395.6083420687554 45.25127817644887 303.02067189260777
  endloop
endfacet
facet normal 0.0 1.0 0.0
  outer loop
    vertex -395.6083420687554 45.25127817644887 303.02067189260777
    vertex -398.40123528756885 45.251278176448864 303.72777867379426
    vertex -395.7672606913533 45.25127817644887 303.22777867379426
  endloop
endfacet
facet normal 0.0 1.0 0.0
  outer loop
    vertex -395.7672606913533 45.25127817644887 303.22777867379426
    vertex -398.40123528756885 45.251278176448864 303.72777867379426
    vertex -395.86716111385795 45.25127817644887 303.4689596286918
  endloop
endfacet
facet normal 0.0 1.0 0.0
  outer loop
    vertex -395.86716111385795 45.25127817644887 303.4689596286918
    vertex -398.40123528756885 45.251278176448864 303.72777867379426
    vertex -395.90123528756885 45.25127817644887 303.72777867379426
  endloop
endfacet
facet normal 0.0 1.0 0.0
  outer loop
    vertex -395.90123528756885 45.25127817644887 303.72777867379426
    vertex -398.40123528756885 45.251278176448864 303.72777867379426
    vertex -395.86716111385795 45.25127817644887 303.9865977188968
  endloop
endfacet
facet normal 0.0 1.0 0.0
  outer loop
    vertex -395.86716111385795 45.25127817644887 303.9865977188968
    vertex -398.40123528756885 45.251278176448864 303.72777867379426
    vertex -398.2819756795806 45.251278176448864 304.6336453316531
  endloop
endfacet
facet normal 0.0 1.0 0.0
  outer loop
    vertex -395.86716111385795 45.25127817644887 303.9865977188968
    vertex -398.2819756795806 45.251278176448864 304.6336453316531
    vertex -395.7672606913533 45.25127817644887 304.22777867379426
  endloop
endfacet
facet normal 0.0 1.0 0.0
  outer loop
    vertex -395.7672606913533 45.25127817644887 304.22777867379426
    vertex -398.2819756795806 45.251278176448864 304.6336453316531
    vertex -395.6083420687554 45.25127817644887 304.4348854549808
  endloop
endfacet
facet normal 0.0 1.0 0.0
  outer loop
    vertex -395.6083420687554 45.25127817644887 304.4348854549808
    vertex -398.2819756795806 45.251278176448864 304.6336453316531
    vertex -395.4012352875689 45.25127817644887 304.59380407757874
  endloop
endfacet
facet normal 0.0 1.0 0.0
  outer loop
    vertex -395.4012352875689 45.25127817644887 304.59380407757874
    vertex -398.2819756795806 45.251278176448864 304.6336453316531
    vertex -395.1600543326714 45.25127817644887 304.69370450008336
  endloop
endfacet
facet normal 0.0 1.0 0.0
  outer loop
    vertex -395.1600543326714 45.25127817644887 304.69370450008336
    vertex -398.2819756795806 45.251278176448864 304.6336453316531
    vertex -397.9323242008144 45.251278176448864 305.4777786737943
  endloop
endfacet
facet normal 0.0 1.0 0.0
  outer loop
    vertex -395.1600543326714 45.25127817644887 304.69370450008336
    vertex -397.9323242008144 45.251278176448864 305.4777786737943
    vertex -394.90123528756885 45.25127817644887 304.72777867379426
  endloop
endfacet
facet normal 0.0 1.0 0.0
  outer loop
    vertex -394.90123528756885 45.25127817644887 302.7277786737943
    vertex -391.52049489555714 45.251278176448864 302.8219120159355
    vertex -391.8701463743233 45.251278176448864 301.97777867379426
  endloop
endfacet
facet normal 0.0 1.0 0.0
  outer loop
    vertex -391.52049489555714 45.251278176448864 302.8219120159355
    vertex -394.90123528756885 45.25127817644887 302.7277786737943
    vertex -394.64241624246637 45.25127817644887 302.7618528475052
  endloop
endfacet
facet normal 0.0 1.0 0.0
  outer loop
    vertex -391.52049489555714 45.251278176448864 302.8219120159355
    vertex -394.64241624246637 45.25127817644887 302.7618528475052
    vertex -394.4012352875689 45.25127817644887 302.86175327000984
  endloop
endfacet
facet normal 0.0 1.0 0.0
  outer loop
    vertex -391.52049489555714 45.251278176448864 302.8219120159355
    vertex -394.4012352875689 45.25127817644887 302.86175327000984
    vertex -391.4012352875689 45.251278176448864 303.72777867379426
  endloop
endfacet
facet normal 0.0 1.0 0.0
  outer loop
    vertex -391.4012352875689 45.251278176448864 303.72777867379426
    vertex -394.4012352875689 45.25127817644887 302.86175327000984
    vertex -394.1941285063823 45.25127817644887 303.02067189260777
  endloop
endfacet
facet normal 0.0 1.0 0.0
  outer loop
    vertex -391.4012352875689 45.251278176448864 303.72777867379426
    vertex -394.1941285063823 45.25127817644887 303.02067189260777
    vertex -394.03520988378443 45.25127817644887 303.22777867379426
  endloop
endfacet
facet normal 0.0 1.0 0.0
  outer loop
    vertex -391.4012352875689 45.251278176448864 303.72777867379426
    vertex -394.03520988378443 45.25127817644887 303.22777867379426
    vertex -393.93530946127976 45.25127817644887 303.4689596286918
  endloop
endfacet
facet normal 0.0 1.0 0.0
  outer loop
    vertex -391.4012352875689 45.251278176448864 303.72777867379426
    vertex -393.93530946127976 45.25127817644887 303.4689596286918
    vertex -393.90123528756885 45.25127817644887 303.72777867379426
  endloop
endfacet
facet normal 0.0 1.0 0.0
  outer loop
    vertex -391.4012352875689 45.251278176448864 303.72777867379426
    vertex -393.90123528756885 45.25127817644887 303.72777867379426
    vertex -393.9353094612798 45.25127817644887 303.9865977188968
  endloop
endfacet
facet normal 0.0 1.0 0.0
  outer loop
    vertex -391.4012352875689 45.251278176448864 303.72777867379426
    vertex -393.9353094612798 45.25127817644887 303.9865977188968
    vertex -391.52049489555714 45.251278176448864 304.6336453316531
  endloop
endfacet
facet normal 0.0 1.0 0.0
  outer loop
    vertex -391.52049489555714 45.251278176448864 304.6336453316531
    vertex -393.9353094612798 45.25127817644887 303.9865977188968
    vertex -394.03520988378443 45.25127817644887 304.22777867379426
  endloop
endfacet
facet normal 0.0 1.0 0.0
  outer loop
    vertex -391.52049489555714 45.251278176448864 304.6336453316531
    vertex -394.03520988378443 45.25127817644887 304.22777867379426
    vertex -394.1941285063823 45.25127817644887 304.4348854549808
  endloop
endfacet
facet normal 0.0 1.0 0.0
  outer loop
    vertex -391.52049489555714 45.251278176448864 304.6336453316531
    vertex -394.1941285063823 45.25127817644887 304.4348854549808
    vertex -394.4012352875689 45.25127817644887 304.59380407757874
  endloop
endfacet
facet normal 0.0 1.0 0.0
  outer loop
    vertex -391.52049489555714 45.251278176448864 304.6336453316531
    vertex -394.4012352875689 45.25127817644887 304.59380407757874
    vertex -394.64241624246637 45.25127817644887 304.69370450008336
  endloop
endfacet
facet normal 0.0 1.0 0.0
  outer loop
    vertex -391.52049489555714 45.251278176448864 304.6336453316531
    vertex -394.64241624246637 45.25127817644887 304.69370450008336
    vertex -391.8701463743233 45.251278176448864 305.4777786737943
  endloop
endfacet
facet normal 0.0 1.0 0.0
  outer loop
    vertex -391.8701463743233 45.251278176448864 305.4777786737943
    vertex -394.64241624246637 45.25127817644887 304.69370450008336
    vertex -394.90123528756885 45.25127817644887 304.72777867379426
  endloop
endfacet
facet normal 0.0 1.0 0.0
  outer loop
    vertex -391.8701463743233 45.251278176448864 305.4777786737943
    vertex -394.90123528756885 45.25127817644887 304.72777867379426
    vertex -397.9323242008144 45.251278176448864 305.4777786737943
  endloop
endfacet
facet normal 0.0 1.0 0.0
  outer loop
    vertex -391.8701463743233 45.251278176448864 305.4777786737943
    vertex -397.9323242008144 45.251278176448864 305.4777786737943
    vertex -397.3761090217218 45.251278176448864 306.2026524079472
  endloop
endfacet
facet normal 0.0 1.0 0.0
  outer loop
    vertex -391.8701463743233 45.251278176448864 305.4777786737943
    vertex -397.3761090217218 45.251278176448864 306.2026524079472
    vertex -392.426361553416 45.251278176448864 306.2026524079472
  endloop
endfacet
facet normal 0.0 1.0 0.0
  outer loop
    vertex -392.426361553416 45.251278176448864 306.2026524079472
    vertex -397.3761090217218 45.251278176448864 306.2026524079472
    vertex -396.65123528756885 45.251278176448864 306.75886758703984
  endloop
endfacet
facet normal 0.0 1.0 0.0
  outer loop
    vertex -392.426361553416 45.251278176448864 306.2026524079472
    vertex -396.65123528756885 45.251278176448864 306.75886758703984
    vertex -393.15123528756885 45.251278176448864 306.75886758703984
  endloop
endfacet
facet normal 0.0 1.0 0.0
  outer loop
    vertex -393.15123528756885 45.251278176448864 306.75886758703984
    vertex -396.65123528756885 45.251278176448864 306.75886758703984
    vertex -395.8071019454277 45.251278176448864 307.10851906580604
  endloop
endfacet
facet normal 0.0 1.0 0.0
  outer loop
    vertex -393.15123528756885 45.251278176448864 306.75886758703984
    vertex -395.8071019454277 45.251278176448864 307.10851906580604
    vertex -393.99536862971 45.251278176448864 307.10851906580604
  endloop
endfacet
facet normal 0.0 1.0 0.0
  outer loop
    vertex -393.99536862971 45.251278176448864 307.10851906580604
    vertex -395.8071019454277 45.251278176448864 307.10851906580604
    vertex -394.90123528756885 45.251278176448864 307.22777867379426
  endloop
endfacet
facet normal 0.7933533402912364 0.0 -0.6087614290087191
  outer loop
    vertex -392.426361553416 45.251278176448864 301.2529049396413
    vertex -391.8701463743233 42.25127817644887 301.97777867379426
    vertex -392.426361553416 42.25127817644887 301.2529049396413
  endloop
endfacet
facet normal 0.7933533402912364 0.0 -0.6087614290087191
  outer loop
    vertex -391.8701463743233 42.25127817644887 301.97777867379426
    vertex -392.426361553416 45.251278176448864 301.2529049396413
    vertex -391.8701463743233 45.251278176448864 301.97777867379426
  endloop
endfacet
facet normal 0.9914448613738109 0.0 0.13052619222004813
  outer loop
    vertex -391.4012352875689 45.251278176448864 303.72777867379426
    vertex -391.52049489555714 42.25127817644887 304.6336453316531
    vertex -391.4012352875689 42.25127817644887 303.72777867379426
  endloop
endfacet
facet normal 0.9914448613738109 0.0 0.13052619222004813
  outer loop
    vertex -391.52049489555714 42.25127817644887 304.6336453316531
    vertex -391.4012352875689 45.251278176448864 303.72777867379426
    vertex -391.52049489555714 45.251278176448864 304.6336453316531
  endloop
endfacet
facet normal 0.38268343236508734 0.0 -0.923879532511288
  outer loop
    vertex -393.15123528756885 45.251278176448864 300.69668976054874
    vertex -393.99536862971 42.25127817644887 300.34703828178255
    vertex -393.99536862971 45.251278176448864 300.34703828178255
  endloop
endfacet
facet normal 0.38268343236508734 0.0 -0.923879532511288
  outer loop
    vertex -393.99536862971 42.25127817644887 300.34703828178255
    vertex -393.15123528756885 45.251278176448864 300.69668976054874
    vertex -393.15123528756885 42.25127817644887 300.69668976054874
  endloop
endfacet
facet normal -0.38268343236508995 0.0 0.9238795325112868
  outer loop
    vertex -395.8071019454277 42.25127817644887 307.10851906580604
    vertex -396.65123528756885 45.251278176448864 306.75886758703984
    vertex -396.65123528756885 42.25127817644887 306.75886758703984
  endloop
endfacet
facet normal -0.38268343236508995 0.0 0.9238795325112868
  outer loop
    vertex -396.65123528756885 45.251278176448864 306.75886758703984
    vertex -395.8071019454277 42.25127817644887 307.10851906580604
    vertex -395.8071019454277 45.251278176448864 307.10851906580604
  endloop
endfacet
facet normal 0.6087614290087225 0.0 -0.7933533402912338
  outer loop
    vertex -392.426361553416 45.251278176448864 301.2529049396413
    vertex -393.15123528756885 42.25127817644887 300.69668976054874
    vertex -393.15123528756885 45.251278176448864 300.69668976054874
  endloop
endfacet
facet normal 0.6087614290087225 0.0 -0.7933533402912338
  outer loop
    vertex -393.15123528756885 42.25127817644887 300.69668976054874
    vertex -392.426361553416 45.251278176448864 301.2529049396413
    vertex -392.426361553416 42.25127817644887 301.2529049396413
  endloop
endfacet
facet normal -0.6087614290087207 0.0 0.7933533402912353
  outer loop
    vertex -396.65123528756885 42.25127817644887 306.75886758703984
    vertex -397.3761090217218 45.251278176448864 306.2026524079472
    vertex -397.3761090217218 42.25127817644887 306.2026524079472
  endloop
endfacet
facet normal -0.6087614290087207 0.0 0.7933533402912353
  outer loop
    vertex -397.3761090217218 45.251278176448864 306.2026524079472
    vertex -396.65123528756885 42.25127817644887 306.75886758703984
    vertex -396.65123528756885 45.251278176448864 306.75886758703984
  endloop
endfacet
facet normal 0.13052619222005155 0.0 -0.9914448613738105
  outer loop
    vertex -393.99536862971 45.251278176448864 300.34703828178255
    vertex -394.90123528756885 42.25127817644887 300.22777867379426
    vertex -394.90123528756885 45.251278176448864 300.22777867379426
  endloop
endfacet
facet normal 0.13052619222005155 0.0 -0.9914448613738105
  outer loop
    vertex -394.90123528756885 42.25127817644887 300.22777867379426
    vertex -393.99536862971 45.251278176448864 300.34703828178255
    vertex -393.99536862971 42.25127817644887 300.34703828178255
  endloop
endfacet
facet normal -0.6087614290087167 -0.0 -0.7933533402912383
  outer loop
    vertex -396.65123528756885 45.251278176448864 300.69668976054874
    vertex -397.3761090217218 42.25127817644887 301.2529049396413
    vertex -397.3761090217218 45.251278176448864 301.2529049396413
  endloop
endfacet
facet normal -0.6087614290087167 -0.0 -0.7933533402912383
  outer loop
    vertex -397.3761090217218 42.25127817644887 301.2529049396413
    vertex -396.65123528756885 45.251278176448864 300.69668976054874
    vertex -396.65123528756885 42.25127817644887 300.69668976054874
  endloop
endfacet
facet normal -0.7933533402912364 -0.0 -0.6087614290087191
  outer loop
    vertex -397.9323242008144 45.251278176448864 301.97777867379426
    vertex -397.3761090217218 42.25127817644887 301.2529049396413
    vertex -397.9323242008144 42.25127817644887 301.97777867379426
  endloop
endfacet
facet normal -0.7933533402912364 -0.0 -0.6087614290087191
  outer loop
    vertex -397.3761090217218 42.25127817644887 301.2529049396413
    vertex -397.9323242008144 45.251278176448864 301.97777867379426
    vertex -397.3761090217218 45.251278176448864 301.2529049396413
  endloop
endfacet
facet normal -0.9238795325112859 -0.0 -0.3826834323650921
  outer loop
    vertex -398.2819756795806 45.251278176448864 302.8219120159355
    vertex -397.9323242008144 42.25127817644887 301.97777867379426
    vertex -398.2819756795806 42.25127817644887 302.8219120159355
  endloop
endfacet
facet normal -0.9238795325112859 -0.0 -0.3826834323650921
  outer loop
    vertex -397.9323242008144 42.25127817644887 301.97777867379426
    vertex -398.2819756795806 45.251278176448864 302.8219120159355
    vertex -397.9323242008144 45.251278176448864 301.97777867379426
  endloop
endfacet
facet normal -0.9238795325112863 0.0 0.382683432365091
  outer loop
    vertex -397.9323242008144 45.251278176448864 305.4777786737943
    vertex -398.2819756795806 42.25127817644887 304.6336453316531
    vertex -397.9323242008144 42.25127817644887 305.4777786737943
  endloop
endfacet
facet normal -0.9238795325112863 0.0 0.382683432365091
  outer loop
    vertex -398.2819756795806 42.25127817644887 304.6336453316531
    vertex -397.9323242008144 45.251278176448864 305.4777786737943
    vertex -398.2819756795806 45.251278176448864 304.6336453316531
  endloop
endfacet
facet normal -0.7933533402912364 0.0 0.6087614290087191
  outer loop
    vertex -397.3761090217218 45.251278176448864 306.2026524079472
    vertex -397.9323242008144 42.25127817644887 305.4777786737943
    vertex -397.3761090217218 42.25127817644887 306.2026524079472
  endloop
endfacet
facet normal -0.7933533402912364 0.0 0.6087614290087191
  outer loop
    vertex -397.9323242008144 42.25127817644887 305.4777786737943
    vertex -397.3761090217218 45.251278176448864 306.2026524079472
    vertex -397.9323242008144 45.251278176448864 305.4777786737943
  endloop
endfacet
facet normal 0.3826834323650916 0.0 0.923879532511286
  outer loop
    vertex -393.15123528756885 42.25127817644887 306.75886758703984
    vertex -393.99536862971 45.251278176448864 307.10851906580604
    vertex -393.99536862971 42.25127817644887 307.10851906580604
  endloop
endfacet
facet normal 0.3826834323650916 0.0 0.923879532511286
  outer loop
    vertex -393.99536862971 45.251278176448864 307.10851906580604
    vertex -393.15123528756885 42.25127817644887 306.75886758703984
    vertex -393.15123528756885 45.251278176448864 306.75886758703984
  endloop
endfacet
facet normal -0.9914448613738077 -0.0 -0.13052619222007342
  outer loop
    vertex -393.9353094612798 45.25127817644887 303.9865977188968
    vertex -393.90123528756885 42.25127817644887 303.72777867379426
    vertex -393.9353094612798 42.25127817644887 303.9865977188968
  endloop
endfacet
facet normal -0.9914448613738077 -0.0 -0.13052619222007342
  outer loop
    vertex -393.90123528756885 42.25127817644887 303.72777867379426
    vertex -393.9353094612798 45.25127817644887 303.9865977188968
    vertex -393.90123528756885 45.25127817644887 303.72777867379426
  endloop
endfacet
facet normal 0.3826834323650951 0.0 0.9238795325112845
  outer loop
    vertex -395.1600543326714 42.25127817644887 302.7618528475052
    vertex -395.4012352875689 45.25127817644887 302.86175327000984
    vertex -395.4012352875689 42.25127817644887 302.86175327000984
  endloop
endfacet
facet normal 0.3826834323650951 0.0 0.9238795325112845
  outer loop
    vertex -395.4012352875689 45.25127817644887 302.86175327000984
    vertex -395.1600543326714 42.25127817644887 302.7618528475052
    vertex -395.1600543326714 45.25127817644887 302.7618528475052
  endloop
endfacet
facet normal 0.13052619222005077 0.0 0.9914448613738106
  outer loop
    vertex -394.90123528756885 42.25127817644887 302.7277786737943
    vertex -395.1600543326714 45.25127817644887 302.7618528475052
    vertex -395.1600543326714 42.25127817644887 302.7618528475052
  endloop
endfacet
facet normal 0.13052619222005077 0.0 0.9914448613738106
  outer loop
    vertex -395.1600543326714 45.25127817644887 302.7618528475052
    vertex -394.90123528756885 42.25127817644887 302.7277786737943
    vertex -394.90123528756885 45.25127817644887 302.7277786737943
  endloop
endfacet
facet normal -0.7933533402912477 0.0 0.6087614290087043
  outer loop
    vertex -394.03520988378443 45.25127817644887 303.22777867379426
    vertex -394.1941285063823 42.25127817644887 303.02067189260777
    vertex -394.03520988378443 42.25127817644887 303.22777867379426
  endloop
endfacet
facet normal -0.7933533402912477 0.0 0.6087614290087043
  outer loop
    vertex -394.1941285063823 42.25127817644887 303.02067189260777
    vertex -394.03520988378443 45.25127817644887 303.22777867379426
    vertex -394.1941285063823 45.25127817644887 303.02067189260777
  endloop
endfacet
facet normal -0.3826834323650951 -0.0 -0.9238795325112845
  outer loop
    vertex -394.4012352875689 45.25127817644887 304.59380407757874
    vertex -394.64241624246637 42.25127817644887 304.69370450008336
    vertex -394.64241624246637 45.25127817644887 304.69370450008336
  endloop
endfacet
facet normal -0.3826834323650951 -0.0 -0.9238795325112845
  outer loop
    vertex -394.64241624246637 42.25127817644887 304.69370450008336
    vertex -394.4012352875689 45.25127817644887 304.59380407757874
    vertex -394.4012352875689 42.25127817644887 304.59380407757874
  endloop
endfacet
facet normal -0.13052619222005077 -0.0 -0.9914448613738106
  outer loop
    vertex -394.64241624246637 45.25127817644887 304.69370450008336
    vertex -394.90123528756885 42.25127817644887 304.72777867379426
    vertex -394.90123528756885 45.25127817644887 304.72777867379426
  endloop
endfacet
facet normal -0.13052619222005077 -0.0 -0.9914448613738106
  outer loop
    vertex -394.90123528756885 42.25127817644887 304.72777867379426
    vertex -394.64241624246637 45.25127817644887 304.69370450008336
    vertex -394.64241624246637 42.25127817644887 304.69370450008336
  endloop
endfacet
facet normal 0.7933533402912477 0.0 -0.6087614290087043
  outer loop
    vertex -395.7672606913533 45.25127817644887 304.22777867379426
    vertex -395.6083420687554 42.25127817644887 304.4348854549808
    vertex -395.7672606913533 42.25127817644887 304.22777867379426
  endloop
endfacet
facet normal 0.7933533402912477 0.0 -0.6087614290087043
  outer loop
    vertex -395.6083420687554 42.25127817644887 304.4348854549808
    vertex -395.7672606913533 45.25127817644887 304.22777867379426
    vertex -395.6083420687554 45.25127817644887 304.4348854549808
  endloop
endfacet
facet normal -0.9914448613738132 0.0 0.13052619222003092
  outer loop
    vertex -393.90123528756885 45.25127817644887 303.72777867379426
    vertex -393.93530946127976 42.25127817644887 303.4689596286918
    vertex -393.90123528756885 42.25127817644887 303.72777867379426
  endloop
endfacet
facet normal -0.9914448613738132 0.0 0.13052619222003092
  outer loop
    vertex -393.93530946127976 42.25127817644887 303.4689596286918
    vertex -393.90123528756885 45.25127817644887 303.72777867379426
    vertex -393.93530946127976 45.25127817644887 303.4689596286918
  endloop
endfacet
facet normal 0.13052619222005077 0.0 -0.9914448613738106
  outer loop
    vertex -394.90123528756885 45.25127817644887 304.72777867379426
    vertex -395.1600543326714 42.25127817644887 304.69370450008336
    vertex -395.1600543326714 45.25127817644887 304.69370450008336
  endloop
endfacet
facet normal 0.13052619222005077 0.0 -0.9914448613738106
  outer loop
    vertex -395.1600543326714 42.25127817644887 304.69370450008336
    vertex -394.90123528756885 45.25127817644887 304.72777867379426
    vertex -394.90123528756885 42.25127817644887 304.72777867379426
  endloop
endfacet
facet normal 0.6087614290087128 0.0 -0.7933533402912413
  outer loop
    vertex -395.4012352875689 45.25127817644887 304.59380407757874
    vertex -395.6083420687554 42.25127817644887 304.4348854549808
    vertex -395.6083420687554 45.25127817644887 304.4348854549808
  endloop
endfacet
facet normal 0.6087614290087128 0.0 -0.7933533402912413
  outer loop
    vertex -395.6083420687554 42.25127817644887 304.4348854549808
    vertex -395.4012352875689 45.25127817644887 304.59380407757874
    vertex -395.4012352875689 42.25127817644887 304.59380407757874
  endloop
endfacet
facet normal 0.9914448613738132 0.0 -0.13052619222003092
  outer loop
    vertex -395.90123528756885 45.25127817644887 303.72777867379426
    vertex -395.86716111385795 42.25127817644887 303.9865977188968
    vertex -395.90123528756885 42.25127817644887 303.72777867379426
  endloop
endfacet
facet normal 0.9914448613738132 0.0 -0.13052619222003092
  outer loop
    vertex -395.86716111385795 42.25127817644887 303.9865977188968
    vertex -395.90123528756885 45.25127817644887 303.72777867379426
    vertex -395.86716111385795 45.25127817644887 303.9865977188968
  endloop
endfacet
facet normal 0.6087614290087128 0.0 0.7933533402912413
  outer loop
    vertex -395.4012352875689 42.25127817644887 302.86175327000984
    vertex -395.6083420687554 45.25127817644887 303.02067189260777
    vertex -395.6083420687554 42.25127817644887 303.02067189260777
  endloop
endfacet
facet normal 0.6087614290087128 0.0 0.7933533402912413
  outer loop
    vertex -395.6083420687554 45.25127817644887 303.02067189260777
    vertex -395.4012352875689 42.25127817644887 302.86175327000984
    vertex -395.4012352875689 45.25127817644887 302.86175327000984
  endloop
endfacet
facet normal -0.6087614290087128 0.0 0.7933533402912413
  outer loop
    vertex -394.1941285063823 42.25127817644887 303.02067189260777
    vertex -394.4012352875689 45.25127817644887 302.86175327000984
    vertex -394.4012352875689 42.25127817644887 302.86175327000984
  endloop
endfacet
facet normal -0.6087614290087128 0.0 0.7933533402912413
  outer loop
    vertex -394.4012352875689 45.25127817644887 302.86175327000984
    vertex -394.1941285063823 42.25127817644887 303.02067189260777
    vertex -394.1941285063823 45.25127817644887 303.02067189260777
  endloop
endfacet
facet normal 0.9238795325112747 0.0 -0.382683432365119
  outer loop
    vertex -395.86716111385795 45.25127817644887 303.9865977188968
    vertex -395.7672606913533 42.25127817644887 304.22777867379426
    vertex -395.86716111385795 42.25127817644887 303.9865977188968
  endloop
endfacet
facet normal 0.9238795325112747 0.0 -0.382683432365119
  outer loop
    vertex -395.7672606913533 42.25127817644887 304.22777867379426
    vertex -395.86716111385795 45.25127817644887 303.9865977188968
    vertex -395.7672606913533 45.25127817644887 304.22777867379426
  endloop
endfacet
facet normal 0.9914448613738132 0.0 0.13052619222003092
  outer loop
    vertex -395.86716111385795 45.25127817644887 303.4689596286918
    vertex -395.90123528756885 42.25127817644887 303.72777867379426
    vertex -395.86716111385795 42.25127817644887 303.4689596286918
  endloop
endfacet
facet normal 0.9914448613738132 0.0 0.13052619222003092
  outer loop
    vertex -395.90123528756885 42.25127817644887 303.72777867379426
    vertex -395.86716111385795 45.25127817644887 303.4689596286918
    vertex -395.90123528756885 45.25127817644887 303.72777867379426
  endloop
endfacet
facet normal 0.9238795325112747 0.0 0.382683432365119
  outer loop
    vertex -395.7672606913533 45.25127817644887 303.22777867379426
    vertex -395.86716111385795 42.25127817644887 303.4689596286918
    vertex -395.7672606913533 42.25127817644887 303.22777867379426
  endloop
endfacet
facet normal 0.9238795325112747 0.0 0.382683432365119
  outer loop
    vertex -395.86716111385795 42.25127817644887 303.4689596286918
    vertex -395.7672606913533 45.25127817644887 303.22777867379426
    vertex -395.86716111385795 45.25127817644887 303.4689596286918
  endloop
endfacet
facet normal 0.7933533402912477 0.0 0.6087614290087043
  outer loop
    vertex -395.6083420687554 45.25127817644887 303.02067189260777
    vertex -395.7672606913533 42.25127817644887 303.22777867379426
    vertex -395.6083420687554 42.25127817644887 303.02067189260777
  endloop
endfacet
facet normal 0.7933533402912477 0.0 0.6087614290087043
  outer loop
    vertex -395.7672606913533 42.25127817644887 303.22777867379426
    vertex -395.6083420687554 45.25127817644887 303.02067189260777
    vertex -395.7672606913533 45.25127817644887 303.22777867379426
  endloop
endfacet
facet normal -0.9238795325112747 0.0 0.382683432365119
  outer loop
    vertex -393.93530946127976 45.25127817644887 303.4689596286918
    vertex -394.03520988378443 42.25127817644887 303.22777867379426
    vertex -393.93530946127976 42.25127817644887 303.4689596286918
  endloop
endfacet
facet normal -0.9238795325112747 0.0 0.382683432365119
  outer loop
    vertex -394.03520988378443 42.25127817644887 303.22777867379426
    vertex -393.93530946127976 45.25127817644887 303.4689596286918
    vertex -394.03520988378443 45.25127817644887 303.22777867379426
  endloop
endfacet
facet normal -0.92387953251129 -0.0 -0.38268343236508207
  outer loop
    vertex -394.03520988378443 45.25127817644887 304.22777867379426
    vertex -393.9353094612798 42.25127817644887 303.9865977188968
    vertex -394.03520988378443 42.25127817644887 304.22777867379426
  endloop
endfacet
facet normal -0.92387953251129 -0.0 -0.38268343236508207
  outer loop
    vertex -393.9353094612798 42.25127817644887 303.9865977188968
    vertex -394.03520988378443 45.25127817644887 304.22777867379426
    vertex -393.9353094612798 45.25127817644887 303.9865977188968
  endloop
endfacet
facet normal 0.3826834323650951 0.0 -0.9238795325112845
  outer loop
    vertex -395.1600543326714 45.25127817644887 304.69370450008336
    vertex -395.4012352875689 42.25127817644887 304.59380407757874
    vertex -395.4012352875689 45.25127817644887 304.59380407757874
  endloop
endfacet
facet normal 0.3826834323650951 0.0 -0.9238795325112845
  outer loop
    vertex -395.4012352875689 42.25127817644887 304.59380407757874
    vertex -395.1600543326714 45.25127817644887 304.69370450008336
    vertex -395.1600543326714 42.25127817644887 304.69370450008336
  endloop
endfacet
facet normal -0.7933533402912477 -0.0 -0.6087614290087043
  outer loop
    vertex -394.1941285063823 45.25127817644887 304.4348854549808
    vertex -394.03520988378443 42.25127817644887 304.22777867379426
    vertex -394.1941285063823 42.25127817644887 304.4348854549808
  endloop
endfacet
facet normal -0.7933533402912477 -0.0 -0.6087614290087043
  outer loop
    vertex -394.03520988378443 42.25127817644887 304.22777867379426
    vertex -394.1941285063823 45.25127817644887 304.4348854549808
    vertex -394.03520988378443 45.25127817644887 304.22777867379426
  endloop
endfacet
facet normal -0.6087614290087128 -0.0 -0.7933533402912413
  outer loop
    vertex -394.1941285063823 45.25127817644887 304.4348854549808
    vertex -394.4012352875689 42.25127817644887 304.59380407757874
    vertex -394.4012352875689 45.25127817644887 304.59380407757874
  endloop
endfacet
facet normal -0.6087614290087128 -0.0 -0.7933533402912413
  outer loop
    vertex -394.4012352875689 42.25127817644887 304.59380407757874
    vertex -394.1941285063823 45.25127817644887 304.4348854549808
    vertex -394.1941285063823 42.25127817644887 304.4348854549808
  endloop
endfacet
facet normal -0.3826834323650951 0.0 0.9238795325112845
  outer loop
    vertex -394.4012352875689 42.25127817644887 302.86175327000984
    vertex -394.64241624246637 45.25127817644887 302.7618528475052
    vertex -394.64241624246637 42.25127817644887 302.7618528475052
  endloop
endfacet
facet normal -0.3826834323650951 0.0 0.9238795325112845
  outer loop
    vertex -394.64241624246637 45.25127817644887 302.7618528475052
    vertex -394.4012352875689 42.25127817644887 302.86175327000984
    vertex -394.4012352875689 45.25127817644887 302.86175327000984
  endloop
endfacet
facet normal -0.13052619222005077 0.0 0.9914448613738106
  outer loop
    vertex -394.64241624246637 42.25127817644887 302.7618528475052
    vertex -394.90123528756885 45.25127817644887 302.7277786737943
    vertex -394.90123528756885 42.25127817644887 302.7277786737943
  endloop
endfacet
facet normal -0.13052619222005077 0.0 0.9914448613738106
  outer loop
    vertex -394.90123528756885 45.25127817644887 302.7277786737943
    vertex -394.64241624246637 42.25127817644887 302.7618528475052
    vertex -394.64241624246637 45.25127817644887 302.7618528475052
  endloop
endfacet
endsolid crane
